Amatic-Bold.ufo
<glyph name="quotedbl" format="1">
  <advance width="359"/>
  <unicode hex="0022"/>
  <outline>
    <contour>
      <point x="146" y="1435"/>
      <point x="162" y="1193"/>
      <point x="175" y="1193" type="curve" smooth="yes"/>
      <point x="182" y="1193" type="line" smooth="yes"/>
      <point x="215" y="1193"/>
      <point x="238" y="1433"/>
      <point x="241" y="1531" type="curve"/>
      <point x="236" y="1556"/>
      <point x="226" y="1578"/>
      <point x="207" y="1578" type="curve" smooth="yes"/>
      <point x="179" y="1578"/>
      <point x="146" y="1559"/>
      <point x="146" y="1531" type="curve" smooth="yes"/>
    </contour>
    <contour>
      <point x="-40" y="1435"/>
      <point x="-35" y="1193"/>
      <point x="-31" y="1193" type="curve" smooth="yes"/>
      <point x="-24" y="1193" type="line" smooth="yes"/>
      <point x="16" y="1193"/>
      <point x="51" y="1407"/>
      <point x="51" y="1511" type="curve" smooth="yes"/>
      <point x="51" y="1514"/>
      <point x="50" y="1521"/>
      <point x="50" y="1525" type="curve" smooth="yes"/>
      <point x="46" y="1556"/>
      <point x="31" y="1578"/>
      <point x="1" y="1578" type="curve" smooth="yes"/>
      <point x="-17" y="1578"/>
      <point x="-40" y="1559"/>
      <point x="-40" y="1531" type="curve" smooth="yes"/>
    </contour>
  </outline>
</glyph>
<glyph name="numbersign" format="1">
  <advance width="748"/>
  <unicode hex="0023"/>
  <outline>
    <contour>
      <point x="676" y="637" type="line"/>
      <point x="676" y="687"/>
      <point x="632" y="699"/>
      <point x="591" y="699" type="curve" smooth="yes"/>
      <point x="584" y="699"/>
      <point x="577" y="698"/>
      <point x="570" y="698" type="curve"/>
      <point x="571" y="786"/>
      <point x="576" y="875"/>
      <point x="595" y="962" type="curve"/>
      <point x="662" y="959" type="line"/>
      <point x="698" y="959"/>
      <point x="709" y="991"/>
      <point x="716" y="1020" type="curve"/>
      <point x="673" y="1067" type="line"/>
      <point x="607" y="1067" type="line"/>
      <point x="611" y="1223"/>
      <point x="680" y="1369"/>
      <point x="680" y="1525" type="curve" smooth="yes"/>
      <point x="680" y="1546"/>
      <point x="652" y="1566"/>
      <point x="632" y="1566" type="curve" smooth="yes"/>
      <point x="610" y="1566"/>
      <point x="592" y="1552"/>
      <point x="579" y="1535" type="curve"/>
      <point x="554" y="1377"/>
      <point x="537" y="1219"/>
      <point x="505" y="1062" type="curve"/>
      <point x="465" y="1052"/>
      <point x="422" y="1054"/>
      <point x="381" y="1054" type="curve" smooth="yes"/>
      <point x="362" y="1054"/>
      <point x="344" y="1054"/>
      <point x="326" y="1058" type="curve"/>
      <point x="328" y="1213"/>
      <point x="363" y="1365"/>
      <point x="363" y="1520" type="curve"/>
      <point x="340" y="1567" type="line"/>
      <point x="325" y="1567" type="line" smooth="yes"/>
      <point x="278" y="1567"/>
      <point x="272" y="1530"/>
      <point x="272" y="1494" type="curve" smooth="yes"/>
      <point x="272" y="1481"/>
      <point x="273" y="1468"/>
      <point x="273" y="1457" type="curve" smooth="yes"/>
      <point x="273" y="1320"/>
      <point x="245" y="1185"/>
      <point x="228" y="1049" type="curve"/>
      <point x="207" y="1047"/>
      <point x="186" y="1046"/>
      <point x="165" y="1046" type="curve" smooth="yes"/>
      <point x="144" y="1046"/>
      <point x="123" y="1047"/>
      <point x="102" y="1047" type="curve"/>
      <point x="72" y="1014" type="line"/>
      <point x="72" y="1004" type="line" smooth="yes"/>
      <point x="72" y="955"/>
      <point x="123" y="945"/>
      <point x="169" y="945" type="curve" smooth="yes"/>
      <point x="188" y="945"/>
      <point x="207" y="947"/>
      <point x="220" y="948" type="curve"/>
      <point x="213" y="859"/>
      <point x="204" y="769"/>
      <point x="189" y="681" type="curve"/>
      <point x="176" y="681"/>
      <point x="152" y="683"/>
      <point x="127" y="683" type="curve" smooth="yes"/>
      <point x="81" y="683"/>
      <point x="31" y="676"/>
      <point x="31" y="637" type="curve" smooth="yes"/>
      <point x="31" y="583"/>
      <point x="72" y="571"/>
      <point x="116" y="571" type="curve" smooth="yes"/>
      <point x="137" y="571"/>
      <point x="158" y="574"/>
      <point x="176" y="576" type="curve"/>
      <point x="137" y="375"/>
      <point x="105" y="170"/>
      <point x="105" y="-36" type="curve" smooth="yes"/>
      <point x="105" y="-65"/>
      <point x="138" y="-80"/>
      <point x="163" y="-80" type="curve" smooth="yes"/>
      <point x="249" y="-80"/>
      <point x="262" y="488"/>
      <point x="274" y="582" type="curve"/>
      <point x="324" y="585" type="line"/>
      <point x="371" y="585"/>
      <point x="419" y="585"/>
      <point x="466" y="581" type="curve"/>
      <point x="459" y="374"/>
      <point x="401" y="171"/>
      <point x="401" y="-37" type="curve" smooth="yes"/>
      <point x="401" y="-74"/>
      <point x="443" y="-81"/>
      <point x="472" y="-81" type="curve"/>
      <point x="507" y="-39" type="line"/>
      <point x="507" y="171"/>
      <point x="545" y="378"/>
      <point x="563" y="587" type="curve"/>
      <point x="593" y="586" type="line" smooth="yes"/>
      <point x="628" y="585"/>
      <point x="676" y="592"/>
      <point x="677" y="637" type="curve"/>
    </contour>
    <contour>
      <point x="299" y="685"/>
      <point x="290" y="685"/>
      <point x="282" y="686" type="curve"/>
      <point x="285" y="776"/>
      <point x="290" y="867"/>
      <point x="314" y="954" type="curve"/>
      <point x="342" y="959"/>
      <point x="371" y="960"/>
      <point x="400" y="960" type="curve" smooth="yes"/>
      <point x="432" y="960"/>
      <point x="465" y="959"/>
      <point x="496" y="952" type="curve"/>
      <point x="495" y="864"/>
      <point x="478" y="777"/>
      <point x="463" y="691" type="curve"/>
      <point x="412" y="685"/>
      <point x="359" y="685"/>
      <point x="307" y="685" type="curve" smooth="yes"/>
    </contour>
  </outline>
</glyph>
<glyph name="ampersand" format="1">
  <advance width="903"/>
  <unicode hex="0026"/>
  <outline>
    <contour>
      <point x="312" y="1108"/>
      <point x="309" y="1199"/>
      <point x="309" y="1291" type="curve" smooth="yes"/>
      <point x="309" y="1400" type="line"/>
      <point x="325" y="1436"/>
      <point x="343" y="1450"/>
      <point x="361" y="1450" type="curve" smooth="yes"/>
      <point x="412" y="1450"/>
      <point x="462" y="1334"/>
      <point x="462" y="1291" type="curve" smooth="yes"/>
      <point x="462" y="1213"/>
      <point x="370" y="1065"/>
      <point x="312" y="993" type="curve"/>
      <point x="312" y="1016" type="line" smooth="yes"/>
    </contour>
    <contour>
      <point x="861" y="701"/>
      <point x="831" y="716"/>
      <point x="803" y="722" type="curve"/>
      <point x="752" y="705"/>
      <point x="627" y="696"/>
      <point x="571" y="696" type="curve"/>
      <point x="571" y="644" type="line"/>
      <point x="580" y="624"/>
      <point x="582" y="609"/>
      <point x="605" y="609" type="curve"/>
      <point x="605" y="600" type="line" smooth="yes"/>
      <point x="605" y="477"/>
      <point x="591" y="352"/>
      <point x="541" y="238" type="curve"/>
      <point x="465" y="318"/>
      <point x="336" y="734"/>
      <point x="336" y="846" type="curve" smooth="yes"/>
      <point x="336" y="876"/>
      <point x="373" y="917"/>
      <point x="388" y="944" type="curve"/>
      <point x="492" y="1065"/>
      <point x="554" y="1188"/>
      <point x="554" y="1360" type="curve" smooth="yes"/>
      <point x="554" y="1463"/>
      <point x="440" y="1544"/>
      <point x="344" y="1544" type="curve" smooth="yes"/>
      <point x="275" y="1544"/>
      <point x="216" y="1502"/>
      <point x="216" y="1396" type="curve" smooth="yes"/>
      <point x="216" y="1226" type="line" smooth="yes"/>
      <point x="216" y="1132"/>
      <point x="229" y="1039"/>
      <point x="230" y="945" type="curve"/>
      <point x="121" y="733"/>
      <point x="48" y="600"/>
      <point x="48" y="354" type="curve" smooth="yes"/>
      <point x="48" y="202"/>
      <point x="165" y="18"/>
      <point x="331" y="18" type="curve" smooth="yes"/>
      <point x="419" y="18"/>
      <point x="490" y="47"/>
      <point x="562" y="96" type="curve"/>
      <point x="621" y="53"/>
      <point x="686" y="19"/>
      <point x="760" y="19" type="curve" smooth="yes"/>
      <point x="809" y="19"/>
      <point x="864" y="26"/>
      <point x="864" y="87" type="curve"/>
      <point x="826" y="118" type="line"/>
      <point x="798" y="118"/>
      <point x="771" y="112"/>
      <point x="743" y="112" type="curve" smooth="yes"/>
      <point x="693" y="112"/>
      <point x="647" y="140"/>
      <point x="613" y="175" type="curve"/>
      <point x="696" y="285"/>
      <point x="697" y="516"/>
      <point x="697" y="613" type="curve"/>
      <point x="748" y="613" type="line" smooth="yes"/>
      <point x="750" y="613"/>
      <point x="752" y="612"/>
      <point x="754" y="612" type="curve" smooth="yes"/>
      <point x="792" y="612"/>
      <point x="861" y="621"/>
      <point x="861" y="668" type="curve" smooth="yes"/>
    </contour>
    <contour>
      <point x="143" y="528"/>
      <point x="176" y="671"/>
      <point x="251" y="789" type="curve"/>
      <point x="291" y="546"/>
      <point x="368" y="347"/>
      <point x="499" y="158" type="curve"/>
      <point x="470" y="128"/>
      <point x="390" y="103"/>
      <point x="349" y="103" type="curve" smooth="yes"/>
      <point x="197" y="103"/>
      <point x="143" y="262"/>
      <point x="143" y="389" type="curve" smooth="yes"/>
    </contour>
  </outline>
</glyph>
<glyph name="parenleft" format="1">
  <advance width="418"/>
  <unicode hex="0028"/>
  <outline>
    <contour>
      <point x="396" y="-319" type="line"/>
      <point x="379" y="-251"/>
      <point x="337" y="-193"/>
      <point x="308" y="-130" type="curve" smooth="yes"/>
      <point x="185" y="139"/>
      <point x="154" y="583"/>
      <point x="154" y="879" type="curve" smooth="yes"/>
      <point x="154" y="1048"/>
      <point x="181" y="1259"/>
      <point x="245" y="1416" type="curve" smooth="yes"/>
      <point x="273" y="1484"/>
      <point x="317" y="1545"/>
      <point x="318" y="1621" type="curve"/>
      <point x="282" y="1651" type="line"/>
      <point x="273" y="1651" type="line" smooth="yes"/>
      <point x="131" y="1651"/>
      <point x="52" y="1001"/>
      <point x="52" y="881" type="curve" smooth="yes"/>
      <point x="52" y="701"/>
      <point x="146" y="-361"/>
      <point x="338" y="-361" type="curve" smooth="yes"/>
      <point x="364" y="-361"/>
      <point x="385" y="-340"/>
      <point x="394" y="-318" type="curve"/>
    </contour>
  </outline>
</glyph>
<glyph name="parenright" format="1">
  <advance width="434"/>
  <unicode hex="0029"/>
  <outline>
    <contour>
      <point x="388" y="817" type="line"/>
      <point x="386" y="954"/>
      <point x="323" y="1650"/>
      <point x="157" y="1650" type="curve"/>
      <point x="120" y="1621" type="line"/>
      <point x="120" y="1610" type="line" smooth="yes"/>
      <point x="120" y="1538"/>
      <point x="168" y="1480"/>
      <point x="194" y="1416" type="curve" smooth="yes"/>
      <point x="261" y="1253"/>
      <point x="285" y="993"/>
      <point x="285" y="816" type="curve" smooth="yes"/>
      <point x="285" y="564"/>
      <point x="214" y="158"/>
      <point x="111" y="-71" type="curve" smooth="yes"/>
      <point x="92" y="-112"/>
      <point x="25" y="-217"/>
      <point x="25" y="-255" type="curve" smooth="yes"/>
      <point x="25" y="-284"/>
      <point x="52" y="-303"/>
      <point x="79" y="-303" type="curve" smooth="yes"/>
      <point x="249" y="-303"/>
      <point x="387" y="651"/>
      <point x="388" y="815" type="curve"/>
    </contour>
  </outline>
</glyph>
<glyph name="asterisk" format="1">
  <advance width="1051"/>
  <unicode hex="002A"/>
  <outline>
    <contour>
      <point x="644" y="1189"/>
      <point x="614" y="1190"/>
      <point x="583" y="1194" type="curve"/>
      <point x="613" y="1268"/>
      <point x="706" y="1444"/>
      <point x="706" y="1512" type="curve" smooth="yes"/>
      <point x="706" y="1542"/>
      <point x="678" y="1567"/>
      <point x="649" y="1567" type="curve" smooth="yes"/>
      <point x="577" y="1567"/>
      <point x="516" y="1317"/>
      <point x="496" y="1258" type="curve"/>
      <point x="471" y="1307"/>
      <point x="401" y="1547"/>
      <point x="345" y="1547" type="curve" smooth="yes"/>
      <point x="318" y="1547"/>
      <point x="289" y="1531"/>
      <point x="289" y="1501" type="curve" smooth="yes"/>
      <point x="289" y="1455"/>
      <point x="398" y="1250"/>
      <point x="425" y="1196" type="curve"/>
      <point x="182" y="1196" type="line" smooth="yes"/>
      <point x="156" y="1196"/>
      <point x="136" y="1175"/>
      <point x="136" y="1150" type="curve" smooth="yes"/>
      <point x="136" y="1092"/>
      <point x="169" y="1096"/>
      <point x="214" y="1096" type="curve" smooth="yes"/>
      <point x="439" y="1096" type="line"/>
      <point x="410" y="1012"/>
      <point x="288" y="817"/>
      <point x="283" y="745" type="curve"/>
      <point x="284" y="736" type="line"/>
      <point x="328" y="690" type="line"/>
      <point x="377" y="690" type="line"/>
      <point x="434" y="782"/>
      <point x="471" y="910"/>
      <point x="511" y="1011" type="curve"/>
      <point x="598" y="821" type="line"/>
      <point x="600" y="776"/>
      <point x="619" y="700"/>
      <point x="676" y="700" type="curve" smooth="yes"/>
      <point x="705" y="700"/>
      <point x="728" y="723"/>
      <point x="728" y="752" type="curve" smooth="yes"/>
      <point x="728" y="819"/>
      <point x="606" y="1015"/>
      <point x="576" y="1094" type="curve"/>
      <point x="665" y="1094"/>
      <point x="754" y="1085"/>
      <point x="843" y="1085" type="curve" smooth="yes"/>
      <point x="878" y="1085"/>
      <point x="914" y="1096"/>
      <point x="914" y="1137" type="curve" smooth="yes"/>
      <point x="914" y="1187"/>
      <point x="865" y="1199"/>
      <point x="810" y="1199" type="curve" smooth="yes"/>
      <point x="759" y="1199"/>
      <point x="702" y="1189"/>
      <point x="675" y="1189" type="curve" smooth="yes"/>
    </contour>
  </outline>
</glyph>
<glyph name="plus" format="1">
  <advance width="853"/>
  <unicode hex="002B"/>
  <outline>
    <contour>
      <point x="341" y="518"/>
      <point x="354" y="451"/>
      <point x="354" y="385" type="curve" smooth="yes"/>
      <point x="354" y="352"/>
      <point x="391" y="333"/>
      <point x="420" y="333" type="curve" smooth="yes"/>
      <point x="452" y="333"/>
      <point x="487" y="353"/>
      <point x="487" y="389" type="curve" smooth="yes"/>
      <point x="487" y="444"/>
      <point x="468" y="498"/>
      <point x="468" y="553" type="curve" smooth="yes"/>
      <point x="468" y="593"/>
      <point x="499" y="602"/>
      <point x="533" y="602" type="curve" smooth="yes"/>
      <point x="574" y="602"/>
      <point x="613" y="591"/>
      <point x="654" y="591" type="curve" smooth="yes"/>
      <point x="686" y="591"/>
      <point x="712" y="615"/>
      <point x="712" y="647" type="curve" smooth="yes"/>
      <point x="712" y="697"/>
      <point x="661" y="709"/>
      <point x="606" y="709" type="curve" smooth="yes"/>
      <point x="560" y="709"/>
      <point x="512" y="701"/>
      <point x="487" y="701" type="curve" smooth="yes"/>
      <point x="460" y="701"/>
      <point x="461" y="853"/>
      <point x="460" y="884" type="curve" smooth="yes"/>
      <point x="460" y="909" type="line" smooth="yes"/>
      <point x="460" y="942"/>
      <point x="440" y="968"/>
      <point x="408" y="968" type="curve" smooth="yes"/>
      <point x="349" y="968"/>
      <point x="342" y="900"/>
      <point x="342" y="855" type="curve" smooth="yes"/>
      <point x="342" y="805"/>
      <point x="352" y="755"/>
      <point x="354" y="705" type="curve"/>
      <point x="338" y="702"/>
      <point x="323" y="701"/>
      <point x="307" y="701" type="curve" smooth="yes"/>
      <point x="267" y="701"/>
      <point x="226" y="708"/>
      <point x="186" y="708" type="curve" smooth="yes"/>
      <point x="157" y="708"/>
      <point x="140" y="682"/>
      <point x="140" y="655" type="curve" smooth="yes"/>
      <point x="140" y="602"/>
      <point x="180" y="590"/>
      <point x="227" y="590" type="curve" smooth="yes"/>
      <point x="267" y="590"/>
      <point x="313" y="599"/>
      <point x="341" y="599" type="curve"/>
      <point x="341" y="584" type="line" smooth="yes"/>
    </contour>
  </outline>
</glyph>
<glyph name="comma" format="1">
  <advance width="451"/>
  <unicode hex="002C"/>
  <outline>
    <contour>
      <point x="344" y="141"/>
      <point x="323" y="185"/>
      <point x="273" y="185" type="curve" smooth="yes"/>
      <point x="174" y="185"/>
      <point x="207" y="-36"/>
      <point x="127" y="-130" type="curve" smooth="yes"/>
      <point x="108" y="-146"/>
      <point x="102" y="-163"/>
      <point x="102" y="-175" type="curve" smooth="yes"/>
      <point x="102" y="-192"/>
      <point x="116" y="-202"/>
      <point x="132" y="-202" type="curve" smooth="yes"/>
      <point x="237" y="-202"/>
      <point x="344" y="-15"/>
      <point x="344" y="77" type="curve" smooth="yes"/>
    </contour>
  </outline>
</glyph>
<glyph name="hyphen" format="1">
  <advance width="731"/>
  <unicode hex="002D"/>
  <outline>
    <contour>
      <point x="270" y="656"/>
      <point x="587" y="666"/>
      <point x="587" y="739" type="curve" smooth="yes"/>
      <point x="587" y="775"/>
      <point x="552" y="798"/>
      <point x="519" y="798" type="curve" smooth="yes"/>
      <point x="462" y="798"/>
      <point x="145" y="787"/>
      <point x="145" y="715" type="curve" smooth="yes"/>
      <point x="145" y="680"/>
      <point x="179" y="656"/>
      <point x="212" y="656" type="curve" smooth="yes"/>
    </contour>
  </outline>
</glyph>
<glyph name="period" format="1">
  <advance width="445"/>
  <unicode hex="002E"/>
  <outline>
    <contour>
      <point x="184" y="120"/>
      <point x="148" y="82"/>
      <point x="148" y="41" type="curve" smooth="yes"/>
      <point x="148" y="4"/>
      <point x="179" y="-32"/>
      <point x="217" y="-32" type="curve" smooth="yes"/>
      <point x="262" y="-32"/>
      <point x="298" y="-4"/>
      <point x="298" y="43" type="curve" smooth="yes"/>
      <point x="298" y="81"/>
      <point x="264" y="120"/>
      <point x="225" y="120" type="curve" smooth="yes"/>
    </contour>
  </outline>
</glyph>
<glyph name="slash" format="1">
  <advance width="512"/>
  <unicode hex="002F"/>
  <outline>
    <contour>
      <point x="434" y="1567"/>
      <point x="426" y="1562"/>
      <point x="423" y="1553" type="curve" smooth="yes"/>
      <point x="347" y="1303"/>
      <point x="74" y="153"/>
      <point x="37" y="30" type="curve" smooth="yes"/>
      <point x="33" y="15"/>
      <point x="31" y="2"/>
      <point x="31" y="-9" type="curve" smooth="yes"/>
      <point x="31" y="-38"/>
      <point x="43" y="-54"/>
      <point x="55" y="-54" type="curve" smooth="yes"/>
      <point x="63" y="-54"/>
      <point x="72" y="-46"/>
      <point x="75" y="-31" type="curve"/>
      <point x="173" y="181"/>
      <point x="443" y="1324"/>
      <point x="478" y="1503" type="curve" smooth="yes"/>
      <point x="479" y="1509"/>
      <point x="480" y="1515"/>
      <point x="480" y="1520" type="curve" smooth="yes"/>
      <point x="480" y="1552"/>
      <point x="459" y="1567"/>
      <point x="443" y="1567" type="curve" smooth="yes"/>
    </contour>
  </outline>
</glyph>
<glyph name="zero" format="1">
  <advance width="660"/>
  <unicode hex="0030"/>
  <outline>
    <contour>
      <point x="449" y="1490"/>
      <point x="471" y="848"/>
      <point x="471" y="568" type="curve" smooth="yes"/>
      <point x="471" y="497"/>
      <point x="452" y="100"/>
      <point x="365" y="100" type="curve" smooth="yes"/>
      <point x="233" y="100"/>
      <point x="225" y="685"/>
      <point x="225" y="790" type="curve" smooth="yes"/>
      <point x="225" y="857"/>
      <point x="204" y="923"/>
      <point x="204" y="990" type="curve" smooth="yes"/>
      <point x="204" y="1125"/>
      <point x="196" y="1260"/>
      <point x="196" y="1395" type="curve" smooth="yes"/>
      <point x="196" y="1451"/>
      <point x="204" y="1481"/>
      <point x="249" y="1518" type="curve"/>
    </contour>
    <contour>
      <point x="131" y="1563"/>
      <point x="98" y="1408"/>
      <point x="98" y="1222" type="curve" smooth="yes"/>
      <point x="98" y="976"/>
      <point x="88" y="7"/>
      <point x="346" y="7" type="curve" smooth="yes"/>
      <point x="558" y="7"/>
      <point x="566" y="373"/>
      <point x="566" y="521" type="curve" smooth="yes"/>
      <point x="566" y="798"/>
      <point x="562" y="1563"/>
      <point x="272" y="1563" type="curve" smooth="yes"/>
    </contour>
  </outline>
</glyph>
<glyph name="one" format="1">
  <advance width="452"/>
  <unicode hex="0031"/>
  <outline>
    <contour>
      <point x="155" y="1356"/>
      <point x="152" y="1329"/>
      <point x="152" y="1308" type="curve" smooth="yes"/>
      <point x="152" y="923"/>
      <point x="214" y="519"/>
      <point x="214" y="120" type="curve" smooth="yes"/>
      <point x="214" y="93"/>
      <point x="193" y="86"/>
      <point x="169" y="86" type="curve" smooth="yes"/>
      <point x="121" y="86"/>
      <point x="116" y="75"/>
      <point x="116" y="47" type="curve" smooth="yes"/>
      <point x="116" y="-3"/>
      <point x="139" y="-9"/>
      <point x="180" y="-9" type="curve" smooth="yes"/>
      <point x="203" y="-9"/>
      <point x="211" y="-8"/>
      <point x="241" y="-8" type="curve" smooth="yes"/>
      <point x="312" y="-8"/>
      <point x="474" y="-4"/>
      <point x="474" y="52" type="curve" smooth="yes"/>
      <point x="474" y="99"/>
      <point x="423" y="103"/>
      <point x="387" y="103" type="curve"/>
      <point x="387" y="102" type="line"/>
      <point x="362" y="102"/>
      <point x="337" y="98"/>
      <point x="312" y="96" type="curve"/>
      <point x="312" y="109" type="line" smooth="yes"/>
      <point x="312" y="433"/>
      <point x="268" y="756"/>
      <point x="268" y="1079" type="curve" smooth="yes"/>
      <point x="268" y="1205"/>
      <point x="237" y="1329"/>
      <point x="237" y="1455" type="curve" smooth="yes"/>
      <point x="237" y="1484"/>
      <point x="243" y="1513"/>
      <point x="249" y="1541" type="curve"/>
      <point x="231" y="1574"/>
      <point x="177" y="1575"/>
      <point x="144" y="1575" type="curve" smooth="yes"/>
      <point x="101" y="1575"/>
      <point x="-21" y="1574"/>
      <point x="-21" y="1521" type="curve" smooth="yes"/>
      <point x="-21" y="1483"/>
      <point x="7" y="1477"/>
      <point x="37" y="1477" type="curve" smooth="yes"/>
      <point x="54" y="1477"/>
      <point x="71" y="1479"/>
      <point x="84" y="1479" type="curve" smooth="yes"/>
      <point x="144" y="1479"/>
      <point x="155" y="1432"/>
      <point x="155" y="1383" type="curve" smooth="yes"/>
    </contour>
  </outline>
</glyph>
<glyph name="three" format="1">
  <advance width="476"/>
  <unicode hex="0033"/>
  <outline>
    <contour>
      <point x="343" y="993"/>
      <point x="392" y="1040"/>
      <point x="392" y="1124" type="curve" smooth="yes"/>
      <point x="392" y="1292"/>
      <point x="358" y="1573"/>
      <point x="187" y="1573" type="curve" smooth="yes"/>
      <point x="90" y="1573"/>
      <point x="21" y="1501"/>
      <point x="-13" y="1416" type="curve"/>
      <point x="-8" y="1387"/>
      <point x="16" y="1360"/>
      <point x="48" y="1360" type="curve" smooth="yes"/>
      <point x="131" y="1360"/>
      <point x="107" y="1477"/>
      <point x="183" y="1477" type="curve" smooth="yes"/>
      <point x="276" y="1477"/>
      <point x="290" y="1216"/>
      <point x="290" y="1150" type="curve" smooth="yes"/>
      <point x="290" y="1016"/>
      <point x="160" y="950"/>
      <point x="159" y="889" type="curve" smooth="yes"/>
      <point x="159" y="859"/>
      <point x="192" y="847"/>
      <point x="222" y="847" type="curve" smooth="yes"/>
      <point x="230" y="847"/>
      <point x="237" y="847"/>
      <point x="243" y="849" type="curve"/>
      <point x="366" y="694"/>
      <point x="368" y="482"/>
      <point x="368" y="294" type="curve" smooth="yes"/>
      <point x="368" y="207"/>
      <point x="358" y="64"/>
      <point x="243" y="64" type="curve" smooth="yes"/>
      <point x="174" y="64"/>
      <point x="184" y="110"/>
      <point x="142" y="110" type="curve" smooth="yes"/>
      <point x="110" y="110"/>
      <point x="108" y="101"/>
      <point x="108" y="76" type="curve" smooth="yes"/>
      <point x="108" y="5"/>
      <point x="202" y="-20"/>
      <point x="259" y="-20" type="curve" smooth="yes"/>
      <point x="458" y="-20"/>
      <point x="471" y="213"/>
      <point x="471" y="361" type="curve" smooth="yes"/>
      <point x="471" y="509"/>
      <point x="438" y="844"/>
      <point x="300" y="927" type="curve"/>
    </contour>
  </outline>
</glyph>
<glyph name="four" format="1">
  <advance width="554"/>
  <unicode hex="0034"/>
  <outline>
    <contour>
      <point x="322" y="1206"/>
      <point x="288" y="1191"/>
      <point x="288" y="1160" type="curve" smooth="yes"/>
      <point x="288" y="983"/>
      <point x="270" y="780"/>
      <point x="269" y="587" type="curve"/>
      <point x="244" y="581"/>
      <point x="219" y="577"/>
      <point x="194" y="576" type="curve"/>
      <point x="192" y="591"/>
      <point x="191" y="607"/>
      <point x="191" y="622" type="curve" smooth="yes"/>
      <point x="191" y="796"/>
      <point x="220" y="969"/>
      <point x="220" y="1143" type="curve" smooth="yes"/>
      <point x="220" y="1179"/>
      <point x="218" y="1216"/>
      <point x="214" y="1252" type="curve"/>
      <point x="214" y="1259" type="line"/>
      <point x="211" y="1271"/>
      <point x="210" y="1284"/>
      <point x="210" y="1296" type="curve" smooth="yes"/>
      <point x="210" y="1308"/>
      <point x="211" y="1321"/>
      <point x="211" y="1333" type="curve" smooth="yes"/>
      <point x="211" y="1386"/>
      <point x="220" y="1440"/>
      <point x="220" y="1492" type="curve" smooth="yes"/>
      <point x="220" y="1524"/>
      <point x="188" y="1543"/>
      <point x="159" y="1543" type="curve" smooth="yes"/>
      <point x="122" y="1543"/>
      <point x="120" y="1525"/>
      <point x="120" y="1503" type="curve" smooth="yes"/>
      <point x="120" y="1124" type="line" smooth="yes"/>
      <point x="120" y="991"/>
      <point x="89" y="844"/>
      <point x="89" y="706" type="curve" smooth="yes"/>
      <point x="89" y="666"/>
      <point x="91" y="628"/>
      <point x="98" y="591" type="curve"/>
      <point x="91" y="565"/>
      <point x="89" y="539"/>
      <point x="89" y="512" type="curve"/>
      <point x="113" y="493"/>
      <point x="138" y="479"/>
      <point x="169" y="479" type="curve"/>
      <point x="169" y="480" type="line"/>
      <point x="206" y="480"/>
      <point x="244" y="489"/>
      <point x="281" y="491" type="curve"/>
      <point x="284" y="470"/>
      <point x="285" y="449"/>
      <point x="285" y="428" type="curve" smooth="yes"/>
      <point x="285" y="398"/>
      <point x="283" y="369"/>
      <point x="283" y="339" type="curve" smooth="yes"/>
      <point x="283" y="272"/>
      <point x="298" y="207"/>
      <point x="298" y="140" type="curve" smooth="yes"/>
      <point x="298" y="115"/>
      <point x="294" y="90"/>
      <point x="287" y="66" type="curve"/>
      <point x="287" y="59" type="line" smooth="yes"/>
      <point x="287" y="23"/>
      <point x="306" y="-38"/>
      <point x="352" y="-38" type="curve" smooth="yes"/>
      <point x="390" y="-38"/>
      <point x="400" y="9"/>
      <point x="400" y="39" type="curve" smooth="yes"/>
      <point x="400" y="76" type="line"/>
      <point x="392" y="89"/>
      <point x="391" y="103"/>
      <point x="391" y="117" type="curve" smooth="yes"/>
      <point x="391" y="130"/>
      <point x="393" y="143"/>
      <point x="395" y="155" type="curve"/>
      <point x="380" y="190"/>
      <point x="374" y="436"/>
      <point x="374" y="489" type="curve" smooth="yes"/>
      <point x="374" y="505"/>
      <point x="392" y="507"/>
      <point x="407" y="507" type="curve" smooth="yes"/>
      <point x="443" y="507"/>
      <point x="489" y="513"/>
      <point x="489" y="557" type="curve" smooth="yes"/>
      <point x="489" y="593"/>
      <point x="459" y="601"/>
      <point x="428" y="601" type="curve" smooth="yes"/>
      <point x="406" y="601"/>
      <point x="384" y="597"/>
      <point x="369" y="596" type="curve"/>
      <point x="373" y="753"/>
      <point x="373" y="913"/>
      <point x="373" y="1072" type="curve" smooth="yes"/>
      <point x="373" y="1170" type="line"/>
      <point x="341" y="1206" type="line"/>
    </contour>
  </outline>
</glyph>
<glyph name="seven" format="1">
  <advance width="467"/>
  <unicode hex="0037"/>
  <outline>
    <contour>
      <point x="194" y="108"/>
      <point x="194" y="114"/>
      <point x="193" y="119" type="curve"/>
      <point x="308" y="448"/>
      <point x="328" y="1169"/>
      <point x="400" y="1523" type="curve"/>
      <point x="386" y="1578"/>
      <point x="342" y="1582"/>
      <point x="296" y="1582" type="curve" smooth="yes"/>
      <point x="258" y="1582" type="line" smooth="yes"/>
      <point x="210" y="1582"/>
      <point x="70" y="1580"/>
      <point x="70" y="1549" type="curve" smooth="yes"/>
      <point x="70" y="1522"/>
      <point x="96" y="1499"/>
      <point x="118" y="1489" type="curve"/>
      <point x="161" y="1493"/>
      <point x="205" y="1498"/>
      <point x="248" y="1498" type="curve" smooth="yes"/>
      <point x="264" y="1498"/>
      <point x="280" y="1496"/>
      <point x="296" y="1494" type="curve"/>
      <point x="287" y="1070"/>
      <point x="219" y="587"/>
      <point x="112" y="182" type="curve" smooth="yes"/>
      <point x="98" y="129"/>
      <point x="75" y="80"/>
      <point x="75" y="24" type="curve"/>
      <point x="114" y="-11" type="line"/>
      <point x="164" y="-11"/>
      <point x="194" y="55"/>
      <point x="194" y="101" type="curve" smooth="yes"/>
    </contour>
  </outline>
</glyph>
<glyph name="nine" format="1">
  <advance width="563"/>
  <unicode hex="0039"/>
  <outline>
    <contour>
      <point x="426" y="139"/>
      <point x="439" y="188"/>
      <point x="440" y="237" type="curve"/>
      <point x="440" y="631"/>
      <point x="464" y="1026"/>
      <point x="464" y="1420" type="curve" smooth="yes"/>
      <point x="464" y="1547"/>
      <point x="433" y="1614"/>
      <point x="292" y="1614" type="curve" smooth="yes"/>
      <point x="121" y="1614"/>
      <point x="94" y="1370"/>
      <point x="94" y="1243" type="curve" smooth="yes"/>
      <point x="94" y="1087"/>
      <point x="206" y="965"/>
      <point x="355" y="931" type="curve"/>
      <point x="356" y="848"/>
      <point x="359" y="772"/>
      <point x="359" y="686" type="curve" smooth="yes"/>
      <point x="359" y="502"/>
      <point x="357" y="94"/>
      <point x="327" y="4" type="curve"/>
      <point x="359" y="-34" type="line"/>
      <point x="409" y="-34"/>
      <point x="427" y="9"/>
      <point x="427" y="49" type="curve" smooth="yes"/>
      <point x="427" y="64"/>
      <point x="426" y="78"/>
      <point x="426" y="90" type="curve" smooth="yes"/>
    </contour>
    <contour>
      <point x="366" y="1288"/>
      <point x="365" y="1148"/>
      <point x="357" y="1009" type="curve"/>
      <point x="254" y="1067"/>
      <point x="194" y="1085"/>
      <point x="194" y="1247" type="curve" smooth="yes"/>
      <point x="194" y="1306"/>
      <point x="212" y="1527"/>
      <point x="293" y="1527" type="curve" smooth="yes"/>
      <point x="357" y="1527"/>
      <point x="366" y="1480"/>
      <point x="366" y="1427" type="curve" smooth="yes"/>
    </contour>
  </outline>
</glyph>
<glyph name="colon" format="1">
  <advance width="443"/>
  <unicode hex="003A"/>
  <outline>
    <contour>
      <point x="174" y="329"/>
      <point x="138" y="291"/>
      <point x="138" y="250" type="curve" smooth="yes"/>
      <point x="138" y="213"/>
      <point x="169" y="177"/>
      <point x="207" y="177" type="curve" smooth="yes"/>
      <point x="252" y="177"/>
      <point x="287" y="206"/>
      <point x="287" y="252" type="curve" smooth="yes"/>
      <point x="287" y="290"/>
      <point x="254" y="329"/>
      <point x="215" y="329" type="curve" smooth="yes"/>
    </contour>
    <contour>
      <point x="194" y="1103"/>
      <point x="159" y="1064"/>
      <point x="159" y="1024" type="curve" smooth="yes"/>
      <point x="159" y="987"/>
      <point x="189" y="951"/>
      <point x="227" y="951" type="curve" smooth="yes"/>
      <point x="272" y="951"/>
      <point x="308" y="979"/>
      <point x="308" y="1026" type="curve" smooth="yes"/>
      <point x="308" y="1064"/>
      <point x="274" y="1103"/>
      <point x="235" y="1103" type="curve" smooth="yes"/>
    </contour>
  </outline>
</glyph>
<glyph name="semicolon" format="1">
  <advance width="438"/>
  <unicode hex="003B"/>
  <outline>
    <contour>
      <point x="315" y="315"/>
      <point x="294" y="359"/>
      <point x="244" y="359" type="curve" smooth="yes"/>
      <point x="166" y="359"/>
      <point x="192" y="138"/>
      <point x="128" y="44" type="curve" smooth="yes"/>
      <point x="109" y="28"/>
      <point x="103" y="11"/>
      <point x="103" y="-1" type="curve" smooth="yes"/>
      <point x="103" y="-18"/>
      <point x="117" y="-28"/>
      <point x="133" y="-28" type="curve" smooth="yes"/>
      <point x="223" y="-28"/>
      <point x="315" y="159"/>
      <point x="315" y="251" type="curve" smooth="yes"/>
    </contour>
    <contour>
      <point x="214" y="1104"/>
      <point x="179" y="1065"/>
      <point x="179" y="1025" type="curve" smooth="yes"/>
      <point x="179" y="988"/>
      <point x="209" y="952"/>
      <point x="247" y="952" type="curve" smooth="yes"/>
      <point x="292" y="952"/>
      <point x="328" y="980"/>
      <point x="328" y="1027" type="curve" smooth="yes"/>
      <point x="328" y="1065"/>
      <point x="294" y="1104"/>
      <point x="255" y="1104" type="curve" smooth="yes"/>
    </contour>
  </outline>
</glyph>
<glyph name="equal" format="1">
  <advance width="684"/>
  <unicode hex="003D"/>
  <outline>
    <contour>
      <point x="629" y="866"/>
      <point x="539" y="872"/>
      <point x="470" y="872" type="curve" smooth="yes"/>
      <point x="103" y="872" type="line" smooth="yes"/>
      <point x="75" y="872"/>
      <point x="57" y="854"/>
      <point x="57" y="826" type="curve" smooth="yes"/>
      <point x="57" y="776"/>
      <point x="121" y="767"/>
      <point x="180" y="767" type="curve" smooth="yes"/>
      <point x="210" y="767"/>
      <point x="240" y="770"/>
      <point x="258" y="770" type="curve" smooth="yes"/>
      <point x="261" y="770"/>
      <point x="334" y="764"/>
      <point x="413" y="764" type="curve" smooth="yes"/>
      <point x="515" y="764"/>
      <point x="629" y="774"/>
      <point x="629" y="818" type="curve" smooth="yes"/>
    </contour>
    <contour>
      <point x="619" y="674"/>
      <point x="508" y="680"/>
      <point x="410" y="680" type="curve" smooth="yes"/>
      <point x="103" y="680" type="line" smooth="yes"/>
      <point x="75" y="680"/>
      <point x="57" y="662"/>
      <point x="57" y="634" type="curve" smooth="yes"/>
      <point x="57" y="592"/>
      <point x="108" y="589"/>
      <point x="139" y="589" type="curve" smooth="yes"/>
      <point x="283" y="589"/>
      <point x="427" y="579"/>
      <point x="571" y="579" type="curve" smooth="yes"/>
      <point x="599" y="579"/>
      <point x="619" y="597"/>
      <point x="619" y="626" type="curve" smooth="yes"/>
    </contour>
  </outline>
</glyph>
<glyph name="greater" format="1">
  <advance width="523"/>
  <unicode hex="003E"/>
  <outline>
    <contour>
      <point x="114" y="1202"/>
      <point x="369" y="908"/>
      <point x="369" y="702" type="curve" smooth="yes"/>
      <point x="369" y="654"/>
      <point x="45" y="116"/>
      <point x="45" y="24" type="curve" smooth="yes"/>
      <point x="45" y="-6"/>
      <point x="67" y="-23"/>
      <point x="88" y="-23" type="curve" smooth="yes"/>
      <point x="101" y="-23"/>
      <point x="113" y="-19"/>
      <point x="126" y="-19" type="curve"/>
      <point x="487" y="698" type="line"/>
      <point x="484" y="788"/>
      <point x="254" y="1404"/>
      <point x="167" y="1444" type="curve"/>
      <point x="167" y="1446" type="line"/>
      <point x="112" y="1411" type="line"/>
    </contour>
  </outline>
</glyph>
<glyph name="question" format="1">
  <advance width="464"/>
  <unicode hex="003F"/>
  <outline>
    <contour>
      <point x="171" y="148"/>
      <point x="131" y="107"/>
      <point x="131" y="68" type="curve" smooth="yes"/>
      <point x="131" y="31"/>
      <point x="163" y="-8"/>
      <point x="203" y="-8" type="curve" smooth="yes"/>
      <point x="251" y="-8"/>
      <point x="286" y="15"/>
      <point x="286" y="70" type="curve" smooth="yes"/>
      <point x="286" y="102"/>
      <point x="248" y="148"/>
      <point x="211" y="148" type="curve" smooth="yes"/>
    </contour>
    <contour>
      <point x="93" y="1547"/>
      <point x="63" y="1446"/>
      <point x="63" y="1359" type="curve" smooth="yes"/>
      <point x="63" y="1308"/>
      <point x="59" y="1203"/>
      <point x="121" y="1203" type="curve" smooth="yes"/>
      <point x="145" y="1203"/>
      <point x="182" y="1241"/>
      <point x="182" y="1245" type="curve" smooth="yes"/>
      <point x="174" y="1299"/>
      <point x="168" y="1341"/>
      <point x="168" y="1356" type="curve" smooth="yes"/>
      <point x="168" y="1397"/>
      <point x="174" y="1447"/>
      <point x="207" y="1447" type="curve" smooth="yes"/>
      <point x="266" y="1447"/>
      <point x="268" y="1297"/>
      <point x="268" y="1258" type="curve" smooth="yes"/>
      <point x="268" y="949"/>
      <point x="153" y="632"/>
      <point x="153" y="269" type="curve"/>
      <point x="163" y="232"/>
      <point x="182" y="223"/>
      <point x="203" y="223" type="curve" smooth="yes"/>
      <point x="222" y="223"/>
      <point x="193" y="229"/>
      <point x="254" y="229" type="curve"/>
      <point x="253" y="267"/>
      <point x="253" y="332"/>
      <point x="253" y="366" type="curve" smooth="yes"/>
      <point x="253" y="823"/>
      <point x="378" y="945"/>
      <point x="378" y="1260" type="curve" smooth="yes"/>
      <point x="378" y="1388"/>
      <point x="363" y="1547"/>
      <point x="203" y="1547" type="curve" smooth="yes"/>
    </contour>
  </outline>
</glyph>
<glyph name="at" format="1">
  <advance width="1030"/>
  <unicode hex="0040"/>
  <outline>
    <contour>
      <point x="15" y="685"/>
      <point x="17" y="-120"/>
      <point x="430" y="-120" type="curve" smooth="yes"/>
      <point x="744" y="-120"/>
      <point x="894" y="72"/>
      <point x="894" y="130" type="curve" smooth="yes"/>
      <point x="894" y="142"/>
      <point x="888" y="150"/>
      <point x="876" y="150" type="curve" smooth="yes"/>
      <point x="794" y="150"/>
      <point x="730" y="-31"/>
      <point x="434" y="-31" type="curve" smooth="yes"/>
      <point x="144" y="-31"/>
      <point x="136" y="688"/>
      <point x="136" y="930" type="curve" smooth="yes"/>
      <point x="136" y="966" type="line" smooth="yes"/>
      <point x="136" y="1050" type="line" smooth="yes"/>
      <point x="136" y="1300"/>
      <point x="152" y="1612"/>
      <point x="468" y="1612" type="curve" smooth="yes"/>
      <point x="813" y="1612"/>
      <point x="870" y="1092"/>
      <point x="870" y="776" type="curve" smooth="yes"/>
      <point x="870" y="723"/>
      <point x="865" y="536"/>
      <point x="817" y="510" type="curve"/>
      <point x="788" y="556" type="line"/>
      <point x="788" y="565" type="line"/>
      <point x="759" y="818"/>
      <point x="759" y="1351"/>
      <point x="491" y="1351" type="curve" smooth="yes"/>
      <point x="262" y="1351"/>
      <point x="258" y="1047"/>
      <point x="258" y="851" type="curve" smooth="yes"/>
      <point x="258" y="661"/>
      <point x="260" y="306"/>
      <point x="487" y="306" type="curve" smooth="yes"/>
      <point x="578" y="306"/>
      <point x="662" y="398"/>
      <point x="706" y="519" type="curve"/>
      <point x="734" y="459"/>
      <point x="770" y="406"/>
      <point x="809" y="406" type="curve" smooth="yes"/>
      <point x="981" y="406"/>
      <point x="985" y="645"/>
      <point x="985" y="767" type="curve" smooth="yes"/>
      <point x="985" y="1150"/>
      <point x="906" y="1719"/>
      <point x="478" y="1719" type="curve" smooth="yes"/>
      <point x="23" y="1719"/>
      <point x="15" y="1262"/>
      <point x="15" y="956" type="curve" smooth="yes"/>
    </contour>
    <contour>
      <point x="365" y="1035"/>
      <point x="409" y="1246"/>
      <point x="491" y="1246" type="curve" smooth="yes"/>
      <point x="612" y="1246"/>
      <point x="638" y="875"/>
      <point x="638" y="759" type="curve" smooth="yes"/>
      <point x="638" y="605" type="line" smooth="yes"/>
      <point x="638" y="550"/>
      <point x="565" y="410"/>
      <point x="503" y="410" type="curve" smooth="yes"/>
      <point x="409" y="410"/>
      <point x="365" y="617"/>
      <point x="365" y="825" type="curve" smooth="yes"/>
    </contour>
  </outline>
</glyph>
<glyph name="A" format="1">
  <advance width="656"/>
  <unicode hex="0041"/>
  <outline>
    <contour>
      <point x="552" y="897"/>
      <point x="472" y="1370"/>
      <point x="472" y="1525" type="curve"/>
      <point x="454" y="1539"/>
      <point x="428" y="1543"/>
      <point x="406" y="1543" type="curve" smooth="yes"/>
      <point x="253" y="1543"/>
      <point x="105" y="167"/>
      <point x="34" y="64" type="curve"/>
      <point x="43" y="26"/>
      <point x="92" y="23"/>
      <point x="124" y="23" type="curve"/>
      <point x="182" y="117"/>
      <point x="174" y="286"/>
      <point x="225" y="373" type="curve"/>
      <point x="281" y="369"/>
      <point x="420" y="351"/>
      <point x="464" y="321" type="curve"/>
      <point x="464" y="54" type="line" smooth="yes"/>
      <point x="464" y="13"/>
      <point x="487" y="1"/>
      <point x="527" y="1" type="curve" smooth="yes"/>
      <point x="574" y="1"/>
      <point x="595" y="24"/>
      <point x="595" y="70" type="curve" smooth="yes"/>
      <point x="595" y="284"/>
      <point x="552" y="521"/>
      <point x="552" y="710" type="curve" smooth="yes"/>
    </contour>
    <contour>
      <point x="394" y="1249"/>
      <point x="394" y="1243"/>
      <point x="394" y="1236" type="curve" smooth="yes"/>
      <point x="394" y="1110"/>
      <point x="452" y="576"/>
      <point x="462" y="447" type="curve"/>
      <point x="450" y="444"/>
      <point x="433" y="441"/>
      <point x="420" y="441" type="curve" smooth="yes"/>
      <point x="359" y="441"/>
      <point x="297" y="448"/>
      <point x="238" y="464" type="curve"/>
      <point x="242" y="549"/>
      <point x="347" y="1204"/>
      <point x="395" y="1254" type="curve"/>
    </contour>
    <contour>
      <point x="328" y="0" type="move" name="top"/>
    </contour>
    <contour>
      <point x="590" y="10" type="move" name="ogonek"/>
    </contour>
  </outline>
</glyph>
<glyph name="B" format="1">
  <advance width="576"/>
  <unicode hex="0042"/>
  <outline>
    <contour>
      <point x="185" y="1376"/>
      <point x="185" y="1421"/>
      <point x="214" y="1421" type="curve" smooth="yes"/>
      <point x="296" y="1421"/>
      <point x="361" y="1321"/>
      <point x="361" y="1246" type="curve" smooth="yes"/>
      <point x="361" y="1173" type="line"/>
      <point x="330" y="1095"/>
      <point x="286" y="909"/>
      <point x="193" y="888" type="curve"/>
      <point x="192" y="1044"/>
      <point x="185" y="1201"/>
      <point x="185" y="1357" type="curve" smooth="yes"/>
    </contour>
    <contour>
      <point x="265" y="769"/>
      <point x="421" y="717"/>
      <point x="421" y="369" type="curve" smooth="yes"/>
      <point x="421" y="232"/>
      <point x="343" y="112"/>
      <point x="202" y="90" type="curve"/>
      <point x="202" y="316"/>
      <point x="200" y="543"/>
      <point x="192" y="769" type="curve"/>
      <point x="265" y="769" type="line"/>
    </contour>
    <contour>
      <point x="438" y="-17"/>
      <point x="527" y="282"/>
      <point x="527" y="374" type="curve" smooth="yes"/>
      <point x="527" y="537"/>
      <point x="477" y="737"/>
      <point x="295" y="859" type="curve"/>
      <point x="384" y="924"/>
      <point x="461" y="1075"/>
      <point x="461" y="1201" type="curve" smooth="yes"/>
      <point x="461" y="1392"/>
      <point x="351" y="1537"/>
      <point x="151" y="1537" type="curve" smooth="yes"/>
      <point x="77" y="1537"/>
      <point x="74" y="1440"/>
      <point x="74" y="1382" type="curve" smooth="yes"/>
      <point x="74" y="1370" type="line" smooth="yes"/>
      <point x="74" y="1093"/>
      <point x="88" y="815"/>
      <point x="88" y="538" type="curve" smooth="yes"/>
      <point x="88" y="370"/>
      <point x="78" y="202"/>
      <point x="78" y="34" type="curve" smooth="yes"/>
      <point x="78" y="-15"/>
      <point x="137" y="-17"/>
      <point x="174" y="-17" type="curve" smooth="yes"/>
      <point x="182" y="-17" type="line" smooth="yes"/>
    </contour>
  </outline>
</glyph>
<glyph name="C" format="1">
  <advance width="649"/>
  <unicode hex="0043"/>
  <outline>
    <contour>
      <point x="598" y="154"/>
      <point x="576" y="166"/>
      <point x="557" y="166" type="curve" smooth="yes"/>
      <point x="504" y="166"/>
      <point x="460" y="93"/>
      <point x="393" y="93" type="curve" smooth="yes"/>
      <point x="165" y="93"/>
      <point x="158" y="549"/>
      <point x="158" y="807" type="curve" smooth="yes"/>
      <point x="158" y="856" type="line" smooth="yes"/>
      <point x="158" y="904"/>
      <point x="176" y="951"/>
      <point x="176" y="999" type="curve" smooth="yes"/>
      <point x="176" y="1046"/>
      <point x="170" y="1093"/>
      <point x="170" y="1140" type="curve" smooth="yes"/>
      <point x="170" y="1294"/>
      <point x="175" y="1448"/>
      <point x="372" y="1448" type="curve"/>
      <point x="372" y="1443" type="line"/>
      <point x="400" y="1443" type="line"/>
      <point x="400" y="1444" type="line"/>
      <point x="411" y="1426"/>
      <point x="453" y="1419"/>
      <point x="473" y="1419" type="curve" smooth="yes"/>
      <point x="501" y="1419"/>
      <point x="530" y="1434"/>
      <point x="530" y="1465" type="curve" smooth="yes"/>
      <point x="530" y="1531"/>
      <point x="442" y="1565"/>
      <point x="387" y="1565" type="curve" smooth="yes"/>
      <point x="210" y="1565"/>
      <point x="61" y="1463"/>
      <point x="61" y="1290" type="curve" smooth="yes"/>
      <point x="61" y="1270"/>
      <point x="63" y="1248"/>
      <point x="67" y="1226" type="curve"/>
      <point x="55" y="1164"/>
      <point x="53" y="1100"/>
      <point x="53" y="1037" type="curve" smooth="yes"/>
      <point x="53" y="966"/>
      <point x="51" y="882"/>
      <point x="51" y="792" type="curve" smooth="yes"/>
      <point x="51" y="425"/>
      <point x="79" y="-33"/>
      <point x="366" y="-33" type="curve" smooth="yes"/>
      <point x="472" y="-33"/>
      <point x="617" y="4"/>
      <point x="617" y="135" type="curve"/>
    </contour>
    <contour>
      <point x="325" y="0" type="move" name="top"/>
    </contour>
    <contour>
      <point x="325" y="0" type="move" name="bottom"/>
    </contour>
  </outline>
</glyph>
<glyph name="D" format="1">
  <advance width="653"/>
  <unicode hex="0044"/>
  <outline>
    <contour>
      <point x="211" y="310" type="line" smooth="yes"/>
      <point x="211" y="683"/>
      <point x="163" y="1054"/>
      <point x="162" y="1427" type="curve"/>
      <point x="162" y="1429" type="line"/>
      <point x="444" y="1429"/>
      <point x="488" y="1061"/>
      <point x="488" y="854" type="curve" smooth="yes"/>
      <point x="488" y="615"/>
      <point x="428" y="254"/>
      <point x="211" y="114" type="curve"/>
    </contour>
    <contour>
      <point x="68" y="14"/>
      <point x="126" y="-5"/>
      <point x="168" y="-5" type="curve" smooth="yes"/>
      <point x="419" y="-5"/>
      <point x="593" y="503"/>
      <point x="593" y="711" type="curve" smooth="yes"/>
      <point x="593" y="733"/>
      <point x="582" y="754"/>
      <point x="593" y="773" type="curve"/>
      <point x="593" y="868" type="line" smooth="yes"/>
      <point x="593" y="1023"/>
      <point x="587" y="1552"/>
      <point x="224" y="1552" type="curve" smooth="yes"/>
      <point x="193" y="1552" type="line" smooth="yes"/>
      <point x="135" y="1552"/>
      <point x="36" y="1548"/>
      <point x="36" y="1481" type="curve" smooth="yes"/>
      <point x="36" y="1400"/>
      <point x="81" y="1308"/>
      <point x="81" y="1206" type="curve" smooth="yes"/>
      <point x="81" y="1131"/>
      <point x="75" y="1055"/>
      <point x="75" y="982" type="curve" smooth="yes"/>
      <point x="75" y="758"/>
      <point x="113" y="533"/>
      <point x="113" y="306" type="curve" smooth="yes"/>
      <point x="113" y="244"/>
      <point x="113" y="112"/>
      <point x="68" y="65" type="curve"/>
    </contour>
    <contour>
      <point x="327" y="0" type="move" name="top"/>
    </contour>
    <contour>
      <point x="327" y="0" type="move" name="center"/>
    </contour>
  </outline>
</glyph>
<glyph name="E" format="1">
  <advance width="413"/>
  <unicode hex="0045"/>
  <outline>
    <contour>
      <point x="134" y="1551" type="line"/>
      <point x="366" y="1551" type="line"/>
      <point x="366" y="1456" type="line"/>
      <point x="134" y="1456" type="line"/>
    </contour>
    <contour>
      <point x="134" y="95" type="line"/>
      <point x="377" y="95" type="line"/>
      <point x="377" y="0" type="line"/>
      <point x="134" y="0" type="line"/>
    </contour>
    <contour>
      <point x="61" y="1552" type="line"/>
      <point x="161" y="1552" type="line"/>
      <point x="161" y="0" type="line"/>
      <point x="61" y="0" type="line"/>
    </contour>
    <contour>
      <point x="134" y="851" type="line"/>
      <point x="337" y="851" type="line"/>
      <point x="337" y="756" type="line"/>
      <point x="134" y="756" type="line"/>
    </contour>
    <contour>
      <point x="198" y="0" type="move" name="top"/>
    </contour>
    <contour>
      <point x="198" y="0" type="move" name="bottom"/>
    </contour>
    <contour>
      <point x="380" y="10" type="move" name="ogonek"/>
    </contour>
  </outline>
</glyph>
<glyph name="F" format="1">
  <advance width="391"/>
  <unicode hex="0046"/>
  <outline>
    <contour>
      <point x="229" y="64"/>
      <point x="228" y="72"/>
      <point x="225" y="81" type="curve"/>
      <point x="226" y="85"/>
      <point x="230" y="90"/>
      <point x="230" y="94" type="curve" smooth="yes"/>
      <point x="230" y="317"/>
      <point x="191" y="538"/>
      <point x="191" y="761" type="curve"/>
      <point x="236" y="764"/>
      <point x="361" y="762"/>
      <point x="361" y="828" type="curve" smooth="yes"/>
      <point x="361" y="858"/>
      <point x="337" y="891"/>
      <point x="305" y="891" type="curve" smooth="yes"/>
      <point x="266" y="891"/>
      <point x="229" y="876"/>
      <point x="191" y="869" type="curve"/>
      <point x="189" y="1053"/>
      <point x="160" y="1235"/>
      <point x="160" y="1419" type="curve" smooth="yes"/>
      <point x="160" y="1438"/>
      <point x="189" y="1442"/>
      <point x="217" y="1442" type="curve" smooth="yes"/>
      <point x="238" y="1442"/>
      <point x="258" y="1440"/>
      <point x="267" y="1440" type="curve" smooth="yes"/>
      <point x="294" y="1440"/>
      <point x="324" y="1453"/>
      <point x="324" y="1484" type="curve" smooth="yes"/>
      <point x="324" y="1544"/>
      <point x="289" y="1554"/>
      <point x="237" y="1554" type="curve" smooth="yes"/>
      <point x="154" y="1554"/>
      <point x="39" y="1550"/>
      <point x="39" y="1440" type="curve"/>
      <point x="71" y="1390"/>
      <point x="101" y="283"/>
      <point x="101" y="129" type="curve" smooth="yes"/>
      <point x="101" y="90"/>
      <point x="105" y="-2"/>
      <point x="160" y="-2" type="curve" smooth="yes"/>
      <point x="202" y="-2"/>
      <point x="229" y="21"/>
      <point x="229" y="56" type="curve" smooth="yes"/>
    </contour>
  </outline>
</glyph>
<glyph name="H" format="1">
  <advance width="570"/>
  <unicode hex="0048"/>
  <outline>
    <contour>
      <point x="61" y="1552" type="line"/>
      <point x="161" y="1552" type="line"/>
      <point x="161" y="0" type="line"/>
      <point x="61" y="0" type="line"/>
    </contour>
    <contour>
      <point x="409" y="1552" type="line"/>
      <point x="509" y="1552" type="line"/>
      <point x="509" y="0" type="line"/>
      <point x="409" y="0" type="line"/>
    </contour>
    <contour>
      <point x="134" y="811" type="line"/>
      <point x="435" y="811" type="line"/>
      <point x="435" y="716" type="line"/>
      <point x="134" y="716" type="line"/>
    </contour>
    <contour>
      <point x="282" y="0" type="move" name="top"/>
    </contour>
    <contour>
      <point x="282" y="0" type="move" name="center"/>
    </contour>
  </outline>
</glyph>
<glyph name="I" format="1">
  <advance width="432"/>
  <unicode hex="0049"/>
  <outline>
    <contour>
      <point x="274" y="3"/>
      <point x="332" y="8"/>
      <point x="352" y="8" type="curve"/>
      <point x="403" y="43" type="line"/>
      <point x="403" y="55" type="line" smooth="yes"/>
      <point x="403" y="113"/>
      <point x="363" y="127"/>
      <point x="318" y="127" type="curve" smooth="yes"/>
      <point x="304" y="127"/>
      <point x="290" y="126"/>
      <point x="276" y="124" type="curve"/>
      <point x="276" y="203" type="line" smooth="yes"/>
      <point x="276" y="603"/>
      <point x="226" y="1001"/>
      <point x="226" y="1401" type="curve" smooth="yes"/>
      <point x="226" y="1437"/>
      <point x="241" y="1443"/>
      <point x="265" y="1443" type="curve" smooth="yes"/>
      <point x="275" y="1443"/>
      <point x="287" y="1442"/>
      <point x="301" y="1442" type="curve" smooth="yes"/>
      <point x="331" y="1442"/>
      <point x="349" y="1470"/>
      <point x="349" y="1497" type="curve" smooth="yes"/>
      <point x="349" y="1529"/>
      <point x="320" y="1553"/>
      <point x="289" y="1553" type="curve" smooth="yes"/>
      <point x="237" y="1553"/>
      <point x="36" y="1540"/>
      <point x="36" y="1468" type="curve" smooth="yes"/>
      <point x="36" y="1430"/>
      <point x="57" y="1419"/>
      <point x="84" y="1419" type="curve" smooth="yes"/>
      <point x="99" y="1419"/>
      <point x="117" y="1423"/>
      <point x="132" y="1428" type="curve"/>
      <point x="136" y="1390"/>
      <point x="137" y="1352"/>
      <point x="137" y="1314" type="curve" smooth="yes"/>
      <point x="137" y="1244"/>
      <point x="133" y="1175"/>
      <point x="133" y="1105" type="curve" smooth="yes"/>
      <point x="133" y="789"/>
      <point x="171" y="474"/>
      <point x="171" y="158" type="curve" smooth="yes"/>
      <point x="171" y="118"/>
      <point x="160" y="110"/>
      <point x="141" y="110" type="curve" smooth="yes"/>
      <point x="129" y="110"/>
      <point x="115" y="113"/>
      <point x="98" y="113" type="curve" smooth="yes"/>
      <point x="66" y="113"/>
      <point x="36" y="101"/>
      <point x="36" y="64" type="curve" smooth="yes"/>
      <point x="36" y="13"/>
      <point x="127" y="3"/>
      <point x="213" y="3" type="curve" smooth="yes"/>
    </contour>
    <contour>
      <point x="216" y="0" type="move" name="top"/>
    </contour>
    <contour>
      <point x="389" y="10" type="move" name="ogonek"/>
    </contour>
  </outline>
</glyph>
<glyph name="J" format="1">
  <advance width="419"/>
  <unicode hex="004A"/>
  <outline>
    <contour>
      <point x="105" y="1429"/>
      <point x="135" y="1439"/>
      <point x="164" y="1445" type="curve"/>
      <point x="212" y="1155"/>
      <point x="218" y="836"/>
      <point x="218" y="525" type="curve" smooth="yes"/>
      <point x="218" y="429"/>
      <point x="217" y="334"/>
      <point x="217" y="241" type="curve" smooth="yes"/>
      <point x="217" y="102"/>
      <point x="163" y="-12"/>
      <point x="135" y="-48" type="curve"/>
      <point x="105" y="-61"/>
      <point x="55" y="-94"/>
      <point x="55" y="-131" type="curve" smooth="yes"/>
      <point x="55" y="-175"/>
      <point x="89" y="-194"/>
      <point x="129" y="-194" type="curve"/>
      <point x="264.1" y="-147"/>
      <point x="327" y="0.463288"/>
      <point x="327" y="152" type="curve" smooth="yes"/>
      <point x="327" y="207"/>
      <point x="328" y="260"/>
      <point x="328" y="315" type="curve" smooth="yes"/>
      <point x="328" y="581"/>
      <point x="291" y="846"/>
      <point x="291" y="1112" type="curve" smooth="yes"/>
      <point x="291" y="1218"/>
      <point x="267" y="1323"/>
      <point x="267" y="1429" type="curve" smooth="yes"/>
      <point x="267" y="1445" type="line"/>
      <point x="295" y="1445" type="line" smooth="yes"/>
      <point x="297" y="1445"/>
      <point x="299" y="1444"/>
      <point x="301" y="1444" type="curve" smooth="yes"/>
      <point x="336" y="1444"/>
      <point x="386" y="1453"/>
      <point x="386" y="1497" type="curve" smooth="yes"/>
      <point x="386" y="1548"/>
      <point x="336" y="1553"/>
      <point x="294" y="1553" type="curve" smooth="yes"/>
      <point x="268" y="1553" type="line" smooth="yes"/>
      <point x="219" y="1553"/>
      <point x="23" y="1553"/>
      <point x="23" y="1481" type="curve" smooth="yes"/>
      <point x="23" y="1453"/>
      <point x="47" y="1429"/>
      <point x="75" y="1429" type="curve" smooth="yes"/>
    </contour>
    <contour>
      <point x="210" y="0" type="move" name="top"/>
    </contour>
  </outline>
</glyph>
<glyph name="L" format="1">
  <advance width="430"/>
  <unicode hex="004C"/>
  <outline>
    <contour>
      <point x="201" y="115" type="line"/>
      <point x="201" y="167" type="line" smooth="yes"/>
      <point x="201" y="345"/>
      <point x="201" y="523"/>
      <point x="193" y="701" type="curve"/>
      <point x="193" y="710" type="line"/>
      <point x="196" y="732"/>
      <point x="191" y="753"/>
      <point x="191" y="775" type="curve" smooth="yes"/>
      <point x="191" y="1019"/>
      <point x="170" y="1266"/>
      <point x="170" y="1512" type="curve" smooth="yes"/>
      <point x="170" y="1546"/>
      <point x="141" y="1571"/>
      <point x="108" y="1571" type="curve" smooth="yes"/>
      <point x="83" y="1571"/>
      <point x="58" y="1556"/>
      <point x="58" y="1529" type="curve" smooth="yes"/>
      <point x="58" y="1063"/>
      <point x="99" y="598"/>
      <point x="99" y="132" type="curve" smooth="yes"/>
      <point x="99" y="101"/>
      <point x="86" y="73"/>
      <point x="86" y="42" type="curve" smooth="yes"/>
      <point x="86" y="7"/>
      <point x="121" y="-23"/>
      <point x="155" y="-23" type="curve" smooth="yes"/>
      <point x="176" y="-23"/>
      <point x="199" y="-15"/>
      <point x="213" y="2" type="curve"/>
      <point x="235" y="2"/>
      <point x="257" y="-1"/>
      <point x="279" y="-1" type="curve" smooth="yes"/>
      <point x="292" y="-1"/>
      <point x="305" y="0"/>
      <point x="318" y="3" type="curve"/>
      <point x="327" y="1"/>
      <point x="339" y="-4"/>
      <point x="349" y="-4" type="curve" smooth="yes"/>
      <point x="380" y="-4"/>
      <point x="401" y="25"/>
      <point x="401" y="54" type="curve" smooth="yes"/>
      <point x="401" y="83"/>
      <point x="379" y="100"/>
      <point x="357" y="115" type="curve"/>
    </contour>
    <contour>
      <point x="215" y="0" type="move" name="top"/>
    </contour>
    <contour>
      <point x="215" y="0" type="move" name="bottom"/>
    </contour>
  </outline>
</glyph>
<glyph name="M" format="1">
  <advance width="824"/>
  <unicode hex="004D"/>
  <outline>
    <contour>
      <point x="598" y="1517" type="line"/>
      <point x="579" y="1188"/>
      <point x="488" y="850"/>
      <point x="420" y="528" type="curve"/>
      <point x="389" y="674"/>
      <point x="245" y="1546"/>
      <point x="136" y="1554" type="curve"/>
      <point x="79" y="1522" type="line"/>
      <point x="77" y="1434"/>
      <point x="76" y="1346"/>
      <point x="76" y="1257" type="curve" smooth="yes"/>
      <point x="76" y="993"/>
      <point x="83" y="729"/>
      <point x="83" y="464" type="curve" smooth="yes"/>
      <point x="83" y="353"/>
      <point x="73" y="243"/>
      <point x="73" y="132" type="curve" smooth="yes"/>
      <point x="73" y="68"/>
      <point x="85" y="6"/>
      <point x="163" y="6" type="curve"/>
      <point x="183" y="27"/>
      <point x="194" y="54"/>
      <point x="194" y="83" type="curve" smooth="yes"/>
      <point x="194" y="364"/>
      <point x="177" y="644"/>
      <point x="177" y="925" type="curve" smooth="yes"/>
      <point x="177" y="1007"/>
      <point x="179" y="1090"/>
      <point x="181" y="1172" type="curve"/>
      <point x="235" y="931"/>
      <point x="332" y="660"/>
      <point x="332" y="413" type="curve" smooth="yes"/>
      <point x="332" y="364"/>
      <point x="332" y="222"/>
      <point x="405" y="222" type="curve" smooth="yes"/>
      <point x="483" y="222"/>
      <point x="485" y="347"/>
      <point x="496" y="401" type="curve"/>
      <point x="496" y="414" type="line"/>
      <point x="522" y="605"/>
      <point x="587" y="801"/>
      <point x="622" y="993" type="curve"/>
      <point x="622" y="889" type="line" smooth="yes"/>
      <point x="622" y="602"/>
      <point x="630" y="314"/>
      <point x="630" y="27" type="curve" smooth="yes"/>
      <point x="630" y="-30"/>
      <point x="651" y="-54"/>
      <point x="675" y="-54" type="curve" smooth="yes"/>
      <point x="711" y="-54"/>
      <point x="756" y="-2"/>
      <point x="756" y="67" type="curve" smooth="yes"/>
      <point x="756" y="557"/>
      <point x="719" y="1045"/>
      <point x="719" y="1535" type="curve" smooth="yes"/>
      <point x="719" y="1560"/>
      <point x="697" y="1587"/>
      <point x="671" y="1587" type="curve" smooth="yes"/>
      <point x="636" y="1587"/>
      <point x="604" y="1565"/>
      <point x="598" y="1529" type="curve"/>
    </contour>
  </outline>
</glyph>
<glyph name="N" format="1">
  <advance width="590"/>
  <unicode hex="004E"/>
  <outline>
    <contour>
      <point x="56" y="1552" type="line"/>
      <point x="156" y="1552" type="line"/>
      <point x="156" y="0" type="line"/>
      <point x="56" y="0" type="line"/>
    </contour>
    <contour>
      <point x="434" y="1552" type="line"/>
      <point x="534" y="1552" type="line"/>
      <point x="534" y="0" type="line"/>
      <point x="434" y="0" type="line"/>
    </contour>
    <contour>
      <point x="156" y="1552" type="line"/>
      <point x="434" y="385" type="line"/>
      <point x="434" y="0" type="line"/>
      <point x="156" y="1167" type="line"/>
    </contour>
    <contour>
      <point x="255" y="0" type="move" name="top"/>
    </contour>
    <contour>
      <point x="255" y="0" type="move" name="bottom"/>
    </contour>
  </outline>
</glyph>
<glyph name="O" format="1">
  <advance width="633"/>
  <unicode hex="004F"/>
  <outline>
    <contour>
      <point x="317" y="1574" type="curve" smooth="yes"/>
      <point x="93" y="1574"/>
      <point x="54" y="1372"/>
      <point x="54" y="777" type="curve" smooth="yes"/>
      <point x="54" y="183"/>
      <point x="93" y="-20"/>
      <point x="317" y="-20" type="curve" smooth="yes"/>
      <point x="541" y="-20"/>
      <point x="579" y="183"/>
      <point x="579" y="777" type="curve" smooth="yes"/>
      <point x="579" y="1372"/>
      <point x="541" y="1574"/>
    </contour>
    <contour>
      <point x="316" y="1481" type="curve" smooth="yes"/>
      <point x="456" y="1481"/>
      <point x="479" y="1303"/>
      <point x="479" y="776" type="curve" smooth="yes"/>
      <point x="479" y="241"/>
      <point x="456" y="72"/>
      <point x="316" y="72" type="curve" smooth="yes"/>
      <point x="178" y="72"/>
      <point x="154" y="241"/>
      <point x="154" y="776" type="curve" smooth="yes"/>
      <point x="154" y="1303"/>
      <point x="178" y="1481"/>
    </contour>
    <contour>
      <point x="329" y="0" type="move" name="top"/>
    </contour>
  </outline>
</glyph>
<glyph name="P" format="1">
  <advance width="495"/>
  <unicode hex="0050"/>
  <outline>
    <contour>
      <point x="84" y="1327"/>
      <point x="96" y="1059"/>
      <point x="96" y="789" type="curve" smooth="yes"/>
      <point x="96" y="526"/>
      <point x="86" y="260"/>
      <point x="86" y="58" type="curve" smooth="yes"/>
      <point x="86" y="29"/>
      <point x="99" y="-11"/>
      <point x="135" y="-11" type="curve" smooth="yes"/>
      <point x="186" y="-11"/>
      <point x="203" y="30"/>
      <point x="203" y="74" type="curve" smooth="yes"/>
      <point x="203" y="287"/>
      <point x="188" y="499"/>
      <point x="187" y="712" type="curve"/>
      <point x="361" y="805"/>
      <point x="443" y="983"/>
      <point x="443" y="1175" type="curve" smooth="yes"/>
      <point x="443" y="1365"/>
      <point x="333" y="1566"/>
      <point x="122" y="1566" type="curve" smooth="yes"/>
      <point x="90" y="1566"/>
      <point x="61" y="1546"/>
      <point x="43" y="1520" type="curve"/>
    </contour>
    <contour>
      <point x="338" y="1158" type="line" smooth="yes"/>
      <point x="338" y="1014"/>
      <point x="286" y="909"/>
      <point x="182" y="811" type="curve"/>
      <point x="181" y="1027"/>
      <point x="159" y="1243"/>
      <point x="158" y="1459" type="curve"/>
      <point x="295" y="1362"/>
      <point x="338" y="1334"/>
      <point x="338" y="1159" type="curve" smooth="yes"/>
    </contour>
  </outline>
</glyph>
<glyph name="Q" format="1">
  <advance width="676"/>
  <unicode hex="0051"/>
  <outline>
    <contour>
      <point x="157" y="775"/>
      <point x="166" y="1474"/>
      <point x="273" y="1474" type="curve" smooth="yes"/>
      <point x="496" y="1474"/>
      <point x="481" y="1004"/>
      <point x="481" y="793" type="curve" smooth="yes"/>
      <point x="481" y="327" type="line" smooth="yes"/>
      <point x="481" y="252"/>
      <point x="464" y="162"/>
      <point x="404" y="107" type="curve"/>
      <point x="404" y="108" type="line"/>
      <point x="384" y="108"/>
      <point x="358" y="99"/>
      <point x="348" y="82" type="curve"/>
      <point x="348" y="80" type="line"/>
      <point x="171" y="95"/>
      <point x="157" y="522"/>
      <point x="157" y="653" type="curve" smooth="yes"/>
    </contour>
    <contour>
      <point x="593" y="659" type="line" smooth="yes"/>
      <point x="593" y="979"/>
      <point x="634" y="1576"/>
      <point x="290" y="1576" type="curve" smooth="yes"/>
      <point x="86" y="1576"/>
      <point x="64" y="1265"/>
      <point x="64" y="1052" type="curve" smooth="yes"/>
      <point x="64" y="994"/>
      <point x="66" y="943"/>
      <point x="66" y="908" type="curve" smooth="yes"/>
      <point x="66" y="797"/>
      <point x="56" y="685"/>
      <point x="56" y="574" type="curve" smooth="yes"/>
      <point x="56" y="359"/>
      <point x="82" y="149"/>
      <point x="276" y="20" type="curve"/>
      <point x="360" y="20" type="line"/>
      <point x="379" y="-69"/>
      <point x="376" y="-207"/>
      <point x="474" y="-252" type="curve"/>
      <point x="474" y="-253" type="line"/>
      <point x="500" y="-268"/>
      <point x="528" y="-282"/>
      <point x="559" y="-282" type="curve" smooth="yes"/>
      <point x="600" y="-282"/>
      <point x="650" y="-270"/>
      <point x="650" y="-219" type="curve" smooth="yes"/>
      <point x="650" y="-171"/>
      <point x="598" y="-169"/>
      <point x="562" y="-169" type="curve" smooth="yes"/>
      <point x="554" y="-169" type="line" smooth="yes"/>
      <point x="498" y="-169"/>
      <point x="477" y="27"/>
      <point x="467" y="70" type="curve"/>
      <point x="586" y="236"/>
      <point x="593" y="369"/>
      <point x="593" y="567" type="curve" smooth="yes"/>
    </contour>
  </outline>
</glyph>
<glyph name="R" format="1">
  <advance width="548"/>
  <unicode hex="0052"/>
  <outline>
    <contour>
      <point x="187" y="859" type="line"/>
      <point x="253" y="598"/>
      <point x="374" y="299"/>
      <point x="390" y="41" type="curve"/>
      <point x="390" y="34" type="line"/>
      <point x="407" y="8"/>
      <point x="430" y="-21"/>
      <point x="464" y="-21" type="curve" smooth="yes"/>
      <point x="515" y="-21"/>
      <point x="514" y="35"/>
      <point x="514" y="71" type="curve" smooth="yes"/>
      <point x="514" y="76" type="line"/>
      <point x="443" y="299"/>
      <point x="306" y="648"/>
      <point x="303" y="876" type="curve"/>
      <point x="346" y="985"/>
      <point x="398" y="1097"/>
      <point x="398" y="1217" type="curve" smooth="yes"/>
      <point x="398" y="1370"/>
      <point x="317" y="1557"/>
      <point x="140" y="1557" type="curve" smooth="yes"/>
      <point x="91" y="1557"/>
      <point x="86" y="1541"/>
      <point x="86" y="1513" type="curve" smooth="yes"/>
      <point x="86" y="1261" type="line" smooth="yes"/>
      <point x="86" y="861"/>
      <point x="78" y="460"/>
      <point x="78" y="60" type="curve" smooth="yes"/>
      <point x="78" y="44" type="line" smooth="yes"/>
      <point x="78" y="12"/>
      <point x="99" y="-13"/>
      <point x="130" y="-13" type="curve" smooth="yes"/>
      <point x="181" y="-13"/>
      <point x="187" y="17"/>
      <point x="187" y="52" type="curve" smooth="yes"/>
    </contour>
    <contour>
      <point x="261" y="1449"/>
      <point x="294" y="1265"/>
      <point x="283" y="1207" type="curve" smooth="yes"/>
      <point x="251" y="1030" type="line"/>
      <point x="230" y="1002"/>
      <point x="207" y="975"/>
      <point x="182" y="951" type="curve"/>
      <point x="180" y="982"/>
      <point x="180" y="1014"/>
      <point x="180" y="1045" type="curve" smooth="yes"/>
      <point x="180" y="1184"/>
      <point x="190" y="1324"/>
      <point x="191" y="1463" type="curve"/>
    </contour>
    <contour>
      <point x="274" y="0" type="move" name="top"/>
    </contour>
    <contour>
      <point x="274" y="0" type="move" name="bottom"/>
    </contour>
  </outline>
</glyph>
<glyph name="S" format="1">
  <advance width="523"/>
  <unicode hex="0053"/>
  <outline>
    <contour>
      <point x="477" y="751"/>
      <point x="180" y="939"/>
      <point x="180" y="1290" type="curve" smooth="yes"/>
      <point x="180" y="1360"/>
      <point x="215" y="1468"/>
      <point x="297" y="1476" type="curve"/>
      <point x="320" y="1460"/>
      <point x="349" y="1456"/>
      <point x="377" y="1456" type="curve"/>
      <point x="412" y="1500" type="line"/>
      <point x="393" y="1545"/>
      <point x="339" y="1574"/>
      <point x="291" y="1574" type="curve" smooth="yes"/>
      <point x="137" y="1574"/>
      <point x="63" y="1408"/>
      <point x="63" y="1275" type="curve" smooth="yes"/>
      <point x="63" y="940"/>
      <point x="356" y="690"/>
      <point x="356" y="355" type="curve" smooth="yes"/>
      <point x="356" y="268"/>
      <point x="310" y="48"/>
      <point x="197" y="48" type="curve" smooth="yes"/>
      <point x="165" y="48"/>
      <point x="128" y="79"/>
      <point x="84" y="79" type="curve" smooth="yes"/>
      <point x="52" y="79"/>
      <point x="38" y="52"/>
      <point x="38" y="24" type="curve" smooth="yes"/>
      <point x="38" y="-31"/>
      <point x="157" y="-45"/>
      <point x="197" y="-45" type="curve" smooth="yes"/>
      <point x="389" y="-45"/>
      <point x="477" y="179"/>
      <point x="477" y="342" type="curve" smooth="yes"/>
    </contour>
    <contour>
      <point x="262" y="0" type="move" name="top"/>
    </contour>
    <contour>
      <point x="262" y="0" type="move" name="bottom"/>
    </contour>
  </outline>
</glyph>
<glyph name="U" format="1">
  <advance width="699"/>
  <unicode hex="0055"/>
  <outline>
    <contour>
      <point x="39" y="1462"/>
      <point x="44" y="1446"/>
      <point x="54" y="1435" type="curve"/>
      <point x="54" y="1342"/>
      <point x="52" y="1232"/>
      <point x="52" y="1115" type="curve" smooth="yes"/>
      <point x="52" y="607"/>
      <point x="84" y="-37"/>
      <point x="423" y="-37" type="curve" smooth="yes"/>
      <point x="605" y="-37"/>
      <point x="625" y="137"/>
      <point x="625" y="288" type="curve" smooth="yes"/>
      <point x="625" y="663"/>
      <point x="588" y="989"/>
      <point x="588" y="1338" type="curve" smooth="yes"/>
      <point x="588" y="1380"/>
      <point x="602" y="1421"/>
      <point x="603" y="1463" type="curve"/>
      <point x="603" y="1497" type="line"/>
      <point x="553" y="1545" type="line"/>
      <point x="521" y="1545"/>
      <point x="476" y="1525"/>
      <point x="476" y="1489" type="curve" smooth="yes"/>
      <point x="476" y="1372"/>
      <point x="491" y="1255"/>
      <point x="491" y="1138" type="curve" smooth="yes"/>
      <point x="491" y="1098"/>
      <point x="495" y="1059"/>
      <point x="495" y="1019" type="curve" smooth="yes"/>
      <point x="495" y="1005" type="line" smooth="yes"/>
      <point x="495" y="876"/>
      <point x="521" y="748"/>
      <point x="521" y="619" type="curve" smooth="yes"/>
      <point x="521" y="219" type="line" smooth="yes"/>
      <point x="521" y="160"/>
      <point x="520" y="35"/>
      <point x="436" y="35" type="curve" smooth="yes"/>
      <point x="295" y="35"/>
      <point x="220" y="335"/>
      <point x="220" y="444" type="curve" smooth="yes"/>
      <point x="220" y="492"/>
      <point x="209" y="641"/>
      <point x="191" y="682" type="curve"/>
      <point x="191" y="919"/>
      <point x="172" y="1157"/>
      <point x="172" y="1394" type="curve" smooth="yes"/>
      <point x="172" y="1443"/>
      <point x="166" y="1540"/>
      <point x="98" y="1540" type="curve" smooth="yes"/>
      <point x="65" y="1540"/>
      <point x="39" y="1509"/>
      <point x="39" y="1477" type="curve" smooth="yes"/>
    </contour>
    <contour>
      <point x="350" y="0" type="move" name="top"/>
    </contour>
    <contour>
      <point x="629" y="10" type="move" name="ogonek"/>
    </contour>
  </outline>
</glyph>
<glyph name="V" format="1">
  <advance width="620"/>
  <unicode hex="0056"/>
  <outline>
    <contour>
      <point x="39" y="1549"/>
      <point x="62" y="1563"/>
      <point x="88" y="1563" type="curve" smooth="yes"/>
      <point x="160" y="1563"/>
      <point x="303" y="490"/>
      <point x="334" y="339" type="curve"/>
      <point x="379" y="733"/>
      <point x="459" y="1130"/>
      <point x="459" y="1528" type="curve"/>
      <point x="478" y="1552"/>
      <point x="503" y="1569"/>
      <point x="534" y="1569" type="curve"/>
      <point x="577" y="1546" type="line"/>
      <point x="556" y="1356"/>
      <point x="413" y="-34"/>
      <point x="350" y="-34" type="curve" smooth="yes"/>
      <point x="332" y="-34"/>
      <point x="314" y="-26"/>
      <point x="302" y="-12" type="curve"/>
      <point x="212" y="359"/>
      <point x="105" y="1167"/>
      <point x="31" y="1523" type="curve"/>
    </contour>
  </outline>
</glyph>
<glyph name="W" format="1">
  <advance width="901"/>
  <unicode hex="0057"/>
  <outline>
    <contour>
      <point x="679" y="-28"/>
      <point x="697" y="5"/>
      <point x="697" y="43" type="curve" smooth="yes"/>
      <point x="697" y="523"/>
      <point x="852" y="1011"/>
      <point x="852" y="1489" type="curve"/>
      <point x="864" y="1501"/>
      <point x="873" y="1519"/>
      <point x="873" y="1536" type="curve" smooth="yes"/>
      <point x="873" y="1569"/>
      <point x="840" y="1592"/>
      <point x="810" y="1592" type="curve" smooth="yes"/>
      <point x="747" y="1592"/>
      <point x="736" y="1561"/>
      <point x="736" y="1506" type="curve" smooth="yes"/>
      <point x="736" y="1155"/>
      <point x="668" y="809"/>
      <point x="633" y="461" type="curve"/>
      <point x="587" y="740"/>
      <point x="485" y="1011"/>
      <point x="484" y="1297" type="curve"/>
      <point x="484" y="1328" type="line" smooth="yes"/>
      <point x="484" y="1374"/>
      <point x="450" y="1388"/>
      <point x="411" y="1388" type="curve" smooth="yes"/>
      <point x="382" y="1388"/>
      <point x="357" y="1353"/>
      <point x="357" y="1325" type="curve" smooth="yes"/>
      <point x="357" y="1286" type="line" smooth="yes"/>
      <point x="357" y="1115"/>
      <point x="301" y="694"/>
      <point x="279" y="503" type="curve"/>
      <point x="258" y="645"/>
      <point x="207" y="1540"/>
      <point x="97" y="1540" type="curve" smooth="yes"/>
      <point x="66" y="1540"/>
      <point x="40" y="1517"/>
      <point x="26" y="1491" type="curve"/>
      <point x="58" y="1413"/>
      <point x="218" y="250"/>
      <point x="218" y="127" type="curve" smooth="yes"/>
      <point x="218" y="76"/>
      <point x="221" y="-29"/>
      <point x="293" y="-29" type="curve" smooth="yes"/>
      <point x="322" y="-29"/>
      <point x="352" y="-2"/>
      <point x="352" y="28" type="curve" smooth="yes"/>
      <point x="352" y="318"/>
      <point x="390" y="606"/>
      <point x="430" y="893" type="curve"/>
      <point x="449" y="788"/>
      <point x="547" y="-28"/>
      <point x="636" y="-28" type="curve" smooth="yes"/>
    </contour>
    <contour>
      <point x="451" y="0" type="move" name="top"/>
    </contour>
  </outline>
</glyph>
<glyph name="X" format="1">
  <advance width="520"/>
  <unicode hex="0058"/>
  <outline>
    <contour>
      <point x="339" y="1550"/>
      <point x="296" y="1158"/>
      <point x="276" y="1087" type="curve"/>
      <point x="258" y="1173"/>
      <point x="213" y="1520"/>
      <point x="135" y="1520" type="curve" smooth="yes"/>
      <point x="109" y="1520"/>
      <point x="89" y="1500"/>
      <point x="79" y="1478" type="curve"/>
      <point x="79" y="1473" type="line" smooth="yes"/>
      <point x="79" y="1262"/>
      <point x="210" y="1045"/>
      <point x="210" y="819" type="curve" smooth="yes"/>
      <point x="210" y="606"/>
      <point x="38" y="221"/>
      <point x="38" y="33" type="curve" smooth="yes"/>
      <point x="38" y="5"/>
      <point x="68" y="-13"/>
      <point x="93" y="-13" type="curve" smooth="yes"/>
      <point x="197" y="-13"/>
      <point x="243" y="438"/>
      <point x="267" y="538" type="curve"/>
      <point x="302" y="385"/>
      <point x="350" y="231"/>
      <point x="350" y="73" type="curve" smooth="yes"/>
      <point x="350" y="38"/>
      <point x="379" y="24"/>
      <point x="410" y="24" type="curve" smooth="yes"/>
      <point x="440" y="24"/>
      <point x="466" y="50"/>
      <point x="466" y="80" type="curve" smooth="yes"/>
      <point x="466" y="134"/>
      <point x="436" y="182"/>
      <point x="432" y="236" type="curve"/>
      <point x="432" y="248" type="line"/>
      <point x="420" y="309"/>
      <point x="326" y="765"/>
      <point x="326" y="796" type="curve" smooth="yes"/>
      <point x="326" y="929"/>
      <point x="479" y="1399"/>
      <point x="479" y="1505" type="curve" smooth="yes"/>
      <point x="479" y="1536"/>
      <point x="444" y="1550"/>
      <point x="418" y="1550" type="curve" smooth="yes"/>
    </contour>
  </outline>
</glyph>
<glyph name="Y" format="1">
  <advance width="453"/>
  <unicode hex="0059"/>
  <outline>
    <contour>
      <point x="266" y="1539"/>
      <point x="256" y="1088"/>
      <point x="240" y="1006" type="curve"/>
      <point x="215" y="1093"/>
      <point x="150" y="1549"/>
      <point x="77" y="1549" type="curve" smooth="yes"/>
      <point x="56" y="1549"/>
      <point x="25" y="1534"/>
      <point x="25" y="1513" type="curve" smooth="yes"/>
      <point x="25" y="1267"/>
      <point x="183" y="1025"/>
      <point x="183" y="776" type="curve" smooth="yes"/>
      <point x="183" y="656"/>
      <point x="222" y="541"/>
      <point x="222" y="421" type="curve" smooth="yes"/>
      <point x="222" y="289"/>
      <point x="212" y="157"/>
      <point x="212" y="25" type="curve" smooth="yes"/>
      <point x="212" y="-3"/>
      <point x="237" y="-25"/>
      <point x="264" y="-25" type="curve" smooth="yes"/>
      <point x="298" y="-25"/>
      <point x="332" y="-2"/>
      <point x="332" y="35" type="curve" smooth="yes"/>
      <point x="332" y="81" type="line"/>
      <point x="333" y="115"/>
      <point x="325" y="149"/>
      <point x="325" y="183" type="curve" smooth="yes"/>
      <point x="325" y="364"/>
      <point x="314" y="545"/>
      <point x="314" y="726" type="curve" smooth="yes"/>
      <point x="314" y="757" type="line"/>
      <point x="313" y="781"/>
      <point x="320" y="804"/>
      <point x="320" y="828" type="curve" smooth="yes"/>
      <point x="320" y="1062"/>
      <point x="418" y="1287"/>
      <point x="418" y="1517" type="curve" smooth="yes"/>
      <point x="418" y="1539"/>
      <point x="378" y="1539"/>
      <point x="364" y="1539" type="curve" smooth="yes"/>
    </contour>
    <contour>
      <point x="227" y="0" type="move" name="top"/>
    </contour>
  </outline>
</glyph>
<glyph name="Z" format="1">
  <advance width="429"/>
  <unicode hex="005A"/>
  <outline>
    <contour>
      <point x="227" y="93"/>
      <point x="184" y="86"/>
      <point x="161" y="85" type="curve"/>
      <point x="266" y="494"/>
      <point x="388" y="1051"/>
      <point x="388" y="1505" type="curve" smooth="yes"/>
      <point x="388" y="1536"/>
      <point x="364" y="1564"/>
      <point x="332" y="1564" type="curve" smooth="yes"/>
      <point x="268" y="1564"/>
      <point x="203" y="1543"/>
      <point x="139" y="1543" type="curve" smooth="yes"/>
      <point x="119" y="1543"/>
      <point x="100" y="1545"/>
      <point x="81" y="1550" type="curve"/>
      <point x="81" y="1549" type="line"/>
      <point x="53" y="1515" type="line"/>
      <point x="53" y="1506" type="line" smooth="yes"/>
      <point x="53" y="1453"/>
      <point x="107" y="1441"/>
      <point x="164" y="1441" type="curve" smooth="yes"/>
      <point x="209" y="1441"/>
      <point x="256" y="1449"/>
      <point x="281" y="1451" type="curve"/>
      <point x="267" y="1235"/>
      <point x="137" y="197"/>
      <point x="34" y="31" type="curve"/>
      <point x="44" y="5"/>
      <point x="61" y="-19"/>
      <point x="92" y="-19" type="curve" smooth="yes"/>
      <point x="176" y="-19"/>
      <point x="261" y="-11"/>
      <point x="345" y="-11" type="curve"/>
      <point x="377" y="21" type="line"/>
      <point x="377" y="30" type="line" smooth="yes"/>
      <point x="377" y="81"/>
      <point x="324" y="93"/>
      <point x="269" y="93" type="curve" smooth="yes"/>
    </contour>
    <contour>
      <point x="215" y="0" type="move" name="top"/>
    </contour>
  </outline>
</glyph>
<glyph name="backslash" format="1">
  <advance width="511"/>
  <unicode hex="005C"/>
  <outline>
    <contour>
      <point x="452" y="-17"/>
      <point x="477" y="6"/>
      <point x="477" y="31" type="curve" smooth="yes"/>
      <point x="477" y="127"/>
      <point x="210" y="1555"/>
      <point x="91" y="1555" type="curve" smooth="yes"/>
      <point x="63" y="1555"/>
      <point x="36" y="1535"/>
      <point x="36" y="1505" type="curve" smooth="yes"/>
      <point x="36" y="1439"/>
      <point x="64" y="1376"/>
      <point x="78" y="1312" type="curve" smooth="yes"/>
      <point x="115" y="1145"/>
      <point x="309" y="-31"/>
      <point x="431" y="-31" type="curve"/>
      <point x="431" y="-30" type="line"/>
    </contour>
  </outline>
</glyph>
<glyph name="bracketright" format="1">
  <advance width="472"/>
  <unicode hex="005D"/>
  <outline>
    <contour>
      <point x="118" y="-103"/>
      <point x="156" y="-112"/>
      <point x="185" y="-112" type="curve" smooth="yes"/>
      <point x="236" y="-112"/>
      <point x="433" y="-108"/>
      <point x="433" y="-35" type="curve" smooth="yes"/>
      <point x="433" y="148"/>
      <point x="392" y="327"/>
      <point x="392" y="510" type="curve" smooth="yes"/>
      <point x="392" y="835"/>
      <point x="336" y="1156"/>
      <point x="336" y="1481" type="curve" smooth="yes"/>
      <point x="336" y="1569"/>
      <point x="316" y="1578"/>
      <point x="267" y="1578" type="curve" smooth="yes"/>
      <point x="255" y="1578"/>
      <point x="241" y="1577"/>
      <point x="225" y="1577" type="curve" smooth="yes"/>
      <point x="182" y="1577"/>
      <point x="32" y="1573"/>
      <point x="32" y="1511" type="curve" smooth="yes"/>
      <point x="32" y="1471"/>
      <point x="75" y="1465"/>
      <point x="106" y="1465" type="curve" smooth="yes"/>
      <point x="151" y="1465"/>
      <point x="195" y="1475"/>
      <point x="240" y="1476" type="curve"/>
      <point x="240" y="1458" type="line" smooth="yes"/>
      <point x="240" y="986"/>
      <point x="308" y="519"/>
      <point x="321" y="48" type="curve"/>
      <point x="321" y="6" type="line"/>
      <point x="269" y="5"/>
      <point x="118" y="11"/>
      <point x="118" y="-68" type="curve" smooth="yes"/>
    </contour>
  </outline>
</glyph>
<glyph name="asciicircum" format="1">
  <advance width="280"/>
  <unicode hex="005E"/>
  <outline>
    <contour>
      <point x="93" y="1656"/>
      <point x="73" y="1612"/>
      <point x="73" y="1575" type="curve" smooth="yes"/>
      <point x="73" y="1534"/>
      <point x="109" y="1515"/>
      <point x="146" y="1515" type="curve" smooth="yes"/>
      <point x="184" y="1515"/>
      <point x="210" y="1546"/>
      <point x="210" y="1583" type="curve" smooth="yes"/>
      <point x="210" y="1623"/>
      <point x="176" y="1656"/>
      <point x="136" y="1656" type="curve" smooth="yes"/>
    </contour>
  </outline>
</glyph>
<glyph name="underscore" format="1">
  <advance width="844"/>
  <unicode hex="005F"/>
  <outline>
    <contour>
      <point x="850" y="-16"/>
      <point x="835" y="2"/>
      <point x="800" y="2" type="curve" smooth="yes"/>
      <point x="768" y="2"/>
      <point x="735" y="0"/>
      <point x="703" y="0" type="curve" smooth="yes"/>
      <point x="44" y="0" type="line" smooth="yes"/>
      <point x="16" y="0"/>
      <point x="-6" y="-22"/>
      <point x="-6" y="-50" type="curve" smooth="yes"/>
      <point x="-6" y="-71"/>
      <point x="29" y="-94"/>
      <point x="73" y="-94" type="curve" smooth="yes"/>
      <point x="284" y="-94"/>
      <point x="494" y="-84"/>
      <point x="705" y="-84" type="curve" smooth="yes"/>
      <point x="733" y="-82"/>
      <point x="764" y="-82"/>
      <point x="794" y="-82" type="curve" smooth="yes"/>
      <point x="828" y="-82"/>
      <point x="850" y="-57"/>
      <point x="850" y="-36" type="curve" smooth="yes"/>
    </contour>
  </outline>
</glyph>
<glyph name="grave" format="1">
  <advance width="506"/>
  <unicode hex="0060"/>
  <outline>
    <contour>
      <point x="441" y="1599"/>
      <point x="131" y="1752"/>
      <point x="116" y="1752" type="curve" smooth="yes"/>
      <point x="80" y="1752"/>
      <point x="48" y="1699"/>
      <point x="48" y="1672" type="curve" smooth="yes"/>
      <point x="48" y="1645"/>
      <point x="388" y="1543"/>
      <point x="426" y="1543" type="curve" smooth="yes"/>
      <point x="435" y="1543"/>
      <point x="441" y="1549"/>
      <point x="441" y="1557" type="curve" smooth="yes"/>
    </contour>
    <contour>
      <point x="244.5" y="0" type="move" name="_top"/>
    </contour>
  </outline>
</glyph>
<glyph name="b" format="1">
  <advance width="491"/>
  <unicode hex="0062"/>
  <outline>
    <contour>
      <point x="194" y="1068" type="line" smooth="yes"/>
      <point x="194" y="1128"/>
      <point x="199" y="1247"/>
      <point x="218" y="1288" type="curve"/>
      <point x="303" y="1278"/>
      <point x="302" y="1076"/>
      <point x="302" y="1012" type="curve" smooth="yes"/>
      <point x="302" y="939"/>
      <point x="296" y="766"/>
      <point x="194" y="763" type="curve"/>
    </contour>
    <contour>
      <point x="181" y="231"/>
      <point x="188" y="278"/>
      <point x="188" y="333" type="curve" smooth="yes"/>
      <point x="188" y="436"/>
      <point x="190" y="540"/>
      <point x="197" y="643" type="curve"/>
      <point x="312" y="619"/>
      <point x="321" y="400"/>
      <point x="321" y="308" type="curve" smooth="yes"/>
      <point x="321" y="217"/>
      <point x="282" y="107"/>
      <point x="183" y="84" type="curve"/>
      <point x="183" y="176" type="line" smooth="yes"/>
      <point x="183" y="179"/>
      <point x="181" y="183"/>
      <point x="181" y="186" type="curve" smooth="yes"/>
    </contour>
    <contour>
      <point x="431" y="475"/>
      <point x="425" y="620"/>
      <point x="336" y="705" type="curve"/>
      <point x="397" y="791"/>
      <point x="419" y="883"/>
      <point x="419" y="1028" type="curve" smooth="yes"/>
      <point x="419" y="1212"/>
      <point x="345" y="1383"/>
      <point x="150" y="1383" type="curve" smooth="yes"/>
      <point x="92" y="1383"/>
      <point x="83" y="1338"/>
      <point x="83" y="1290" type="curve" smooth="yes"/>
      <point x="83" y="1279" type="line"/>
      <point x="85" y="1244"/>
      <point x="94" y="1208"/>
      <point x="94" y="1173" type="curve" smooth="yes"/>
      <point x="94" y="957"/>
      <point x="85" y="740"/>
      <point x="85" y="524" type="curve" smooth="yes"/>
      <point x="85" y="378"/>
      <point x="65" y="234"/>
      <point x="65" y="88" type="curve" smooth="yes"/>
      <point x="65" y="42"/>
      <point x="67" y="-20"/>
      <point x="129" y="-20" type="curve" smooth="yes"/>
      <point x="349" y="-20"/>
      <point x="431" y="167"/>
      <point x="431" y="360" type="curve" smooth="yes"/>
    </contour>
  </outline>
</glyph>
<glyph name="d" format="1">
  <advance width="610"/>
  <unicode hex="0064"/>
  <outline>
    <contour>
      <point x="93" y="1353"/>
      <point x="55" y="1322"/>
      <point x="55" y="1286" type="curve" smooth="yes"/>
      <point x="55" y="1184"/>
      <point x="79" y="1027"/>
      <point x="79" y="901" type="curve" smooth="yes"/>
      <point x="79" y="686"/>
      <point x="73" y="471"/>
      <point x="73" y="256" type="curve" smooth="yes"/>
      <point x="73" y="190"/>
      <point x="75" y="-12"/>
      <point x="125" y="-12" type="curve" smooth="yes"/>
      <point x="273" y="-12" type="line"/>
      <point x="526" y="119"/>
      <point x="542" y="340"/>
      <point x="542" y="592" type="curve" smooth="yes"/>
      <point x="542" y="705" type="line" smooth="yes"/>
      <point x="542" y="741"/>
      <point x="546" y="778"/>
      <point x="546" y="808" type="curve" smooth="yes"/>
      <point x="546" y="1054"/>
      <point x="377" y="1353"/>
      <point x="127" y="1353" type="curve" smooth="yes"/>
    </contour>
    <contour>
      <point x="216" y="141" type="line" smooth="yes"/>
      <point x="216" y="443"/>
      <point x="185" y="743"/>
      <point x="185" y="1045" type="curve" smooth="yes"/>
      <point x="185" y="1116"/>
      <point x="187" y="1188"/>
      <point x="200" y="1258" type="curve"/>
      <point x="432" y="1231"/>
      <point x="438" y="784"/>
      <point x="438" y="612" type="curve" smooth="yes"/>
      <point x="438" y="480"/>
      <point x="420" y="92"/>
      <point x="216" y="92" type="curve"/>
    </contour>
    <contour>
      <point x="305" y="0" type="move" name="center"/>
    </contour>
  </outline>
</glyph>
<glyph name="e" format="1">
  <advance width="455"/>
  <unicode hex="0065"/>
  <outline>
    <contour>
      <point x="373" y="1207"/>
      <point x="406" y="1229"/>
      <point x="406" y="1261" type="curve" smooth="yes"/>
      <point x="406" y="1323"/>
      <point x="203" y="1352"/>
      <point x="161" y="1352" type="curve" smooth="yes"/>
      <point x="84" y="1352"/>
      <point x="75" y="1266"/>
      <point x="75" y="1207" type="curve" smooth="yes"/>
      <point x="75" y="1149"/>
      <point x="86" y="1092"/>
      <point x="86" y="1034" type="curve" smooth="yes"/>
      <point x="86" y="835"/>
      <point x="72" y="635"/>
      <point x="72" y="436" type="curve" smooth="yes"/>
      <point x="72" y="349"/>
      <point x="82" y="261"/>
      <point x="82" y="174" type="curve" smooth="yes"/>
      <point x="82" y="145"/>
      <point x="85" y="117"/>
      <point x="85" y="90" type="curve" smooth="yes"/>
      <point x="85" y="36" type="line"/>
      <point x="87" y="1"/>
      <point x="121" y="-27"/>
      <point x="157" y="-27" type="curve" smooth="yes"/>
      <point x="330" y="-27" type="line" smooth="yes"/>
      <point x="367" y="-27"/>
      <point x="418" y="-13"/>
      <point x="418" y="32" type="curve" smooth="yes"/>
      <point x="418" y="73"/>
      <point x="380" y="82"/>
      <point x="340" y="82" type="curve" smooth="yes"/>
      <point x="282" y="82"/>
      <point x="223" y="77"/>
      <point x="189" y="77" type="curve" smooth="yes"/>
      <point x="188" y="77"/>
      <point x="185" y="139"/>
      <point x="185" y="192" type="curve" smooth="yes"/>
      <point x="185" y="315"/>
      <point x="194" y="440"/>
      <point x="194" y="563" type="curve" smooth="yes"/>
      <point x="194" y="615"/>
      <point x="192" y="666"/>
      <point x="188" y="718" type="curve"/>
      <point x="240" y="718" type="line"/>
      <point x="256" y="716"/>
      <point x="278" y="714"/>
      <point x="298" y="714" type="curve" smooth="yes"/>
      <point x="339" y="714"/>
      <point x="363" y="742"/>
      <point x="363" y="769" type="curve" smooth="yes"/>
      <point x="363" y="816"/>
      <point x="313" y="825"/>
      <point x="264" y="825" type="curve" smooth="yes"/>
      <point x="236" y="825"/>
      <point x="208" y="822"/>
      <point x="191" y="822" type="curve"/>
      <point x="189" y="832"/>
      <point x="185" y="844"/>
      <point x="185" y="854" type="curve" smooth="yes"/>
      <point x="185" y="952"/>
      <point x="194" y="1050"/>
      <point x="194" y="1148" type="curve" smooth="yes"/>
      <point x="194" y="1177"/>
      <point x="193" y="1207"/>
      <point x="191" y="1236" type="curve"/>
      <point x="244" y="1230"/>
      <point x="296" y="1214"/>
      <point x="346" y="1197" type="curve"/>
    </contour>
    <contour>
      <point x="228" y="0" type="move" name="top"/>
    </contour>
    <contour>
      <point x="228" y="0" type="move" name="bottom"/>
    </contour>
    <contour>
      <point x="409" y="10" type="move" name="ogonek"/>
    </contour>
  </outline>
</glyph>
<glyph name="f" format="1">
  <advance width="483"/>
  <unicode hex="0066"/>
  <outline>
    <contour>
      <point x="224" y="754"/>
      <point x="211" y="753"/>
      <point x="201" y="753" type="curve"/>
      <point x="201" y="808" type="line" smooth="yes"/>
      <point x="201" y="945"/>
      <point x="219" y="1082"/>
      <point x="220" y="1219" type="curve"/>
      <point x="220" y="1243" type="line"/>
      <point x="244" y="1243" type="line" smooth="yes"/>
      <point x="280" y="1243"/>
      <point x="318" y="1239"/>
      <point x="351" y="1223" type="curve"/>
      <point x="390" y="1223"/>
      <point x="455" y="1229"/>
      <point x="455" y="1281" type="curve" smooth="yes"/>
      <point x="455" y="1358"/>
      <point x="240" y="1364"/>
      <point x="186" y="1364" type="curve" smooth="yes"/>
      <point x="150" y="1364"/>
      <point x="107" y="1344"/>
      <point x="107" y="1303" type="curve" smooth="yes"/>
      <point x="107" y="1210"/>
      <point x="104" y="1118"/>
      <point x="99" y="1025" type="curve"/>
      <point x="99" y="975" type="line"/>
      <point x="82" y="655"/>
      <point x="88" y="333"/>
      <point x="59" y="13" type="curve"/>
      <point x="84" y="-6"/>
      <point x="110" y="-18"/>
      <point x="132" y="-18" type="curve" smooth="yes"/>
      <point x="163" y="-18"/>
      <point x="185" y="6"/>
      <point x="185" y="72" type="curve" smooth="yes"/>
      <point x="185" y="652" type="line"/>
      <point x="207" y="645"/>
      <point x="243" y="640"/>
      <point x="266" y="640" type="curve" smooth="yes"/>
      <point x="300" y="640"/>
      <point x="338" y="662"/>
      <point x="338" y="700" type="curve" smooth="yes"/>
      <point x="338" y="747"/>
      <point x="283" y="754"/>
      <point x="239" y="754" type="curve" smooth="yes"/>
    </contour>
  </outline>
</glyph>
<glyph name="j" format="1">
  <advance width="520"/>
  <unicode hex="006A"/>
  <outline>
    <contour>
      <point x="328.99" y="-193.471"/>
      <point x="352" y="46.0546"/>
      <point x="352" y="164.403" type="curve" smooth="yes"/>
      <point x="352" y="382" type="line" smooth="yes"/>
      <point x="352" y="663.659"/>
      <point x="331" y="963.341"/>
      <point x="331" y="1245" type="curve"/>
      <point x="436" y="1245" type="line" smooth="yes"/>
      <point x="464" y="1245"/>
      <point x="492" y="1262"/>
      <point x="492" y="1293" type="curve" smooth="yes"/>
      <point x="492" y="1325.11"/>
      <point x="187" y="1339"/>
      <point x="127" y="1339" type="curve" smooth="yes"/>
      <point x="103" y="1339"/>
      <point x="60" y="1322"/>
      <point x="60" y="1292" type="curve" smooth="yes"/>
      <point x="60" y="1249.14"/>
      <point x="175" y="1245.57"/>
      <point x="217" y="1242" type="curve"/>
      <point x="217" y="1233" type="line" smooth="yes"/>
      <point x="217" y="884"/>
      <point x="240" y="536"/>
      <point x="240" y="187" type="curve" smooth="yes"/>
      <point x="240" y="117"/>
      <point x="228.904" y="6.25877"/>
      <point x="181" y="-46" type="curve" smooth="yes"/>
      <point x="129.904" y="-101.741"/>
      <point x="19" y="-105.812"/>
      <point x="19" y="-134" type="curve" smooth="yes"/>
      <point x="19" y="-146.022"/>
      <point x="17.2104" y="-157.933"/>
      <point x="17.2104" y="-167.902" type="curve" smooth="yes"/>
      <point x="17.2104" y="-182.878"/>
      <point x="21.2491" y="-193.471"/>
      <point x="41.4607" y="-193.471" type="curve" smooth="yes"/>
    </contour>
  </outline>
</glyph>
<glyph name="k" format="1">
  <advance width="637"/>
  <unicode hex="006B"/>
  <outline>
    <contour>
      <point x="380" y="976"/>
      <point x="571" y="1284"/>
      <point x="572" y="1289" type="curve"/>
      <point x="572" y="1329"/>
      <point x="526" y="1344"/>
      <point x="493" y="1344" type="curve" smooth="yes"/>
      <point x="440" y="1344"/>
      <point x="241" y="912"/>
      <point x="202" y="842" type="curve"/>
      <point x="202" y="915" type="line" smooth="yes"/>
      <point x="202" y="1038"/>
      <point x="203" y="1243"/>
      <point x="229" y="1288" type="curve"/>
      <point x="229" y="1294" type="line" smooth="yes"/>
      <point x="229" y="1328"/>
      <point x="200" y="1357"/>
      <point x="166" y="1357" type="curve" smooth="yes"/>
      <point x="140" y="1357"/>
      <point x="116" y="1342"/>
      <point x="105" y="1318" type="curve"/>
      <point x="105" y="1097"/>
      <point x="66" y="877"/>
      <point x="66" y="656" type="curve" smooth="yes"/>
      <point x="66" y="34" type="line" smooth="yes"/>
      <point x="66" y="-7"/>
      <point x="94" y="-31"/>
      <point x="134" y="-31" type="curve" smooth="yes"/>
      <point x="162" y="-31"/>
      <point x="176" y="-14"/>
      <point x="176" y="17" type="curve" smooth="yes"/>
      <point x="176" y="396" type="line" smooth="yes"/>
      <point x="176" y="519"/>
      <point x="194" y="641"/>
      <point x="250" y="752" type="curve"/>
      <point x="271" y="626"/>
      <point x="405" y="-35"/>
      <point x="544" y="-35" type="curve" smooth="yes"/>
      <point x="574" y="-35"/>
      <point x="602" y="-13"/>
      <point x="602" y="19" type="curve" smooth="yes"/>
      <point x="602" y="71"/>
      <point x="561" y="108"/>
      <point x="536" y="149" type="curve" smooth="yes"/>
      <point x="474" y="252"/>
      <point x="348" y="678"/>
      <point x="348" y="797" type="curve" smooth="yes"/>
      <point x="348" y="838"/>
      <point x="352" y="878"/>
      <point x="352" y="919" type="curve"/>
    </contour>
    <contour>
      <point x="319" y="0" type="move" name="bottom"/>
    </contour>
  </outline>
</glyph>
<glyph name="l" format="1">
  <advance width="467"/>
  <unicode hex="006C"/>
  <outline>
    <contour>
      <point x="176" y="333"/>
      <point x="184" y="435"/>
      <point x="184" y="545" type="curve" smooth="yes"/>
      <point x="184" y="570" type="line" smooth="yes"/>
      <point x="184" y="599"/>
      <point x="185" y="630"/>
      <point x="196" y="656" type="curve"/>
      <point x="196" y="820"/>
      <point x="190" y="984"/>
      <point x="190" y="1148" type="curve" smooth="yes"/>
      <point x="190" y="1200"/>
      <point x="204" y="1252"/>
      <point x="204" y="1304" type="curve" smooth="yes"/>
      <point x="204" y="1332"/>
      <point x="180" y="1355"/>
      <point x="152" y="1355" type="curve" smooth="yes"/>
      <point x="82" y="1355"/>
      <point x="81" y="1207"/>
      <point x="81" y="1161" type="curve" smooth="yes"/>
      <point x="81" y="1097"/>
      <point x="87" y="1033"/>
      <point x="93" y="969" type="curve"/>
      <point x="93" y="954" type="line" smooth="yes"/>
      <point x="93" y="649"/>
      <point x="67" y="344"/>
      <point x="67" y="39" type="curve" smooth="yes"/>
      <point x="67" y="7"/>
      <point x="91" y="-28"/>
      <point x="125" y="-28" type="curve" smooth="yes"/>
      <point x="149" y="-28"/>
      <point x="174" y="-21"/>
      <point x="195" y="-9" type="curve"/>
      <point x="257" y="-9"/>
      <point x="319" y="-14"/>
      <point x="378" y="-33" type="curve"/>
      <point x="405" y="-29"/>
      <point x="440" y="-11"/>
      <point x="440" y="21" type="curve" smooth="yes"/>
      <point x="440" y="72"/>
      <point x="384" y="81"/>
      <point x="330" y="81" type="curve" smooth="yes"/>
      <point x="297" y="81"/>
      <point x="264" y="78"/>
      <point x="245" y="78" type="curve" smooth="yes"/>
      <point x="185" y="78"/>
      <point x="176" y="154"/>
      <point x="176" y="219" type="curve" smooth="yes"/>
    </contour>
    <contour>
      <point x="234" y="0" type="move" name="top"/>
    </contour>
    <contour>
      <point x="234" y="0" type="move" name="bottom"/>
    </contour>
    <contour>
      <point x="447" y="0" type="move" name="topright"/>
    </contour>
  </outline>
</glyph>
<glyph name="m" format="1">
  <advance width="1013"/>
  <unicode hex="006D"/>
  <outline>
    <contour>
      <point x="803" y="975"/>
      <point x="795" y="890"/>
      <point x="795" y="806" type="curve" smooth="yes"/>
      <point x="795" y="643"/>
      <point x="825" y="461"/>
      <point x="825" y="283" type="curve" smooth="yes"/>
      <point x="825" y="196"/>
      <point x="824" y="108"/>
      <point x="824" y="21" type="curve" smooth="yes"/>
      <point x="824" y="-21"/>
      <point x="829" y="-107"/>
      <point x="888" y="-107" type="curve" smooth="yes"/>
      <point x="932" y="-107"/>
      <point x="957" y="-58"/>
      <point x="957" y="-19" type="curve" smooth="yes"/>
      <point x="957" y="-6"/>
      <point x="953" y="8"/>
      <point x="948" y="20" type="curve"/>
      <point x="948" y="23"/>
      <point x="932" y="176"/>
      <point x="932" y="206" type="curve" smooth="yes"/>
      <point x="932" y="207" type="line" smooth="yes"/>
      <point x="932" y="279"/>
      <point x="937" y="351"/>
      <point x="937" y="423" type="curve" smooth="yes"/>
      <point x="937" y="693"/>
      <point x="911" y="1002"/>
      <point x="911" y="1292" type="curve" smooth="yes"/>
      <point x="911" y="1329"/>
      <point x="867" y="1348"/>
      <point x="836" y="1348" type="curve" smooth="yes"/>
      <point x="729" y="1348"/>
      <point x="563" y="505"/>
      <point x="522" y="370" type="curve"/>
      <point x="494" y="520"/>
      <point x="255" y="1351"/>
      <point x="188" y="1351" type="curve" smooth="yes"/>
      <point x="158" y="1351"/>
      <point x="109" y="1340"/>
      <point x="109" y="1301" type="curve" smooth="yes"/>
      <point x="109" y="1288"/>
      <point x="114" y="1272"/>
      <point x="121" y="1261" type="curve"/>
      <point x="121" y="843"/>
      <point x="58" y="427"/>
      <point x="58" y="9" type="curve" smooth="yes"/>
      <point x="58" y="-20"/>
      <point x="91" y="-40"/>
      <point x="116" y="-40" type="curve" smooth="yes"/>
      <point x="174" y="-40"/>
      <point x="184" y="-10"/>
      <point x="184" y="28" type="curve" smooth="yes"/>
      <point x="184" y="47"/>
      <point x="181" y="69"/>
      <point x="181" y="89" type="curve" smooth="yes"/>
      <point x="181" y="415"/>
      <point x="203" y="740"/>
      <point x="220" y="1065" type="curve"/>
      <point x="273" y="904"/>
      <point x="426" y="348"/>
      <point x="426" y="202" type="curve" smooth="yes"/>
      <point x="426" y="149"/>
      <point x="457" y="114"/>
      <point x="511" y="114" type="curve" smooth="yes"/>
      <point x="598" y="114"/>
      <point x="763" y="937"/>
      <point x="803" y="1059" type="curve"/>
    </contour>
  </outline>
</glyph>
<glyph name="n" format="1">
  <advance width="827"/>
  <unicode hex="006E"/>
  <outline>
    <contour>
      <point x="644" y="881"/>
      <point x="636" y="534"/>
      <point x="603" y="189" type="curve"/>
      <point x="548" y="324"/>
      <point x="306" y="1354"/>
      <point x="166" y="1354" type="curve" smooth="yes"/>
      <point x="161" y="1354"/>
      <point x="156" y="1352"/>
      <point x="151" y="1349" type="curve"/>
      <point x="151" y="1362" type="line"/>
      <point x="97" y="1322"/>
      <point x="76" y="1274"/>
      <point x="76" y="1211" type="curve" smooth="yes"/>
      <point x="76" y="1084"/>
      <point x="64" y="956"/>
      <point x="64" y="829" type="curve" smooth="yes"/>
      <point x="64" y="595"/>
      <point x="68" y="361"/>
      <point x="68" y="127" type="curve" smooth="yes"/>
      <point x="68" y="84"/>
      <point x="76" y="2"/>
      <point x="135" y="2" type="curve" smooth="yes"/>
      <point x="169" y="2"/>
      <point x="197" y="32"/>
      <point x="197" y="66" type="curve" smooth="yes"/>
      <point x="197" y="83"/>
      <point x="183" y="99"/>
      <point x="176" y="114" type="curve"/>
      <point x="176" y="1145" type="line"/>
      <point x="232" y="1016"/>
      <point x="536" y="219"/>
      <point x="536" y="102" type="curve" smooth="yes"/>
      <point x="536" y="98"/>
      <point x="535" y="95"/>
      <point x="535" y="93" type="curve" smooth="yes"/>
      <point x="554" y="55"/>
      <point x="545" y="-6"/>
      <point x="604" y="-6" type="curve" smooth="yes"/>
      <point x="628" y="-6"/>
      <point x="653" y="4"/>
      <point x="676" y="11" type="curve"/>
      <point x="728" y="92"/>
      <point x="749" y="951"/>
      <point x="750" y="1109" type="curve"/>
      <point x="750" y="1264" type="line" smooth="yes"/>
      <point x="750" y="1302"/>
      <point x="734" y="1344"/>
      <point x="692" y="1344" type="curve" smooth="yes"/>
      <point x="649" y="1344"/>
      <point x="641" y="1315"/>
      <point x="641" y="1283" type="curve" smooth="yes"/>
      <point x="641" y="1264"/>
      <point x="644" y="1244"/>
      <point x="644" y="1228" type="curve" smooth="yes"/>
    </contour>
    <contour>
      <point x="414" y="0" type="move" name="top"/>
    </contour>
    <contour>
      <point x="414" y="0" type="move" name="bottom"/>
    </contour>
  </outline>
</glyph>
<glyph name="o" format="1">
  <advance width="651"/>
  <unicode hex="006F"/>
  <outline>
    <contour>
      <point x="584" y="798" type="line" smooth="yes"/>
      <point x="584" y="1114"/>
      <point x="490" y="1378"/>
      <point x="204" y="1378" type="curve" smooth="yes"/>
      <point x="49" y="1378"/>
      <point x="50" y="860"/>
      <point x="50" y="751" type="curve" smooth="yes"/>
      <point x="50" y="714" type="line"/>
      <point x="52" y="714"/>
      <point x="53" y="711"/>
      <point x="53" y="704" type="curve" smooth="yes"/>
      <point x="53" y="677"/>
      <point x="51" y="658"/>
      <point x="51" y="626" type="curve" smooth="yes"/>
      <point x="51" y="410"/>
      <point x="82" y="-38"/>
      <point x="315" y="-38" type="curve" smooth="yes"/>
      <point x="573" y="-38"/>
      <point x="588" y="368"/>
      <point x="588" y="551" type="curve" smooth="yes"/>
      <point x="588" y="628"/>
      <point x="584" y="706"/>
      <point x="584" y="783" type="curve" smooth="yes"/>
    </contour>
    <contour>
      <point x="170" y="1141"/>
      <point x="184" y="1269"/>
      <point x="282" y="1269" type="curve" smooth="yes"/>
      <point x="384" y="1269"/>
      <point x="448" y="1171"/>
      <point x="451" y="1077" type="curve"/>
      <point x="451" y="1041" type="line"/>
      <point x="452" y="882"/>
      <point x="478" y="723"/>
      <point x="478" y="564" type="curve" smooth="yes"/>
      <point x="478" y="454"/>
      <point x="464" y="47"/>
      <point x="307" y="47" type="curve" smooth="yes"/>
      <point x="173" y="47"/>
      <point x="162" y="613"/>
      <point x="162" y="717" type="curve" smooth="yes"/>
      <point x="162" y="780"/>
      <point x="172" y="843"/>
      <point x="172" y="906" type="curve" smooth="yes"/>
      <point x="172" y="937"/>
      <point x="170" y="981"/>
      <point x="170" y="1027" type="curve" smooth="yes"/>
    </contour>
    <contour>
      <point x="326" y="0" type="move" name="top"/>
    </contour>
  </outline>
</glyph>
<glyph name="p" format="1">
  <advance width="483"/>
  <unicode hex="0070"/>
  <outline>
    <contour>
      <point x="93" y="1342"/>
      <point x="76" y="1297"/>
      <point x="71" y="1270" type="curve"/>
      <point x="85" y="1213"/>
      <point x="87" y="1147"/>
      <point x="87" y="1080" type="curve" smooth="yes"/>
      <point x="87" y="1012"/>
      <point x="84" y="944"/>
      <point x="84" y="885" type="curve" smooth="yes"/>
      <point x="84" y="841"/>
      <point x="83" y="747"/>
      <point x="64" y="709" type="curve"/>
      <point x="64" y="702" type="line" smooth="yes"/>
      <point x="64" y="685"/>
      <point x="69" y="668"/>
      <point x="76" y="652" type="curve"/>
      <point x="76" y="530"/>
      <point x="68" y="409"/>
      <point x="68" y="287" type="curve" smooth="yes"/>
      <point x="68" y="186"/>
      <point x="71" y="85"/>
      <point x="93" y="-14" type="curve"/>
      <point x="136" y="-39" type="line"/>
      <point x="170" y="-39"/>
      <point x="205" y="-14"/>
      <point x="205" y="21" type="curve" smooth="yes"/>
      <point x="205" y="151"/>
      <point x="189" y="279"/>
      <point x="189" y="409" type="curve" smooth="yes"/>
      <point x="189" y="628" type="line"/>
      <point x="421" y="699"/>
      <point x="424" y="831"/>
      <point x="424" y="1044" type="curve" smooth="yes"/>
      <point x="424" y="1180"/>
      <point x="381" y="1342"/>
      <point x="216" y="1342" type="curve" smooth="yes"/>
      <point x="126" y="1342" type="line" smooth="yes"/>
    </contour>
    <contour>
      <point x="188" y="1231"/>
      <point x="208" y="1231"/>
      <point x="208" y="1228" type="curve"/>
      <point x="308" y="1228"/>
      <point x="312" y="1136"/>
      <point x="312" y="1059" type="curve" smooth="yes"/>
      <point x="312" y="969"/>
      <point x="309" y="729"/>
      <point x="190" y="713" type="curve"/>
      <point x="190" y="716" type="line"/>
      <point x="189" y="849"/>
      <point x="186" y="982"/>
      <point x="186" y="1115" type="curve" smooth="yes"/>
      <point x="186" y="1231" type="line"/>
    </contour>
  </outline>
</glyph>
<glyph name="q" format="1">
  <advance width="644"/>
  <unicode hex="0071"/>
  <outline>
    <contour>
      <point x="502" y="-434" type="line"/>
      <point x="530" y="-434"/>
      <point x="550" y="-412"/>
      <point x="550" y="-384" type="curve" smooth="yes"/>
      <point x="550" y="-333"/>
      <point x="496" y="-326"/>
      <point x="455" y="-326" type="curve"/>
      <point x="435" y="-235"/>
      <point x="399" y="-143"/>
      <point x="399" y="-49" type="curve"/>
      <point x="579" y="30"/>
      <point x="582" y="635"/>
      <point x="582" y="812" type="curve" smooth="yes"/>
      <point x="582" y="990"/>
      <point x="570" y="1262"/>
      <point x="376" y="1341" type="curve" smooth="yes"/>
      <point x="346" y="1353"/>
      <point x="313" y="1356"/>
      <point x="283" y="1369" type="curve"/>
      <point x="67" y="1369"/>
      <point x="52" y="903"/>
      <point x="52" y="754" type="curve" smooth="yes"/>
      <point x="52" y="426"/>
      <point x="6" y="1"/>
      <point x="299" y="-62" type="curve"/>
      <point x="320" y="-169"/>
      <point x="344" y="-276"/>
      <point x="344" y="-385" type="curve"/>
      <point x="382" y="-427"/>
      <point x="449" y="-432"/>
      <point x="502" y="-432" type="curve"/>
    </contour>
    <contour>
      <point x="151" y="785"/>
      <point x="172" y="1288"/>
      <point x="271" y="1288" type="curve" smooth="yes"/>
      <point x="459" y="1288"/>
      <point x="473" y="1004"/>
      <point x="473" y="869" type="curve" smooth="yes"/>
      <point x="473" y="511" type="line" smooth="yes"/>
      <point x="473" y="439"/>
      <point x="408" y="18"/>
      <point x="353" y="18" type="curve" smooth="yes"/>
      <point x="333" y="18"/>
      <point x="312" y="14"/>
      <point x="293" y="6" type="curve"/>
      <point x="151" y="7"/>
      <point x="151" y="590"/>
      <point x="151" y="699" type="curve" smooth="yes"/>
    </contour>
  </outline>
</glyph>
<glyph name="r" format="1">
  <advance width="504"/>
  <unicode hex="0072"/>
  <outline>
    <contour>
      <point x="276" y="1287"/>
      <point x="282" y="1175"/>
      <point x="282" y="1098" type="curve" smooth="yes"/>
      <point x="282" y="1023"/>
      <point x="247" y="824"/>
      <point x="175" y="787" type="curve"/>
      <point x="174" y="945"/>
      <point x="167" y="1102"/>
      <point x="167" y="1260" type="curve" smooth="yes"/>
      <point x="167" y="1269"/>
      <point x="172" y="1280"/>
      <point x="174" y="1289" type="curve"/>
    </contour>
    <contour>
      <point x="240" y="573"/>
      <point x="302" y="-35"/>
      <point x="426" y="-35" type="curve" smooth="yes"/>
      <point x="455" y="-35"/>
      <point x="472" y="-10"/>
      <point x="472" y="17" type="curve" smooth="yes"/>
      <point x="472" y="47"/>
      <point x="450" y="80"/>
      <point x="438" y="107" type="curve" smooth="yes"/>
      <point x="351" y="296"/>
      <point x="325" y="533"/>
      <point x="279" y="736" type="curve"/>
      <point x="321" y="817"/>
      <point x="384" y="912"/>
      <point x="384" y="1005" type="curve" smooth="yes"/>
      <point x="384" y="1149" type="line" smooth="yes"/>
      <point x="384" y="1295"/>
      <point x="265" y="1365"/>
      <point x="131" y="1365" type="curve" smooth="yes"/>
      <point x="74" y="1365"/>
      <point x="63" y="1314"/>
      <point x="63" y="1268" type="curve" smooth="yes"/>
      <point x="63" y="898"/>
      <point x="98" y="518"/>
      <point x="98" y="149" type="curve" smooth="yes"/>
      <point x="98" y="103"/>
      <point x="97" y="58"/>
      <point x="96" y="12" type="curve"/>
      <point x="123" y="-18" type="line"/>
      <point x="180" y="-18" type="line"/>
      <point x="203" y="37" type="line"/>
      <point x="170" y="169"/>
      <point x="164" y="319"/>
      <point x="164" y="464" type="curve" smooth="yes"/>
      <point x="164" y="540"/>
      <point x="166" y="615"/>
      <point x="166" y="686" type="curve"/>
      <point x="191" y="686" type="line"/>
    </contour>
    <contour>
      <point x="252" y="0" type="move" name="top"/>
    </contour>
    <contour>
      <point x="252" y="0" type="move" name="bottom"/>
    </contour>
  </outline>
</glyph>
<glyph name="s" format="1">
  <advance width="445"/>
  <unicode hex="0073"/>
  <outline>
    <contour>
      <point x="395" y="689"/>
      <point x="150" y="811"/>
      <point x="150" y="1075" type="curve" smooth="yes"/>
      <point x="150" y="1127"/>
      <point x="175" y="1271"/>
      <point x="243" y="1273" type="curve"/>
      <point x="255" y="1266"/>
      <point x="272" y="1261"/>
      <point x="286" y="1261" type="curve" smooth="yes"/>
      <point x="309" y="1261"/>
      <point x="336" y="1273"/>
      <point x="336" y="1300" type="curve" smooth="yes"/>
      <point x="336" y="1349"/>
      <point x="279" y="1381"/>
      <point x="235" y="1381" type="curve" smooth="yes"/>
      <point x="99" y="1381"/>
      <point x="50" y="1194"/>
      <point x="50" y="1086" type="curve" smooth="yes"/>
      <point x="50" y="790"/>
      <point x="295" y="631"/>
      <point x="295" y="367" type="curve" smooth="yes"/>
      <point x="295" y="286"/>
      <point x="268" y="71"/>
      <point x="157" y="71" type="curve" smooth="yes"/>
      <point x="128" y="71"/>
      <point x="100" y="82"/>
      <point x="72" y="86" type="curve"/>
      <point x="49" y="51" type="line"/>
      <point x="55" y="3"/>
      <point x="97" y="-22"/>
      <point x="141" y="-28" type="curve"/>
      <point x="141" y="-23" type="line"/>
      <point x="325" y="-19"/>
      <point x="395" y="191"/>
      <point x="395" y="342" type="curve" smooth="yes"/>
    </contour>
    <contour>
      <point x="223" y="0" type="move" name="top"/>
    </contour>
    <contour>
      <point x="223" y="0" type="move" name="bottom"/>
    </contour>
  </outline>
</glyph>
<glyph name="t" format="1">
  <advance width="493"/>
  <unicode hex="0074"/>
  <outline>
    <contour>
      <point x="255" y="237"/>
      <point x="253" y="213"/>
      <point x="253" y="190" type="curve" smooth="yes"/>
      <point x="253" y="138"/>
      <point x="257" y="85"/>
      <point x="257" y="33" type="curve"/>
      <point x="295" y="6" type="line"/>
      <point x="328" y="6"/>
      <point x="365" y="34"/>
      <point x="365" y="67" type="curve" smooth="yes"/>
      <point x="365" y="456"/>
      <point x="297" y="841"/>
      <point x="297" y="1230" type="curve" smooth="yes"/>
      <point x="297" y="1237"/>
      <point x="300" y="1245"/>
      <point x="301" y="1251" type="curve"/>
      <point x="332" y="1247"/>
      <point x="363" y="1237"/>
      <point x="395" y="1237" type="curve" smooth="yes"/>
      <point x="427" y="1237"/>
      <point x="463" y="1257"/>
      <point x="463" y="1293" type="curve" smooth="yes"/>
      <point x="463" y="1336"/>
      <point x="431" y="1342"/>
      <point x="399" y="1342" type="curve" smooth="yes"/>
      <point x="387" y="1342"/>
      <point x="376" y="1341"/>
      <point x="366" y="1341" type="curve" smooth="yes"/>
      <point x="273" y="1341"/>
      <point x="181" y="1360"/>
      <point x="88" y="1360" type="curve" smooth="yes"/>
      <point x="65" y="1360"/>
      <point x="23" y="1344"/>
      <point x="23" y="1316" type="curve" smooth="yes"/>
      <point x="23" y="1255"/>
      <point x="155" y="1256"/>
      <point x="197" y="1255" type="curve"/>
      <point x="199" y="1154"/>
      <point x="244" y="299"/>
      <point x="256" y="260" type="curve"/>
    </contour>
    <contour>
      <point x="247" y="0" type="move" name="center"/>
    </contour>
    <contour>
      <point x="247" y="0" type="move" name="bottom"/>
    </contour>
  </outline>
</glyph>
<glyph name="u" format="1">
  <advance width="641"/>
  <unicode hex="0075"/>
  <outline>
    <contour>
      <point x="68" y="257"/>
      <point x="93" y="-31"/>
      <point x="298" y="-31" type="curve" smooth="yes"/>
      <point x="563" y="-31"/>
      <point x="562" y="676"/>
      <point x="562" y="878" type="curve" smooth="yes"/>
      <point x="562" y="890"/>
      <point x="560" y="901"/>
      <point x="560" y="913" type="curve" smooth="yes"/>
      <point x="560" y="970"/>
      <point x="569" y="1027"/>
      <point x="569" y="1084" type="curve" smooth="yes"/>
      <point x="569" y="1151"/>
      <point x="583" y="1221"/>
      <point x="583" y="1290" type="curve" smooth="yes"/>
      <point x="583" y="1336"/>
      <point x="580" y="1389"/>
      <point x="520" y="1389" type="curve" smooth="yes"/>
      <point x="471" y="1389"/>
      <point x="464" y="1369"/>
      <point x="464" y="1341" type="curve" smooth="yes"/>
      <point x="464" y="1330"/>
      <point x="465" y="1319"/>
      <point x="465" y="1307" type="curve" smooth="yes"/>
      <point x="465" y="1192" type="line" smooth="yes"/>
      <point x="465" y="862"/>
      <point x="456" y="91"/>
      <point x="319" y="91" type="curve" smooth="yes"/>
      <point x="204" y="91"/>
      <point x="189" y="177"/>
      <point x="189" y="241" type="curve" smooth="yes"/>
      <point x="189" y="386"/>
      <point x="160" y="530"/>
      <point x="160" y="675" type="curve" smooth="yes"/>
      <point x="160" y="1232" type="line" smooth="yes"/>
      <point x="160" y="1287"/>
      <point x="131" y="1349"/>
      <point x="98" y="1349" type="curve" smooth="yes"/>
      <point x="83" y="1349"/>
      <point x="68" y="1337"/>
      <point x="54" y="1306" type="curve"/>
      <point x="57" y="1203"/>
      <point x="63" y="1114"/>
      <point x="63" y="1013" type="curve" smooth="yes"/>
      <point x="63" y="821"/>
      <point x="63" y="693"/>
      <point x="68" y="473" type="curve"/>
    </contour>
    <contour>
      <point x="321" y="0" type="move" name="top"/>
    </contour>
    <contour>
      <point x="577" y="10" type="move" name="ogonek"/>
    </contour>
  </outline>
</glyph>
<glyph name="v" format="1">
  <advance width="666"/>
  <unicode hex="0076"/>
  <outline>
    <contour>
      <point x="468" y="1019"/>
      <point x="420" y="630"/>
      <point x="343" y="247" type="curve"/>
      <point x="320" y="404"/>
      <point x="215" y="1366"/>
      <point x="78" y="1366" type="curve" smooth="yes"/>
      <point x="53" y="1366"/>
      <point x="28" y="1345"/>
      <point x="28" y="1319" type="curve" smooth="yes"/>
      <point x="28" y="1274"/>
      <point x="71" y="1161"/>
      <point x="84" y="1110" type="curve" smooth="yes"/>
      <point x="176" y="754"/>
      <point x="266" y="377"/>
      <point x="266" y="7" type="curve"/>
      <point x="304" y="-24" type="line"/>
      <point x="480" y="-24"/>
      <point x="488" y="658"/>
      <point x="515" y="821" type="curve" smooth="yes"/>
      <point x="544" y="998"/>
      <point x="624" y="1170"/>
      <point x="624" y="1351" type="curve" smooth="yes"/>
      <point x="624" y="1377"/>
      <point x="600" y="1396"/>
      <point x="577" y="1396" type="curve" smooth="yes"/>
      <point x="531" y="1396" type="line"/>
    </contour>
  </outline>
</glyph>
<glyph name="w" format="1">
  <advance width="802"/>
  <unicode hex="0077"/>
  <outline>
    <contour>
      <point x="653" y="-69"/>
      <point x="653" y="86"/>
      <point x="653" y="139" type="curve" smooth="yes"/>
      <point x="653" y="371"/>
      <point x="716" y="644"/>
      <point x="716" y="896" type="curve" smooth="yes"/>
      <point x="716" y="1046" type="line" smooth="yes"/>
      <point x="716" y="1109"/>
      <point x="724" y="1173"/>
      <point x="744" y="1234" type="curve"/>
      <point x="744" y="1245" type="line"/>
      <point x="751" y="1272"/>
      <point x="749" y="1301"/>
      <point x="749" y="1329" type="curve" smooth="yes"/>
      <point x="749" y="1360"/>
      <point x="726" y="1377"/>
      <point x="697" y="1377" type="curve" smooth="yes"/>
      <point x="652" y="1377"/>
      <point x="634" y="1357"/>
      <point x="634" y="1327" type="curve" smooth="yes"/>
      <point x="634" y="1316"/>
      <point x="636" y="1305"/>
      <point x="641" y="1292" type="curve"/>
      <point x="641" y="1189"/>
      <point x="610" y="1087"/>
      <point x="610" y="984" type="curve" smooth="yes"/>
      <point x="610" y="758"/>
      <point x="602" y="531"/>
      <point x="572" y="307" type="curve"/>
      <point x="531" y="586"/>
      <point x="531" y="871"/>
      <point x="450" y="1143" type="curve"/>
      <point x="450" y="1160" type="line" smooth="yes"/>
      <point x="450" y="1194"/>
      <point x="419" y="1210"/>
      <point x="389" y="1210" type="curve"/>
      <point x="334" y="1186" type="line"/>
      <point x="334" y="884"/>
      <point x="290" y="573"/>
      <point x="247" y="283" type="curve"/>
      <point x="236" y="589"/>
      <point x="156" y="888"/>
      <point x="156" y="1195" type="curve" smooth="yes"/>
      <point x="156" y="1238"/>
      <point x="150" y="1329"/>
      <point x="90" y="1329" type="curve" smooth="yes"/>
      <point x="65" y="1329"/>
      <point x="42" y="1316"/>
      <point x="31" y="1293" type="curve"/>
      <point x="98" y="1142"/>
      <point x="99" y="-43"/>
      <point x="245" y="-43" type="curve" smooth="yes"/>
      <point x="353" y="-43"/>
      <point x="402" y="700"/>
      <point x="402" y="826" type="curve" smooth="yes"/>
      <point x="402" y="865"/>
      <point x="405" y="903"/>
      <point x="409" y="942" type="curve"/>
      <point x="453" y="648"/>
      <point x="515" y="308"/>
      <point x="515" y="25" type="curve" smooth="yes"/>
      <point x="515" y="-13"/>
      <point x="526" y="-69"/>
      <point x="574" y="-69" type="curve" smooth="yes"/>
    </contour>
    <contour>
      <point x="401" y="0" type="move" name="top"/>
    </contour>
  </outline>
</glyph>
<glyph name="x" format="1">
  <advance width="471"/>
  <unicode hex="0078"/>
  <outline>
    <contour>
      <point x="268" y="1069"/>
      <point x="249" y="981"/>
      <point x="234" y="894" type="curve"/>
      <point x="216" y="979"/>
      <point x="170" y="1334"/>
      <point x="96" y="1334" type="curve" smooth="yes"/>
      <point x="72" y="1334"/>
      <point x="35" y="1322"/>
      <point x="35" y="1292" type="curve" smooth="yes"/>
      <point x="35" y="1274"/>
      <point x="41" y="1254"/>
      <point x="54" y="1241" type="curve"/>
      <point x="54" y="1219" type="line"/>
      <point x="87" y="1172"/>
      <point x="181" y="733"/>
      <point x="181" y="660" type="curve" smooth="yes"/>
      <point x="181" y="447"/>
      <point x="65" y="253"/>
      <point x="65" y="40" type="curve" smooth="yes"/>
      <point x="65" y="8"/>
      <point x="100" y="-7"/>
      <point x="127" y="-7" type="curve" smooth="yes"/>
      <point x="169" y="-7"/>
      <point x="180" y="33"/>
      <point x="180" y="69" type="curve" smooth="yes"/>
      <point x="180" y="78"/>
      <point x="180" y="86"/>
      <point x="179" y="93" type="curve"/>
      <point x="213" y="203"/>
      <point x="211" y="320"/>
      <point x="231" y="433" type="curve"/>
      <point x="248" y="353"/>
      <point x="293" y="3"/>
      <point x="377" y="3" type="curve" smooth="yes"/>
      <point x="405" y="3"/>
      <point x="432" y="24"/>
      <point x="432" y="54" type="curve" smooth="yes"/>
      <point x="432" y="175"/>
      <point x="284" y="475"/>
      <point x="284" y="646" type="curve" smooth="yes"/>
      <point x="284" y="741"/>
      <point x="330" y="1021"/>
      <point x="362" y="1109" type="curve"/>
      <point x="362" y="1133" type="line" smooth="yes"/>
      <point x="362" y="1193"/>
      <point x="362" y="1258"/>
      <point x="397" y="1309" type="curve"/>
      <point x="359" y="1357" type="line"/>
      <point x="277" y="1335"/>
      <point x="267" y="1286"/>
      <point x="267" y="1225" type="curve" smooth="yes"/>
      <point x="267" y="1204"/>
      <point x="268" y="1181"/>
      <point x="268" y="1158" type="curve" smooth="yes"/>
    </contour>
  </outline>
</glyph>
<glyph name="y" format="1">
  <advance width="513"/>
  <unicode hex="0079"/>
  <outline>
    <contour>
      <point x="350" y="-28"/>
      <point x="355" y="53"/>
      <point x="355" y="109" type="curve" smooth="yes"/>
      <point x="355" y="726" type="line"/>
      <point x="359" y="932"/>
      <point x="474" y="1118"/>
      <point x="474" y="1319" type="curve" smooth="yes"/>
      <point x="474" y="1346"/>
      <point x="448" y="1362"/>
      <point x="424" y="1362" type="curve" smooth="yes"/>
      <point x="334" y="1362"/>
      <point x="294" y="954"/>
      <point x="264" y="877" type="curve"/>
      <point x="238" y="951"/>
      <point x="155" y="1331"/>
      <point x="76" y="1333" type="curve"/>
      <point x="30" y="1299" type="line"/>
      <point x="30" y="1288" type="line" smooth="yes"/>
      <point x="30" y="1202"/>
      <point x="190" y="825"/>
      <point x="230" y="717" type="curve"/>
      <point x="230" y="664" type="line"/>
      <point x="234" y="564"/>
      <point x="254" y="464"/>
      <point x="254" y="364" type="curve" smooth="yes"/>
      <point x="254" y="300"/>
      <point x="254" y="62"/>
      <point x="231" y="17" type="curve"/>
      <point x="241" y="-6"/>
      <point x="261" y="-28"/>
      <point x="288" y="-28" type="curve" smooth="yes"/>
    </contour>
    <contour>
      <point x="257" y="0" type="move" name="top"/>
    </contour>
  </outline>
</glyph>
<glyph name="z" format="1">
  <advance width="493"/>
  <unicode hex="007A"/>
  <outline>
    <contour>
      <point x="233" y="1244"/>
      <point x="288" y="1254"/>
      <point x="344" y="1256" type="curve"/>
      <point x="248.291" y="877.886"/>
      <point x="40.567" y="339.338"/>
      <point x="40.567" y="42.2378" type="curve" smooth="yes"/>
      <point x="40.567" y="15.4854"/>
      <point x="68.9098" y="-4"/>
      <point x="96" y="-4" type="curve" smooth="yes"/>
      <point x="123" y="-4"/>
      <point x="142" y="18"/>
      <point x="169" y="18" type="curve" smooth="yes"/>
      <point x="209" y="18"/>
      <point x="250" y="12"/>
      <point x="290" y="12" type="curve" smooth="yes"/>
      <point x="320" y="12"/>
      <point x="361" y="25"/>
      <point x="361" y="62" type="curve" smooth="yes"/>
      <point x="361" y="109"/>
      <point x="313" y="112"/>
      <point x="278" y="112" type="curve"/>
      <point x="278" y="111" type="line"/>
      <point x="249" y="111"/>
      <point x="221" y="105"/>
      <point x="192" y="105" type="curve" smooth="yes"/>
      <point x="157" y="105" type="line"/>
      <point x="188.7" y="263.7"/>
      <point x="308" y="653"/>
      <point x="353" y="933" type="curve" smooth="yes"/>
      <point x="373" y="1059"/>
      <point x="450" y="1172"/>
      <point x="450" y="1302" type="curve" smooth="yes"/>
      <point x="450" y="1355"/>
      <point x="388" y="1359"/>
      <point x="349" y="1359" type="curve"/>
      <point x="349" y="1359" type="line"/>
      <point x="284" y="1359"/>
      <point x="124" y="1356"/>
      <point x="124" y="1301" type="curve" smooth="yes"/>
      <point x="124" y="1272"/>
      <point x="147" y="1244"/>
      <point x="177" y="1244" type="curve" smooth="yes"/>
    </contour>
    <contour>
      <point x="247" y="0" type="move" name="top"/>
    </contour>
  </outline>
</glyph>
<glyph name="braceleft" format="1">
  <advance width="649"/>
  <unicode hex="007B"/>
  <outline>
    <contour>
      <point x="240" y="52"/>
      <point x="278" y="-48"/>
      <point x="443" y="-48" type="curve" smooth="yes"/>
      <point x="481" y="-48"/>
      <point x="566" y="-36"/>
      <point x="566" y="16" type="curve" smooth="yes"/>
      <point x="566" y="25"/>
      <point x="561" y="62"/>
      <point x="549" y="62" type="curve" smooth="yes"/>
      <point x="507" y="62"/>
      <point x="470" y="39"/>
      <point x="428" y="39" type="curve" smooth="yes"/>
      <point x="346" y="39"/>
      <point x="336" y="118"/>
      <point x="336" y="182" type="curve" smooth="yes"/>
      <point x="336" y="622" type="line" smooth="yes"/>
      <point x="336" y="672"/>
      <point x="334" y="728"/>
      <point x="302" y="768" type="curve"/>
      <point x="331" y="806"/>
      <point x="338" y="875"/>
      <point x="338" y="947" type="curve" smooth="yes"/>
      <point x="338" y="1024"/>
      <point x="330" y="1106"/>
      <point x="330" y="1157" type="curve" smooth="yes"/>
      <point x="330" y="1222"/>
      <point x="330" y="1408"/>
      <point x="428" y="1408" type="curve" smooth="yes"/>
      <point x="463" y="1408"/>
      <point x="494" y="1389"/>
      <point x="529" y="1389" type="curve" smooth="yes"/>
      <point x="556" y="1389"/>
      <point x="586" y="1404"/>
      <point x="586" y="1435" type="curve" smooth="yes"/>
      <point x="586" y="1482"/>
      <point x="477" y="1495"/>
      <point x="443" y="1495" type="curve" smooth="yes"/>
      <point x="306" y="1495"/>
      <point x="238" y="1399"/>
      <point x="238" y="1280" type="curve" smooth="yes"/>
      <point x="238" y="1262"/>
      <point x="240" y="1244"/>
      <point x="243" y="1226" type="curve"/>
      <point x="233" y="1209"/>
      <point x="230" y="1173"/>
      <point x="230" y="1130" type="curve" smooth="yes"/>
      <point x="230" y="1054"/>
      <point x="240" y="958"/>
      <point x="240" y="916" type="curve" smooth="yes"/>
      <point x="240" y="754"/>
      <point x="101" y="866"/>
      <point x="101" y="766" type="curve" smooth="yes"/>
      <point x="101" y="673"/>
      <point x="240" y="785"/>
      <point x="240" y="621" type="curve" smooth="yes"/>
      <point x="240" y="198" type="line" smooth="yes"/>
    </contour>
  </outline>
</glyph>
<glyph name="bar" format="1">
  <advance width="467"/>
  <unicode hex="007C"/>
  <outline>
    <contour>
      <point x="129" y="1045"/>
      <point x="143" y="580"/>
      <point x="143" y="114" type="curve" smooth="yes"/>
      <point x="143" y="82"/>
      <point x="142" y="-80"/>
      <point x="194" y="-80" type="curve" smooth="yes"/>
      <point x="222" y="-80"/>
      <point x="246" y="-57"/>
      <point x="246" y="-29" type="curve" smooth="yes"/>
      <point x="246" y="379" type="line" smooth="yes"/>
      <point x="246" y="763"/>
      <point x="242" y="1148"/>
      <point x="242" y="1533" type="curve" smooth="yes"/>
      <point x="242" y="1556"/>
      <point x="226" y="1584"/>
      <point x="200" y="1584" type="curve" smooth="yes"/>
      <point x="152" y="1584"/>
      <point x="129" y="1556"/>
      <point x="129" y="1510" type="curve" smooth="yes"/>
    </contour>
  </outline>
</glyph>
<glyph name="asciitilde" format="1">
  <advance width="675"/>
  <unicode hex="007E"/>
  <outline>
    <contour>
      <point x="656" y="1194"/>
      <point x="636" y="1223"/>
      <point x="589" y="1223" type="curve" smooth="yes"/>
      <point x="529" y="1223"/>
      <point x="559" y="1141"/>
      <point x="500" y="1141" type="curve" smooth="yes"/>
      <point x="416" y="1141"/>
      <point x="255" y="1224"/>
      <point x="157" y="1224" type="curve" smooth="yes"/>
      <point x="62" y="1224"/>
      <point x="9" y="1167"/>
      <point x="9" y="1105" type="curve" smooth="yes"/>
      <point x="9" y="1063"/>
      <point x="46" y="1046"/>
      <point x="83" y="1046" type="curve"/>
      <point x="137" y="1065"/>
      <point x="88" y="1107"/>
      <point x="136" y="1125" type="curve"/>
      <point x="216" y="1121"/>
      <point x="240" y="1038"/>
      <point x="524" y="1038" type="curve" smooth="yes"/>
      <point x="595" y="1038"/>
      <point x="656" y="1099"/>
      <point x="656" y="1170" type="curve" smooth="yes"/>
    </contour>
  </outline>
</glyph>
<glyph name="sterling" format="1">
  <advance width="712"/>
  <unicode hex="00A3"/>
  <outline>
    <contour>
      <point x="707" y="123"/>
      <point x="683" y="146"/>
      <point x="652" y="146" type="curve" smooth="yes"/>
      <point x="615" y="146"/>
      <point x="581" y="125"/>
      <point x="542" y="125" type="curve" smooth="yes"/>
      <point x="452" y="125"/>
      <point x="367" y="162"/>
      <point x="277" y="169" type="curve"/>
      <point x="298" y="238"/>
      <point x="324" y="305"/>
      <point x="324" y="378" type="curve" smooth="yes"/>
      <point x="324" y="554"/>
      <point x="248" y="728"/>
      <point x="217" y="900" type="curve"/>
      <point x="360" y="910"/>
      <point x="453" y="909"/>
      <point x="453" y="928" type="curve" smooth="yes"/>
      <point x="453" y="957"/>
      <point x="427" y="979"/>
      <point x="401" y="979" type="curve" smooth="yes"/>
      <point x="332" y="979"/>
      <point x="265" y="976"/>
      <point x="196" y="976" type="curve"/>
      <point x="178" y="1062"/>
      <point x="177" y="1154"/>
      <point x="177" y="1243" type="curve" smooth="yes"/>
      <point x="177" y="1270" type="line" smooth="yes"/>
      <point x="177" y="1340"/>
      <point x="202" y="1535"/>
      <point x="269" y="1535" type="curve" smooth="yes"/>
      <point x="363" y="1535"/>
      <point x="314" y="1359"/>
      <point x="423" y="1359" type="curve" smooth="yes"/>
      <point x="452" y="1359"/>
      <point x="455" y="1380"/>
      <point x="455" y="1403" type="curve" smooth="yes"/>
      <point x="455" y="1474"/>
      <point x="368" y="1632"/>
      <point x="288" y="1632" type="curve" smooth="yes"/>
      <point x="263" y="1632" type="line" smooth="yes"/>
      <point x="97" y="1632"/>
      <point x="78" y="1329"/>
      <point x="78" y="1238" type="curve" smooth="yes"/>
      <point x="78" y="1147"/>
      <point x="100" y="1057"/>
      <point x="103" y="966" type="curve"/>
      <point x="29" y="966"/>
      <point x="26" y="943"/>
      <point x="26" y="924" type="curve" smooth="yes"/>
      <point x="26" y="918" type="line" smooth="yes"/>
      <point x="26" y="906"/>
      <point x="40" y="894"/>
      <point x="120" y="894" type="curve"/>
      <point x="161" y="725"/>
      <point x="227" y="559"/>
      <point x="227" y="382" type="curve" smooth="yes"/>
      <point x="227" y="325"/>
      <point x="212" y="194"/>
      <point x="165" y="158" type="curve" smooth="yes"/>
      <point x="123" y="125"/>
      <point x="36" y="123"/>
      <point x="36" y="53" type="curve" smooth="yes"/>
      <point x="36" y="23"/>
      <point x="69" y="8"/>
      <point x="94" y="6" type="curve"/>
      <point x="94" y="2" type="line"/>
      <point x="129" y="21"/>
      <point x="241" y="70"/>
      <point x="278" y="71" type="curve"/>
      <point x="278" y="68" type="line"/>
      <point x="382" y="57"/>
      <point x="450" y="27"/>
      <point x="559" y="27" type="curve" smooth="yes"/>
      <point x="658" y="27"/>
      <point x="707" y="59"/>
      <point x="707" y="96" type="curve" smooth="yes"/>
    </contour>
  </outline>
</glyph>
<glyph name="yen" format="1">
  <advance width="876"/>
  <unicode hex="00A5"/>
  <outline>
    <contour>
      <point x="18" y="1764" type="line"/>
      <point x="18" y="1705" type="line"/>
      <point x="211" y="1535"/>
      <point x="243" y="1251"/>
      <point x="423" y="1071" type="curve"/>
      <point x="423" y="1059" type="line"/>
      <point x="389" y="1054"/>
      <point x="355" y="1052"/>
      <point x="321" y="1052" type="curve" smooth="yes"/>
      <point x="268" y="1052"/>
      <point x="216" y="1056"/>
      <point x="163" y="1056" type="curve"/>
      <point x="138" y="1017" type="line"/>
      <point x="138" y="1010" type="line" smooth="yes"/>
      <point x="138" y="960"/>
      <point x="201" y="948"/>
      <point x="270" y="948" type="curve" smooth="yes"/>
      <point x="331" y="948"/>
      <point x="396" y="957"/>
      <point x="423" y="958" type="curve"/>
      <point x="424" y="954" type="line"/>
      <point x="424" y="930"/>
      <point x="424" y="907"/>
      <point x="422" y="883" type="curve"/>
      <point x="326" y="878"/>
      <point x="229" y="875"/>
      <point x="133" y="875" type="curve"/>
      <point x="117" y="823" type="line"/>
      <point x="128" y="798"/>
      <point x="147" y="776"/>
      <point x="171" y="763" type="curve"/>
      <point x="202" y="762" type="line" smooth="yes"/>
      <point x="216" y="762" type="line" smooth="yes"/>
      <point x="279" y="762"/>
      <point x="343" y="773"/>
      <point x="406" y="773" type="curve" smooth="yes"/>
      <point x="413" y="773" type="line"/>
      <point x="413" y="663"/>
      <point x="397" y="112"/>
      <point x="370" y="45" type="curve"/>
      <point x="370" y="40" type="line" smooth="yes"/>
      <point x="370" y="6"/>
      <point x="407" y="-8"/>
      <point x="435" y="-8" type="curve" smooth="yes"/>
      <point x="496" y="-8"/>
      <point x="504" y="45"/>
      <point x="504" y="94" type="curve" smooth="yes"/>
      <point x="504" y="111"/>
      <point x="503" y="128"/>
      <point x="503" y="142" type="curve" smooth="yes"/>
      <point x="503" y="354"/>
      <point x="533" y="564"/>
      <point x="534" y="776" type="curve"/>
      <point x="700" y="776" type="line"/>
      <point x="679" y="766" type="line"/>
      <point x="787" y="766" type="line" smooth="yes"/>
      <point x="816" y="766"/>
      <point x="847" y="789"/>
      <point x="847" y="820" type="curve" smooth="yes"/>
      <point x="847" y="881"/>
      <point x="767" y="895"/>
      <point x="687" y="895" type="curve" smooth="yes"/>
      <point x="625" y="895"/>
      <point x="564" y="887"/>
      <point x="539" y="887" type="curve"/>
      <point x="539" y="950" type="line"/>
      <point x="730" y="948" type="line" smooth="yes"/>
      <point x="739" y="948" type="line" smooth="yes"/>
      <point x="780" y="948"/>
      <point x="852" y="955"/>
      <point x="852" y="1005" type="curve" smooth="yes"/>
      <point x="852" y="1054"/>
      <point x="792" y="1066"/>
      <point x="725" y="1066" type="curve" smooth="yes"/>
      <point x="664" y="1066"/>
      <point x="598" y="1056"/>
      <point x="570" y="1056" type="curve"/>
      <point x="545" y="1059" type="line"/>
      <point x="560" y="1121"/>
      <point x="593" y="1176"/>
      <point x="609" y="1238" type="curve" smooth="yes"/>
      <point x="656" y="1422"/>
      <point x="720" y="1589"/>
      <point x="781" y="1768" type="curve"/>
      <point x="783" y="1778" type="line"/>
      <point x="783" y="1809"/>
      <point x="755" y="1832"/>
      <point x="725" y="1832" type="curve" smooth="yes"/>
      <point x="628" y="1832"/>
      <point x="509" y="1302"/>
      <point x="472" y="1207" type="curve"/>
      <point x="415" y="1293"/>
      <point x="170" y="1774"/>
      <point x="71" y="1774" type="curve" smooth="yes"/>
      <point x="54" y="1774"/>
      <point x="37" y="1766"/>
      <point x="21" y="1759" type="curve"/>
    </contour>
  </outline>
</glyph>
<glyph name="brokenbar" format="1">
  <advance width="325"/>
  <unicode hex="00A6"/>
  <outline>
    <contour>
      <point x="104" y="1348"/>
      <point x="112" y="1183"/>
      <point x="112" y="1020" type="curve" smooth="yes"/>
      <point x="112" y="988"/>
      <point x="111" y="826"/>
      <point x="163" y="826" type="curve" smooth="yes"/>
      <point x="191" y="826"/>
      <point x="215" y="849"/>
      <point x="215" y="877" type="curve" smooth="yes"/>
      <point x="218" y="1285" type="line" smooth="yes"/>
      <point x="218" y="1304"/>
      <point x="220" y="1346"/>
      <point x="220" y="1393" type="curve" smooth="yes"/>
      <point x="220" y="1481"/>
      <point x="213" y="1584"/>
      <point x="175" y="1584" type="curve" smooth="yes"/>
      <point x="127" y="1584"/>
      <point x="104" y="1556"/>
      <point x="104" y="1510" type="curve" smooth="yes"/>
    </contour>
    <contour>
      <point x="218" y="662"/>
      <point x="203" y="695"/>
      <point x="157" y="695" type="curve" smooth="yes"/>
      <point x="131" y="695"/>
      <point x="115" y="668"/>
      <point x="115" y="644" type="curve" smooth="yes"/>
      <point x="114" y="339" type="line"/>
      <point x="117" y="-29" type="line" smooth="yes"/>
      <point x="117" y="-57"/>
      <point x="141" y="-80"/>
      <point x="169" y="-80" type="curve" smooth="yes"/>
      <point x="208" y="-80"/>
      <point x="220" y="-50"/>
      <point x="220" y="-16" type="curve" smooth="yes"/>
      <point x="218" y="621" type="line" smooth="yes"/>
    </contour>
  </outline>
</glyph>
<glyph name="dieresis" format="1">
  <advance width="631"/>
  <unicode hex="00A8"/>
  <outline>
    <contour>
      <point x="105" y="984"/>
      <point x="125" y="954"/>
      <point x="164" y="954" type="curve" smooth="yes"/>
      <point x="203" y="954"/>
      <point x="246" y="984"/>
      <point x="246" y="1026" type="curve" smooth="yes"/>
      <point x="246" y="1065"/>
      <point x="213" y="1095"/>
      <point x="175" y="1095" type="curve" smooth="yes"/>
      <point x="134" y="1095"/>
      <point x="105" y="1061"/>
      <point x="105" y="1021" type="curve" smooth="yes"/>
    </contour>
    <contour>
      <point x="419" y="1098"/>
      <point x="385" y="1062"/>
      <point x="385" y="1023" type="curve" smooth="yes"/>
      <point x="385" y="988"/>
      <point x="413" y="954"/>
      <point x="449" y="954" type="curve" smooth="yes"/>
      <point x="489" y="954"/>
      <point x="526" y="983"/>
      <point x="526" y="1025" type="curve" smooth="yes"/>
      <point x="526" y="1061"/>
      <point x="495" y="1098"/>
      <point x="458" y="1098" type="curve" smooth="yes"/>
    </contour>
    <contour>
      <point x="315.5" y="0" type="move" name="_top"/>
    </contour>
  </outline>
</glyph>
<glyph name="copyright" format="1">
  <advance width="1207"/>
  <unicode hex="00A9"/>
  <outline>
    <contour>
      <point x="148" y="1812"/>
      <point x="98" y="1208"/>
      <point x="98" y="924" type="curve" smooth="yes"/>
      <point x="98" y="836"/>
      <point x="105" y="748"/>
      <point x="110" y="660" type="curve" smooth="yes"/>
      <point x="130" y="311"/>
      <point x="143" y="-20"/>
      <point x="588" y="-20" type="curve" smooth="yes"/>
      <point x="1028" y="-20"/>
      <point x="1111" y="403"/>
      <point x="1111" y="757" type="curve" smooth="yes"/>
      <point x="1111" y="1105"/>
      <point x="1001" y="1812"/>
      <point x="539" y="1812" type="curve" smooth="yes"/>
    </contour>
    <contour>
      <point x="215" y="940" type="line"/>
      <point x="215" y="1160"/>
      <point x="257" y="1713"/>
      <point x="563" y="1713" type="curve" smooth="yes"/>
      <point x="608" y="1713"/>
      <point x="647" y="1683"/>
      <point x="681" y="1658" type="curve" smooth="yes"/>
      <point x="860" y="1528"/>
      <point x="919" y="1328"/>
      <point x="958" y="1121" type="curve" smooth="yes"/>
      <point x="972" y="1046"/>
      <point x="997" y="971"/>
      <point x="997" y="894" type="curve" smooth="yes"/>
      <point x="997" y="589" type="line" smooth="yes"/>
      <point x="997" y="558"/>
      <point x="973" y="516"/>
      <point x="973" y="483" type="curve" smooth="yes"/>
      <point x="973" y="476"/>
      <point x="974" y="470"/>
      <point x="976" y="464" type="curve"/>
      <point x="921" y="234"/>
      <point x="819" y="81"/>
      <point x="562" y="81" type="curve" smooth="yes"/>
      <point x="261" y="81"/>
      <point x="249" y="366"/>
      <point x="235" y="595" type="curve" smooth="yes"/>
      <point x="228" y="710"/>
      <point x="216" y="825"/>
      <point x="216" y="940" type="curve"/>
    </contour>
    <contour>
      <point x="441" y="911" type="line"/>
      <point x="437" y="921" type="line"/>
      <point x="449" y="1026"/>
      <point x="450" y="1387"/>
      <point x="603" y="1387" type="curve" smooth="yes"/>
      <point x="693" y="1387"/>
      <point x="685" y="1223"/>
      <point x="785" y="1223" type="curve" smooth="yes"/>
      <point x="814" y="1223"/>
      <point x="835" y="1247"/>
      <point x="835" y="1275" type="curve" smooth="yes"/>
      <point x="835" y="1380"/>
      <point x="696" y="1499"/>
      <point x="594" y="1499" type="curve" smooth="yes"/>
      <point x="314" y="1499"/>
      <point x="311" y="1028"/>
      <point x="311" y="825" type="curve" smooth="yes"/>
      <point x="311" y="813" type="line" smooth="yes"/>
      <point x="311" y="570"/>
      <point x="324" y="504"/>
      <point x="436" y="291" type="curve"/>
      <point x="500" y="265"/>
      <point x="557" y="225"/>
      <point x="628" y="225" type="curve" smooth="yes"/>
      <point x="702" y="225"/>
      <point x="854" y="283"/>
      <point x="854" y="372" type="curve" smooth="yes"/>
      <point x="854" y="404"/>
      <point x="837" y="440"/>
      <point x="800" y="440" type="curve" smooth="yes"/>
      <point x="734" y="440"/>
      <point x="716" y="332"/>
      <point x="618" y="332" type="curve" smooth="yes"/>
      <point x="444" y="332"/>
      <point x="431" y="629"/>
      <point x="431" y="758" type="curve" smooth="yes"/>
      <point x="431" y="809" type="line" smooth="yes"/>
      <point x="431" y="844"/>
      <point x="432" y="878"/>
      <point x="440" y="911" type="curve"/>
    </contour>
  </outline>
</glyph>
<glyph name="guillemotleft" format="1">
  <advance width="681"/>
  <unicode hex="00AB"/>
  <outline>
    <contour>
      <point x="687" y="-22"/>
      <point x="702" y="19"/>
      <point x="704" y="49" type="curve"/>
      <point x="678" y="69" type="line"/>
      <point x="641" y="135"/>
      <point x="367" y="679"/>
      <point x="367" y="702" type="curve" smooth="yes"/>
      <point x="367" y="869"/>
      <point x="598" y="1193"/>
      <point x="625" y="1411" type="curve"/>
      <point x="580" y="1446" type="line"/>
      <point x="577" y="1446"/>
      <point x="575" y="1447"/>
      <point x="573" y="1447" type="curve" smooth="yes"/>
      <point x="512" y="1447"/>
      <point x="485" y="1293"/>
      <point x="474" y="1255" type="curve" smooth="yes"/>
      <point x="436" y="1125"/>
      <point x="253" y="798"/>
      <point x="250" y="698" type="curve"/>
      <point x="290" y="612"/>
      <point x="578" y="-8"/>
      <point x="610" y="-18" type="curve" smooth="yes"/>
      <point x="622" y="-22"/>
      <point x="638" y="-22"/>
      <point x="650" y="-22" type="curve" smooth="yes"/>
    </contour>
    <contour>
      <point x="210" y="929"/>
      <point x="283" y="1193"/>
      <point x="390" y="1440" type="curve"/>
      <point x="388" y="1473"/>
      <point x="355" y="1489"/>
      <point x="326" y="1489" type="curve" smooth="yes"/>
      <point x="320" y="1489"/>
      <point x="313" y="1486"/>
      <point x="307" y="1485" type="curve"/>
      <point x="307" y="1483" type="line"/>
      <point x="282" y="1456"/>
      <point x="250" y="1398"/>
      <point x="246" y="1361" type="curve"/>
      <point x="208" y="1261"/>
      <point x="-15" y="749"/>
      <point x="-15" y="697" type="curve" smooth="yes"/>
      <point x="-15" y="607"/>
      <point x="344" y="-59"/>
      <point x="389" y="-59" type="curve" smooth="yes"/>
      <point x="415" y="-59"/>
      <point x="453" y="-45"/>
      <point x="453" y="-13" type="curve" smooth="yes"/>
      <point x="453" y="65"/>
      <point x="129" y="526"/>
      <point x="96" y="687" type="curve"/>
    </contour>
  </outline>
</glyph>
<glyph name="logicalnot" format="1">
  <advance width="467"/>
  <unicode hex="00AC"/>
  <outline>
    <contour>
      <point x="404" y="733"/>
      <point x="217" y="711"/>
      <point x="30" y="711" type="curve" smooth="yes"/>
      <point x="2" y="711"/>
      <point x="-21" y="735"/>
      <point x="-21" y="763" type="curve" smooth="yes"/>
      <point x="-21" y="822"/>
      <point x="90" y="835"/>
      <point x="197" y="835" type="curve" smooth="yes"/>
      <point x="276" y="835"/>
      <point x="352" y="828"/>
      <point x="380" y="828" type="curve" smooth="yes"/>
      <point x="492" y="828"/>
      <point x="603" y="848"/>
      <point x="715" y="848" type="curve" smooth="yes"/>
      <point x="747" y="848"/>
      <point x="782" y="824"/>
      <point x="782" y="790" type="curve" smooth="yes"/>
      <point x="782" y="766"/>
      <point x="775" y="741"/>
      <point x="763" y="720" type="curve"/>
      <point x="763" y="658"/>
      <point x="768" y="596"/>
      <point x="787" y="537" type="curve"/>
      <point x="783" y="509"/>
      <point x="765" y="475"/>
      <point x="733" y="475" type="curve" smooth="yes"/>
      <point x="679" y="475"/>
      <point x="670" y="536"/>
      <point x="670" y="592" type="curve" smooth="yes"/>
      <point x="670" y="618"/>
      <point x="672" y="643"/>
      <point x="672" y="659" type="curve" smooth="yes"/>
      <point x="672" y="682"/>
      <point x="671" y="705"/>
      <point x="667" y="727" type="curve"/>
      <point x="642" y="728"/>
      <point x="616" y="733"/>
      <point x="591" y="733" type="curve" smooth="yes"/>
    </contour>
  </outline>
</glyph>
<glyph name="uni00AD" format="1">
  <advance width="646"/>
  <unicode hex="00AD"/>
  <outline>
    <contour>
      <point x="227" y="656"/>
      <point x="544" y="666"/>
      <point x="544" y="739" type="curve" smooth="yes"/>
      <point x="544" y="775"/>
      <point x="509" y="798"/>
      <point x="476" y="798" type="curve" smooth="yes"/>
      <point x="419" y="798"/>
      <point x="102" y="787"/>
      <point x="102" y="715" type="curve" smooth="yes"/>
      <point x="102" y="680"/>
      <point x="136" y="656"/>
      <point x="169" y="656" type="curve" smooth="yes"/>
    </contour>
  </outline>
</glyph>
<glyph name="registered" format="1">
  <advance width="1216"/>
  <unicode hex="00AE"/>
  <outline>
    <contour>
      <point x="102" y="358"/>
      <point x="135" y="-190"/>
      <point x="636" y="-190" type="curve" smooth="yes"/>
      <point x="1113" y="-190"/>
      <point x="1114" y="470"/>
      <point x="1114" y="807" type="curve" smooth="yes"/>
      <point x="1114" y="968"/>
      <point x="1066" y="1679"/>
      <point x="942" y="1755" type="curve"/>
      <point x="871" y="1851"/>
      <point x="757" y="1938"/>
      <point x="632" y="1938" type="curve" smooth="yes"/>
      <point x="136" y="1938"/>
      <point x="102" y="1292"/>
      <point x="102" y="917" type="curve" smooth="yes"/>
      <point x="102" y="757" type="line" smooth="yes"/>
    </contour>
    <contour>
      <point x="716" y="1832"/>
      <point x="844" y="1716"/>
      <point x="874" y="1655" type="curve" smooth="yes"/>
      <point x="991" y="1416"/>
      <point x="1001" y="1136"/>
      <point x="1001" y="866" type="curve" smooth="yes"/>
      <point x="1001" y="812"/>
      <point x="1000" y="759"/>
      <point x="1000" y="706" type="curve" smooth="yes"/>
      <point x="1000" y="396"/>
      <point x="981" y="-79"/>
      <point x="564" y="-84" type="curve"/>
      <point x="545" y="-76" type="line"/>
      <point x="485" y="-64" type="line"/>
      <point x="444" y="-31"/>
      <point x="398" y="-13"/>
      <point x="362" y="27" type="curve" smooth="yes"/>
      <point x="224" y="179"/>
      <point x="222" y="747"/>
      <point x="222" y="954" type="curve" smooth="yes"/>
      <point x="222" y="1241"/>
      <point x="245" y="1832"/>
      <point x="647" y="1832" type="curve" smooth="yes"/>
    </contour>
    <contour>
      <point x="861" y="143"/>
      <point x="895" y="175"/>
      <point x="895" y="199" type="curve" smooth="yes"/>
      <point x="895" y="239"/>
      <point x="865" y="271"/>
      <point x="865" y="314" type="curve"/>
      <point x="858" y="314" type="line"/>
      <point x="824" y="425"/>
      <point x="679" y="888"/>
      <point x="676" y="969" type="curve"/>
      <point x="687" y="1007"/>
      <point x="817" y="1023"/>
      <point x="817" y="1270" type="curve" smooth="yes"/>
      <point x="817" y="1433"/>
      <point x="788" y="1635"/>
      <point x="581" y="1635" type="curve" smooth="yes"/>
      <point x="447" y="1635"/>
      <point x="365" y="1603"/>
      <point x="365" y="1454" type="curve" smooth="yes"/>
      <point x="365" y="1327"/>
      <point x="390" y="1202"/>
      <point x="390" y="1075" type="curve" smooth="yes"/>
      <point x="390" y="676" type="line" smooth="yes"/>
      <point x="390" y="606"/>
      <point x="409" y="539"/>
      <point x="416" y="470" type="curve" smooth="yes"/>
      <point x="423" y="399"/>
      <point x="425" y="327"/>
      <point x="425" y="256" type="curve" smooth="yes"/>
      <point x="425" y="240"/>
      <point x="424" y="224"/>
      <point x="424" y="208" type="curve" smooth="yes"/>
      <point x="424" y="169"/>
      <point x="461" y="143"/>
      <point x="497" y="143" type="curve" smooth="yes"/>
      <point x="537" y="143"/>
      <point x="553" y="174"/>
      <point x="553" y="210" type="curve" smooth="yes"/>
      <point x="553" y="406"/>
      <point x="508" y="600"/>
      <point x="508" y="796" type="curve" smooth="yes"/>
      <point x="508" y="828"/>
      <point x="511" y="859"/>
      <point x="513" y="891" type="curve"/>
      <point x="568" y="914" type="line"/>
      <point x="614" y="797"/>
      <point x="716" y="143"/>
      <point x="838" y="143" type="curve" smooth="yes"/>
    </contour>
    <contour>
      <point x="479" y="1475"/>
      <point x="497" y="1525"/>
      <point x="587" y="1525" type="curve" smooth="yes"/>
      <point x="693" y="1525"/>
      <point x="695" y="1359"/>
      <point x="695" y="1280" type="curve" smooth="yes"/>
      <point x="695" y="1272" type="line" smooth="yes"/>
      <point x="695" y="1142"/>
      <point x="631" y="1049"/>
      <point x="510" y="1000" type="curve"/>
      <point x="488" y="1086"/>
      <point x="487" y="1175"/>
      <point x="487" y="1263" type="curve" smooth="yes"/>
      <point x="487" y="1312"/>
      <point x="479" y="1364"/>
      <point x="479" y="1407" type="curve" smooth="yes"/>
    </contour>
  </outline>
</glyph>
<glyph name="degree" format="1">
  <advance width="728"/>
  <unicode hex="00B0"/>
  <outline>
    <contour>
      <point x="192" y="970"/>
      <point x="101" y="867"/>
      <point x="101" y="731" type="curve" smooth="yes"/>
      <point x="101" y="617"/>
      <point x="143" y="438"/>
      <point x="334" y="438" type="curve" smooth="yes"/>
      <point x="579" y="438"/>
      <point x="627" y="649"/>
      <point x="627" y="733" type="curve" smooth="yes"/>
      <point x="627" y="821"/>
      <point x="570" y="970"/>
      <point x="333" y="970" type="curve" smooth="yes"/>
    </contour>
    <contour>
      <point x="178" y="773"/>
      <point x="213" y="901"/>
      <point x="343" y="901" type="curve" smooth="yes"/>
      <point x="517" y="901"/>
      <point x="559" y="792"/>
      <point x="559" y="729" type="curve" smooth="yes"/>
      <point x="559" y="668"/>
      <point x="524" y="515"/>
      <point x="342" y="515" type="curve" smooth="yes"/>
      <point x="252" y="515"/>
      <point x="178" y="607"/>
      <point x="178" y="665" type="curve" smooth="yes"/>
    </contour>
  </outline>
</glyph>
<glyph name="plusminus" format="1">
  <advance width="773"/>
  <unicode hex="00B1"/>
  <outline>
    <contour>
      <point x="118" y="246"/>
      <point x="100" y="228"/>
      <point x="100" y="200" type="curve" smooth="yes"/>
      <point x="100" y="149"/>
      <point x="137" y="135"/>
      <point x="182" y="135" type="curve" smooth="yes"/>
      <point x="325" y="135"/>
      <point x="470" y="145"/>
      <point x="614" y="145" type="curve" smooth="yes"/>
      <point x="644" y="145"/>
      <point x="672" y="158"/>
      <point x="672" y="192" type="curve" smooth="yes"/>
      <point x="672" y="246"/>
      <point x="616" y="253"/>
      <point x="574" y="253" type="curve" smooth="yes"/>
      <point x="532" y="253"/>
      <point x="490" y="246"/>
      <point x="448" y="246" type="curve" smooth="yes"/>
      <point x="146" y="246" type="line" smooth="yes"/>
    </contour>
    <contour>
      <point x="320" y="518"/>
      <point x="314" y="451"/>
      <point x="314" y="385" type="curve" smooth="yes"/>
      <point x="314" y="352"/>
      <point x="351" y="333"/>
      <point x="380" y="333" type="curve" smooth="yes"/>
      <point x="412" y="333"/>
      <point x="448" y="353"/>
      <point x="448" y="389" type="curve" smooth="yes"/>
      <point x="448" y="444"/>
      <point x="428" y="498"/>
      <point x="428" y="553" type="curve" smooth="yes"/>
      <point x="428" y="593"/>
      <point x="460" y="602"/>
      <point x="494" y="602" type="curve" smooth="yes"/>
      <point x="535" y="602"/>
      <point x="573" y="591"/>
      <point x="614" y="591" type="curve" smooth="yes"/>
      <point x="646" y="591"/>
      <point x="672" y="615"/>
      <point x="672" y="647" type="curve" smooth="yes"/>
      <point x="672" y="697"/>
      <point x="621" y="709"/>
      <point x="566" y="709" type="curve" smooth="yes"/>
      <point x="520" y="709"/>
      <point x="473" y="701"/>
      <point x="448" y="701" type="curve" smooth="yes"/>
      <point x="421" y="701"/>
      <point x="421" y="853"/>
      <point x="420" y="884" type="curve"/>
      <point x="428" y="904" type="line"/>
      <point x="428" y="909" type="line" smooth="yes"/>
      <point x="428" y="942"/>
      <point x="400" y="968"/>
      <point x="368" y="968" type="curve" smooth="yes"/>
      <point x="309" y="968"/>
      <point x="302" y="900"/>
      <point x="302" y="855" type="curve" smooth="yes"/>
      <point x="302" y="805"/>
      <point x="312" y="755"/>
      <point x="314" y="705" type="curve"/>
      <point x="298" y="702"/>
      <point x="284" y="701"/>
      <point x="268" y="701" type="curve" smooth="yes"/>
      <point x="228" y="701"/>
      <point x="186" y="708"/>
      <point x="146" y="708" type="curve" smooth="yes"/>
      <point x="117" y="708"/>
      <point x="100" y="682"/>
      <point x="100" y="655" type="curve" smooth="yes"/>
      <point x="100" y="602"/>
      <point x="141" y="590"/>
      <point x="188" y="590" type="curve" smooth="yes"/>
      <point x="228" y="590"/>
      <point x="274" y="599"/>
      <point x="302" y="599" type="curve"/>
      <point x="320" y="584" type="line"/>
    </contour>
  </outline>
</glyph>
<glyph name="acute" format="1">
  <advance width="453"/>
  <unicode hex="00B4"/>
  <outline>
    <contour>
      <point x="272" y="1528"/>
      <point x="136" y="1417"/>
      <point x="52" y="1339" type="curve" smooth="yes"/>
      <point x="44" y="1332"/>
      <point x="41" y="1325"/>
      <point x="41" y="1318" type="curve" smooth="yes"/>
      <point x="41" y="1303"/>
      <point x="57" y="1291"/>
      <point x="74" y="1291" type="curve" smooth="yes"/>
      <point x="80" y="1291"/>
      <point x="85" y="1292"/>
      <point x="91" y="1295" type="curve" smooth="yes"/>
      <point x="167" y="1335"/>
      <point x="329" y="1424"/>
      <point x="389" y="1468" type="curve" smooth="yes"/>
      <point x="399" y="1475"/>
      <point x="404" y="1487"/>
      <point x="404" y="1500" type="curve" smooth="yes"/>
      <point x="404" y="1534"/>
      <point x="371" y="1577"/>
      <point x="337" y="1577" type="curve" smooth="yes"/>
      <point x="331" y="1577"/>
      <point x="326" y="1575"/>
      <point x="320" y="1573" type="curve"/>
    </contour>
    <contour>
      <point x="222.5" y="0" type="move" name="_top"/>
    </contour>
  </outline>
</glyph>
<glyph name="uni00B5" format="1">
  <advance width="641"/>
  <unicode hex="00B5"/>
  <outline>
    <contour>
      <point x="583" y="1336"/>
      <point x="580" y="1389"/>
      <point x="520" y="1389" type="curve" smooth="yes"/>
      <point x="471" y="1389"/>
      <point x="464" y="1369"/>
      <point x="464" y="1341" type="curve" smooth="yes"/>
      <point x="464" y="1330"/>
      <point x="465" y="1319"/>
      <point x="465" y="1307" type="curve" smooth="yes"/>
      <point x="465" y="1057"/>
      <point x="453" y="808"/>
      <point x="439" y="559" type="curve"/>
      <point x="439" y="480"/>
      <point x="411" y="31"/>
      <point x="319" y="31" type="curve" smooth="yes"/>
      <point x="204" y="31"/>
      <point x="189" y="152"/>
      <point x="189" y="241" type="curve" smooth="yes"/>
      <point x="189" y="386"/>
      <point x="160" y="530"/>
      <point x="160" y="675" type="curve" smooth="yes"/>
      <point x="160" y="1232" type="line" smooth="yes"/>
      <point x="160" y="1289"/>
      <point x="146" y="1355"/>
      <point x="76" y="1355" type="curve"/>
      <point x="54" y="1306" type="line"/>
      <point x="74" y="1213"/>
      <point x="79" y="1114"/>
      <point x="79" y="1013" type="curve" smooth="yes"/>
      <point x="79" y="824"/>
      <point x="68" y="697"/>
      <point x="68" y="484" type="curve" smooth="yes"/>
      <point x="68" y="475" type="line" smooth="yes"/>
      <point x="68" y="356"/>
      <point x="75" y="215"/>
      <point x="75" y="99" type="curve" smooth="yes"/>
      <point x="75" y="-202" type="line" smooth="yes"/>
      <point x="75" y="-230"/>
      <point x="93" y="-248"/>
      <point x="121" y="-248" type="curve" smooth="yes"/>
      <point x="172" y="-248"/>
      <point x="186" y="-211"/>
      <point x="186" y="-166" type="curve" smooth="yes"/>
      <point x="186" y="-107"/>
      <point x="184" y="-48"/>
      <point x="182" y="11" type="curve"/>
      <point x="212" y="-15"/>
      <point x="250" y="-31"/>
      <point x="298" y="-31" type="curve" smooth="yes"/>
      <point x="593" y="-31"/>
      <point x="519" y="665"/>
      <point x="561" y="865" type="curve" smooth="yes"/>
      <point x="562" y="869"/>
      <point x="562" y="874"/>
      <point x="562" y="878" type="curve" smooth="yes"/>
      <point x="562" y="890"/>
      <point x="560" y="901"/>
      <point x="560" y="913" type="curve" smooth="yes"/>
      <point x="560" y="970"/>
      <point x="569" y="1027"/>
      <point x="569" y="1084" type="curve" smooth="yes"/>
      <point x="569" y="1151"/>
      <point x="583" y="1221"/>
      <point x="583" y="1290" type="curve" smooth="yes"/>
    </contour>
  </outline>
</glyph>
<glyph name="paragraph" format="1">
  <advance width="887"/>
  <unicode hex="00B6"/>
  <outline>
    <contour>
      <point x="149" y="1454" type="line"/>
      <point x="149" y="1591"/>
      <point x="259" y="1748"/>
      <point x="406" y="1748" type="curve" smooth="yes"/>
      <point x="434" y="1748"/>
      <point x="461" y="1748"/>
      <point x="488" y="1740" type="curve"/>
      <point x="486" y="1697" type="line"/>
      <point x="486" y="1531"/>
      <point x="506" y="1366"/>
      <point x="506" y="1200" type="curve"/>
      <point x="502" y="1199"/>
      <point x="495" y="1196"/>
      <point x="491" y="1196" type="curve" smooth="yes"/>
      <point x="296" y="1196"/>
      <point x="148" y="1224"/>
      <point x="148" y="1455" type="curve"/>
    </contour>
    <contour>
      <point x="794" y="1341"/>
      <point x="781" y="1540"/>
      <point x="780" y="1739" type="curve"/>
      <point x="788" y="1739"/>
      <point x="795" y="1738"/>
      <point x="803" y="1738" type="curve" smooth="yes"/>
      <point x="832" y="1738"/>
      <point x="860" y="1759"/>
      <point x="860" y="1790" type="curve" smooth="yes"/>
      <point x="860" y="1838"/>
      <point x="772" y="1852"/>
      <point x="737" y="1854" type="curve"/>
      <point x="728" y="1865" type="line"/>
      <point x="672" y="1858" type="line"/>
      <point x="673" y="1859" type="line"/>
      <point x="647" y="1864"/>
      <point x="620" y="1876"/>
      <point x="593" y="1876" type="curve" smooth="yes"/>
      <point x="570" y="1876"/>
      <point x="548" y="1871"/>
      <point x="531" y="1854" type="curve"/>
      <point x="201" y="1823"/>
      <point x="36" y="1747"/>
      <point x="36" y="1384" type="curve"/>
      <point x="45" y="1364"/>
      <point x="44" y="1342"/>
      <point x="49" y="1321" type="curve" smooth="yes"/>
      <point x="95" y="1118"/>
      <point x="333" y="1098"/>
      <point x="504" y="1098" type="curve"/>
      <point x="505" y="1053"/>
      <point x="508" y="1009"/>
      <point x="508" y="964" type="curve" smooth="yes"/>
      <point x="508" y="661"/>
      <point x="465" y="359"/>
      <point x="465" y="56" type="curve" smooth="yes"/>
      <point x="465" y="21"/>
      <point x="491" y="-8"/>
      <point x="527" y="-8" type="curve" smooth="yes"/>
      <point x="576" y="-8"/>
      <point x="586" y="21"/>
      <point x="586" y="64" type="curve" smooth="yes"/>
      <point x="586" y="370"/>
      <point x="624" y="674"/>
      <point x="624" y="980" type="curve" smooth="yes"/>
      <point x="624" y="1217"/>
      <point x="597" y="1452"/>
      <point x="597" y="1689" type="curve" smooth="yes"/>
      <point x="597" y="1700"/>
      <point x="599" y="1769"/>
      <point x="606" y="1769" type="curve" smooth="yes"/>
      <point x="658" y="1769"/>
      <point x="668" y="1731"/>
      <point x="668" y="1689" type="curve" smooth="yes"/>
      <point x="668" y="1666"/>
      <point x="665" y="1642"/>
      <point x="665" y="1623" type="curve" smooth="yes"/>
      <point x="665" y="1474"/>
      <point x="680" y="1326"/>
      <point x="680" y="1177" type="curve" smooth="yes"/>
      <point x="680" y="819"/>
      <point x="661" y="461"/>
      <point x="661" y="103" type="curve" smooth="yes"/>
      <point x="661" y="52"/>
      <point x="669" y="-20"/>
      <point x="736" y="-20" type="curve" smooth="yes"/>
      <point x="767" y="-20"/>
      <point x="794" y="4"/>
      <point x="794" y="36" type="curve" smooth="yes"/>
      <point x="794" y="113"/>
      <point x="782" y="188"/>
      <point x="782" y="265" type="curve" smooth="yes"/>
      <point x="782" y="557"/>
      <point x="794" y="850"/>
      <point x="794" y="1142" type="curve" smooth="yes"/>
    </contour>
  </outline>
</glyph>
<glyph name="periodcentered" format="1">
  <advance width="295"/>
  <unicode hex="00B7"/>
  <outline>
    <contour>
      <point x="110" y="785"/>
      <point x="74" y="747"/>
      <point x="74" y="706" type="curve" smooth="yes"/>
      <point x="74" y="669"/>
      <point x="105" y="633"/>
      <point x="143" y="633" type="curve" smooth="yes"/>
      <point x="188" y="633"/>
      <point x="224" y="661"/>
      <point x="224" y="708" type="curve" smooth="yes"/>
      <point x="224" y="746"/>
      <point x="190" y="785"/>
      <point x="151" y="785" type="curve" smooth="yes"/>
    </contour>
  </outline>
</glyph>
<glyph name="cedilla" format="1">
  <advance width="404"/>
  <unicode hex="00B8"/>
  <outline>
    <contour>
      <point x="262" y="-356"/>
      <point x="237" y="-403"/>
      <point x="185" y="-403" type="curve" smooth="yes"/>
      <point x="156" y="-403"/>
      <point x="134" y="-381"/>
      <point x="104" y="-381" type="curve" smooth="yes"/>
      <point x="80" y="-381"/>
      <point x="58" y="-400"/>
      <point x="58" y="-425" type="curve" smooth="yes"/>
      <point x="58" y="-467"/>
      <point x="129" y="-484"/>
      <point x="180" y="-484" type="curve" smooth="yes"/>
      <point x="265" y="-484"/>
      <point x="349" y="-397"/>
      <point x="349" y="-318" type="curve" smooth="yes"/>
      <point x="349" y="-216"/>
      <point x="297" y="-112"/>
      <point x="140" y="-91" type="curve"/>
      <point x="142" y="-54"/>
      <point x="146" y="-18"/>
      <point x="153" y="18" type="curve"/>
      <point x="97" y="18" type="line"/>
      <point x="91" y="-2"/>
      <point x="91" y="-20"/>
      <point x="91" y="-41" type="curve" smooth="yes"/>
      <point x="91" y="-99"/>
      <point x="82" y="-151"/>
      <point x="82" y="-207" type="curve"/>
      <point x="85" y="-218"/>
      <point x="128" y="-219"/>
      <point x="164" y="-219" type="curve" smooth="yes"/>
      <point x="228" y="-219"/>
      <point x="262" y="-264"/>
      <point x="262" y="-304" type="curve" smooth="yes"/>
    </contour>
    <contour>
      <point x="203.5" y="0" type="move" name="_bottom"/>
    </contour>
  </outline>
</glyph>
<glyph name="guillemotright" format="1">
  <advance width="682"/>
  <unicode hex="00BB"/>
  <outline>
    <contour>
      <point x="74" y="-19" type="line" smooth="yes"/>
      <point x="431" y="698" type="line"/>
      <point x="428" y="803"/>
      <point x="245" y="1123"/>
      <point x="207" y="1255" type="curve" smooth="yes"/>
      <point x="187" y="1324"/>
      <point x="185" y="1410"/>
      <point x="111" y="1444" type="curve"/>
      <point x="101" y="1446" type="line"/>
      <point x="56" y="1411" type="line"/>
      <point x="58" y="1202"/>
      <point x="313" y="908"/>
      <point x="313" y="702" type="curve" smooth="yes"/>
      <point x="313" y="680"/>
      <point x="39" y="136"/>
      <point x="3" y="69" type="curve"/>
      <point x="-22" y="49" type="line"/>
      <point x="-21" y="19"/>
      <point x="-5" y="-23"/>
      <point x="32" y="-23" type="curve" smooth="yes"/>
      <point x="45" y="-23"/>
      <point x="57" y="-19"/>
      <point x="70" y="-19" type="curve" smooth="yes"/>
    </contour>
    <contour>
      <point x="368" y="1487"/>
      <point x="361" y="1490"/>
      <point x="357" y="1490" type="curve" smooth="yes"/>
      <point x="323" y="1490"/>
      <point x="295" y="1467"/>
      <point x="292" y="1433" type="curve"/>
      <point x="441" y="1211"/>
      <point x="473" y="928"/>
      <point x="588" y="689" type="curve"/>
      <point x="554" y="528"/>
      <point x="230" y="68"/>
      <point x="230" y="-10" type="curve" smooth="yes"/>
      <point x="230" y="-43"/>
      <point x="269" y="-56"/>
      <point x="295" y="-56" type="curve" smooth="yes"/>
      <point x="339" y="-56"/>
      <point x="698" y="610"/>
      <point x="698" y="700" type="curve" smooth="yes"/>
      <point x="698" y="751"/>
      <point x="476" y="1264"/>
      <point x="438" y="1363" type="curve"/>
      <point x="433" y="1402"/>
      <point x="404" y="1457"/>
      <point x="376" y="1485" type="curve"/>
      <point x="375" y="1484" type="line"/>
      <point x="375" y="1486" type="line"/>
      <point x="372" y="1486" type="line"/>
    </contour>
  </outline>
</glyph>
<glyph name="AE" format="1">
  <advance width="879"/>
  <unicode hex="00C6"/>
  <outline>
    <contour>
      <point x="461" y="1004"/>
      <point x="455" y="855"/>
      <point x="453" y="706" type="curve"/>
      <point x="403" y="695"/>
      <point x="351" y="691"/>
      <point x="300" y="688" type="curve"/>
      <point x="342" y="889"/>
      <point x="400" y="1087"/>
      <point x="459" y="1283" type="curve"/>
      <point x="461" y="1240"/>
      <point x="461" y="1196"/>
      <point x="461" y="1153" type="curve" smooth="yes"/>
    </contour>
    <contour>
      <point x="448" y="2" type="line"/>
      <point x="493" y="-43" type="line"/>
      <point x="522" y="-38"/>
      <point x="544" y="-12"/>
      <point x="574" y="-12" type="curve" smooth="yes"/>
      <point x="606" y="-12" type="line" smooth="yes"/>
      <point x="686" y="-12"/>
      <point x="850" y="-8"/>
      <point x="850" y="53" type="curve" smooth="yes"/>
      <point x="850" y="87"/>
      <point x="811" y="103"/>
      <point x="782" y="103" type="curve" smooth="yes"/>
      <point x="706" y="103"/>
      <point x="631" y="83"/>
      <point x="555" y="82" type="curve"/>
      <point x="555" y="262"/>
      <point x="550" y="442"/>
      <point x="549" y="622" type="curve"/>
      <point x="628" y="621" type="line" smooth="yes"/>
      <point x="637" y="621" type="line" smooth="yes"/>
      <point x="683" y="621"/>
      <point x="750" y="629"/>
      <point x="750" y="687" type="curve"/>
      <point x="708" y="735" type="line"/>
      <point x="698" y="735" type="line" smooth="yes"/>
      <point x="648" y="735"/>
      <point x="600" y="720"/>
      <point x="550" y="716" type="curve"/>
      <point x="550" y="866"/>
      <point x="556" y="1016"/>
      <point x="556" y="1166" type="curve" smooth="yes"/>
      <point x="556" y="1258"/>
      <point x="544" y="1349"/>
      <point x="542" y="1440" type="curve"/>
      <point x="606" y="1447"/>
      <point x="671" y="1450"/>
      <point x="736" y="1450" type="curve"/>
      <point x="757" y="1492" type="line"/>
      <point x="757" y="1498" type="line" smooth="yes"/>
      <point x="757" y="1546"/>
      <point x="707" y="1554"/>
      <point x="670" y="1554" type="curve" smooth="yes"/>
      <point x="617" y="1554"/>
      <point x="565" y="1544"/>
      <point x="512" y="1544" type="curve" smooth="yes"/>
      <point x="435" y="1544"/>
      <point x="413" y="1437"/>
      <point x="396" y="1380" type="curve" smooth="yes"/>
      <point x="310" y="1103"/>
      <point x="44" y="288"/>
      <point x="44" y="48" type="curve" smooth="yes"/>
      <point x="44" y="27"/>
      <point x="61" y="1"/>
      <point x="84" y="1" type="curve" smooth="yes"/>
      <point x="151" y="1"/>
      <point x="166" y="178"/>
      <point x="179" y="226" type="curve" smooth="yes"/>
      <point x="280" y="611" type="line"/>
      <point x="337" y="630"/>
      <point x="398" y="628"/>
      <point x="457" y="633" type="curve"/>
      <point x="457" y="506"/>
      <point x="467" y="380"/>
      <point x="467" y="253" type="curve" smooth="yes"/>
      <point x="467" y="169"/>
      <point x="458" y="86"/>
      <point x="450" y="3" type="curve"/>
    </contour>
    <contour>
      <point x="440" y="0" type="move" name="top"/>
    </contour>
  </outline>
</glyph>
<glyph name="Eth" format="1">
  <advance width="810"/>
  <unicode hex="00D0"/>
  <outline>
    <contour>
      <point x="68" y="14"/>
      <point x="126" y="-5"/>
      <point x="168" y="-5" type="curve" smooth="yes"/>
      <point x="419" y="-5"/>
      <point x="593" y="503"/>
      <point x="593" y="711" type="curve" smooth="yes"/>
      <point x="593" y="733"/>
      <point x="582" y="754"/>
      <point x="593" y="773" type="curve"/>
      <point x="593" y="868" type="line" smooth="yes"/>
      <point x="593" y="1023"/>
      <point x="587" y="1552"/>
      <point x="224" y="1552" type="curve" smooth="yes"/>
      <point x="193" y="1552" type="line" smooth="yes"/>
      <point x="135" y="1552"/>
      <point x="36" y="1548"/>
      <point x="36" y="1481" type="curve" smooth="yes"/>
      <point x="36" y="1400"/>
      <point x="81" y="1308"/>
      <point x="81" y="1206" type="curve" smooth="yes"/>
      <point x="81" y="1131"/>
      <point x="75" y="1055"/>
      <point x="75" y="982" type="curve" smooth="yes"/>
      <point x="75" y="959"/>
      <point x="75" y="937"/>
      <point x="76" y="914" type="curve"/>
      <point x="34" y="914"/>
      <point x="-44" y="906"/>
      <point x="-44" y="854" type="curve" smooth="yes"/>
      <point x="-44" y="824"/>
      <point x="-25" y="795"/>
      <point x="8" y="795" type="curve" smooth="yes"/>
      <point x="33" y="795"/>
      <point x="58" y="798"/>
      <point x="82" y="802" type="curve"/>
      <point x="93" y="637"/>
      <point x="113" y="472"/>
      <point x="113" y="306" type="curve" smooth="yes"/>
      <point x="113" y="244"/>
      <point x="113" y="112"/>
      <point x="68" y="65" type="curve"/>
    </contour>
    <contour>
      <point x="211" y="478"/>
      <point x="201" y="646"/>
      <point x="190" y="814" type="curve"/>
      <point x="253" y="818"/>
      <point x="317" y="819"/>
      <point x="380" y="819" type="curve"/>
      <point x="414" y="860" type="line"/>
      <point x="412" y="896"/>
      <point x="389" y="940"/>
      <point x="347" y="940" type="curve" smooth="yes"/>
      <point x="292" y="940"/>
      <point x="238" y="931"/>
      <point x="183" y="924" type="curve"/>
      <point x="172" y="1091"/>
      <point x="162" y="1259"/>
      <point x="162" y="1427" type="curve" smooth="yes"/>
      <point x="162" y="1429" type="line"/>
      <point x="444" y="1429"/>
      <point x="488" y="1061"/>
      <point x="488" y="854" type="curve" smooth="yes"/>
      <point x="488" y="615"/>
      <point x="428" y="254"/>
      <point x="211" y="114" type="curve"/>
      <point x="211" y="310" type="line" smooth="yes"/>
    </contour>
  </outline>
</glyph>
<glyph name="multiply" format="1">
  <advance width="684"/>
  <unicode hex="00D7"/>
  <outline>
    <contour>
      <point x="348" y="557"/>
      <point x="456" y="434"/>
      <point x="479" y="412" type="curve"/>
      <point x="512" y="399" type="line"/>
      <point x="550" y="399"/>
      <point x="585" y="435"/>
      <point x="585" y="473" type="curve" smooth="yes"/>
      <point x="585" y="539"/>
      <point x="426" y="583"/>
      <point x="426" y="643" type="curve" smooth="yes"/>
      <point x="426" y="707"/>
      <point x="564" y="745"/>
      <point x="564" y="811" type="curve" smooth="yes"/>
      <point x="564" y="839"/>
      <point x="538" y="866"/>
      <point x="510" y="866" type="curve" smooth="yes"/>
      <point x="435" y="866"/>
      <point x="393" y="750"/>
      <point x="337" y="721" type="curve"/>
      <point x="305" y="748"/>
      <point x="174" y="880"/>
      <point x="148" y="880" type="curve" smooth="yes"/>
      <point x="118" y="880"/>
      <point x="88" y="854"/>
      <point x="88" y="823" type="curve" smooth="yes"/>
      <point x="88" y="755"/>
      <point x="207" y="681"/>
      <point x="253" y="638" type="curve"/>
      <point x="227" y="601"/>
      <point x="119" y="528"/>
      <point x="119" y="490" type="curve" smooth="yes"/>
      <point x="119" y="460"/>
      <point x="151" y="430"/>
      <point x="181" y="430" type="curve" smooth="yes"/>
      <point x="247" y="430"/>
      <point x="307" y="560"/>
      <point x="333" y="562" type="curve"/>
    </contour>
  </outline>
</glyph>
<glyph name="Thorn" format="1">
  <advance width="495"/>
  <unicode hex="00DE"/>
  <outline>
    <contour>
      <point x="313" y="1147"/>
      <point x="337" y="1117"/>
      <point x="337" y="948" type="curve" smooth="yes"/>
      <point x="337" y="804"/>
      <point x="286" y="699"/>
      <point x="182" y="601" type="curve"/>
      <point x="182" y="817"/>
      <point x="178" y="1033"/>
      <point x="178" y="1249" type="curve"/>
      <point x="184" y="1249" type="line"/>
    </contour>
    <contour>
      <point x="64" y="1297" type="line"/>
      <point x="64" y="884"/>
      <point x="86" y="471"/>
      <point x="86" y="58" type="curve" smooth="yes"/>
      <point x="86" y="29"/>
      <point x="99" y="-11"/>
      <point x="135" y="-11" type="curve" smooth="yes"/>
      <point x="186" y="-11"/>
      <point x="203" y="29"/>
      <point x="203" y="74" type="curve" smooth="yes"/>
      <point x="203" y="217"/>
      <point x="188" y="359"/>
      <point x="187" y="502" type="curve"/>
      <point x="361" y="595"/>
      <point x="443" y="773"/>
      <point x="443" y="965" type="curve" smooth="yes"/>
      <point x="443" y="1128"/>
      <point x="362" y="1327"/>
      <point x="181" y="1353" type="curve"/>
      <point x="181" y="1370"/>
      <point x="183" y="1396"/>
      <point x="183" y="1424" type="curve" smooth="yes"/>
      <point x="183" y="1483"/>
      <point x="173" y="1548"/>
      <point x="113" y="1548" type="curve" smooth="yes"/>
      <point x="74" y="1548"/>
      <point x="62" y="1522"/>
      <point x="62" y="1487" type="curve" smooth="yes"/>
    </contour>
  </outline>
</glyph>
<glyph name="germandbls" format="1">
  <advance width="576"/>
  <unicode hex="00DF"/>
  <outline>
    <contour>
      <point x="327" y="45"/>
      <point x="334" y="48"/>
      <point x="338" y="49" type="curve"/>
      <point x="457" y="143"/>
      <point x="520" y="294"/>
      <point x="520" y="444" type="curve" smooth="yes"/>
      <point x="520" y="635"/>
      <point x="488" y="744"/>
      <point x="335" y="859" type="curve"/>
      <point x="407" y="977"/>
      <point x="461" y="1109"/>
      <point x="461" y="1249" type="curve" smooth="yes"/>
      <point x="461" y="1367"/>
      <point x="428" y="1585"/>
      <point x="271" y="1585" type="curve" smooth="yes"/>
      <point x="105" y="1585"/>
      <point x="73" y="1375"/>
      <point x="73" y="1249" type="curve" smooth="yes"/>
      <point x="73" y="1012"/>
      <point x="88" y="775"/>
      <point x="88" y="538" type="curve" smooth="yes"/>
      <point x="88" y="360"/>
      <point x="78" y="182"/>
      <point x="78" y="4" type="curve" smooth="yes"/>
      <point x="78" y="-37"/>
      <point x="103" y="-47"/>
      <point x="138" y="-47" type="curve" smooth="yes"/>
      <point x="195" y="-47"/>
      <point x="204" y="-2"/>
      <point x="204" y="46" type="curve" smooth="yes"/>
      <point x="204" y="463"/>
      <point x="173" y="878"/>
      <point x="173" y="1294" type="curve" smooth="yes"/>
      <point x="173" y="1350"/>
      <point x="193" y="1473"/>
      <point x="271" y="1473" type="curve" smooth="yes"/>
      <point x="340" y="1473"/>
      <point x="361" y="1321"/>
      <point x="361" y="1274" type="curve" smooth="yes"/>
      <point x="361" y="1106"/>
      <point x="243" y="898"/>
      <point x="243" y="854" type="curve" smooth="yes"/>
      <point x="243" y="776"/>
      <point x="421" y="789"/>
      <point x="421" y="409" type="curve" smooth="yes"/>
      <point x="421" y="240"/>
      <point x="274" y="134"/>
      <point x="274" y="81" type="curve" smooth="yes"/>
      <point x="274" y="57"/>
      <point x="304" y="45"/>
      <point x="323" y="45" type="curve" smooth="yes"/>
    </contour>
  </outline>
</glyph>
<glyph name="oslash" format="1">
  <advance width="741"/>
  <unicode hex="00F8"/>
  <outline>
    <contour>
      <point x="191.708" y="-226.956" type="line"/>
      <point x="242" y="-274" type="line"/>
      <point x="286.357" y="-17.1406" type="line"/>
      <point x="310.141" y="-30.71"/>
      <point x="336.803" y="-38"/>
      <point x="367" y="-38" type="curve" smooth="yes"/>
      <point x="625" y="-38"/>
      <point x="640" y="368"/>
      <point x="640" y="551" type="curve" smooth="yes"/>
      <point x="640" y="628"/>
      <point x="636" y="706"/>
      <point x="636" y="783" type="curve" smooth="yes"/>
      <point x="636" y="798" type="line" smooth="yes"/>
      <point x="636" y="1007.56"/>
      <point x="594.659" y="1194.25"/>
      <point x="483.396" y="1296.25" type="curve"/>
      <point x="523" y="1560" type="line"/>
      <point x="462" y="1560" type="line"/>
      <point x="425.764" y="1337.75" type="line"/>
      <point x="378.757" y="1363.69"/>
      <point x="322.582" y="1378"/>
      <point x="256" y="1378" type="curve" smooth="yes"/>
      <point x="101" y="1378"/>
      <point x="102" y="860"/>
      <point x="102" y="751" type="curve" smooth="yes"/>
      <point x="102" y="714" type="line"/>
      <point x="104" y="714"/>
      <point x="105" y="711"/>
      <point x="105" y="704" type="curve" smooth="yes"/>
      <point x="105" y="677"/>
      <point x="103" y="658"/>
      <point x="103" y="626" type="curve" smooth="yes"/>
      <point x="103" y="462.525"/>
      <point x="120.757" y="166.164"/>
      <point x="230.398" y="31.6963" type="curve"/>
    </contour>
    <contour>
      <point x="336.833" y="47"/>
      <point x="318.032" y="62.4893"/>
      <point x="302.09" y="88.8125" type="curve"/>
      <point x="467.671" y="1191.52" type="line"/>
      <point x="489.35" y="1157.89"/>
      <point x="501.721" y="1117.08"/>
      <point x="503" y="1077" type="curve"/>
      <point x="503" y="1041" type="line"/>
      <point x="504" y="882"/>
      <point x="530" y="723"/>
      <point x="530" y="564" type="curve" smooth="yes"/>
      <point x="530" y="454"/>
      <point x="516" y="47"/>
      <point x="359" y="47" type="curve" smooth="yes"/>
    </contour>
    <contour>
      <point x="257.804" y="214.906" type="line"/>
      <point x="218.578" y="390.545"/>
      <point x="214" y="649.908"/>
      <point x="214" y="717" type="curve" smooth="yes"/>
      <point x="214" y="780"/>
      <point x="224" y="843"/>
      <point x="224" y="906" type="curve" smooth="yes"/>
      <point x="224" y="937"/>
      <point x="222" y="981"/>
      <point x="222" y="1027" type="curve" smooth="yes"/>
      <point x="222" y="1141"/>
      <point x="236" y="1269"/>
      <point x="334" y="1269" type="curve" smooth="yes"/>
      <point x="363.405" y="1269"/>
      <point x="389.652" y="1260.86"/>
      <point x="412.19" y="1247.01" type="curve"/>
    </contour>
    <contour>
      <point x="371" y="0" type="move" name="top"/>
    </contour>
  </outline>
</glyph>
<glyph name="thorn" format="1">
  <advance width="495"/>
  <unicode hex="00FE"/>
  <outline>
    <contour>
      <point x="313" y="1027"/>
      <point x="337" y="998"/>
      <point x="337" y="828" type="curve" smooth="yes"/>
      <point x="337" y="710"/>
      <point x="276" y="635"/>
      <point x="182" y="571" type="curve"/>
      <point x="182" y="757"/>
      <point x="178" y="943"/>
      <point x="178" y="1129" type="curve"/>
      <point x="184" y="1129" type="line"/>
    </contour>
    <contour>
      <point x="64" y="1178" type="line"/>
      <point x="64" y="805"/>
      <point x="86" y="432"/>
      <point x="86" y="58" type="curve" smooth="yes"/>
      <point x="86" y="28"/>
      <point x="99" y="-11"/>
      <point x="135" y="-11" type="curve" smooth="yes"/>
      <point x="186" y="-11"/>
      <point x="203" y="29"/>
      <point x="203" y="74" type="curve" smooth="yes"/>
      <point x="203" y="207"/>
      <point x="188" y="339"/>
      <point x="187" y="472" type="curve"/>
      <point x="345" y="540"/>
      <point x="443" y="670"/>
      <point x="443" y="845" type="curve" smooth="yes"/>
      <point x="443" y="1008"/>
      <point x="362" y="1207"/>
      <point x="181" y="1233" type="curve"/>
      <point x="181" y="1258"/>
      <point x="188" y="1318"/>
      <point x="188" y="1380" type="curve" smooth="yes"/>
      <point x="188" y="1463"/>
      <point x="175" y="1548"/>
      <point x="113" y="1548" type="curve" smooth="yes"/>
      <point x="74" y="1548"/>
      <point x="62" y="1522"/>
      <point x="62" y="1487" type="curve" smooth="yes"/>
    </contour>
  </outline>
</glyph>
<glyph name="dcroat" format="1">
  <advance width="610"/>
  <unicode hex="0111"/>
  <outline>
    <contour>
      <point x="55" y="1184"/>
      <point x="79" y="1027"/>
      <point x="79" y="901" type="curve" smooth="yes"/>
      <point x="79" y="835"/>
      <point x="103" y="751"/>
      <point x="31" y="751" type="curve" smooth="yes"/>
      <point x="2" y="751"/>
      <point x="-59" y="748"/>
      <point x="-59" y="707" type="curve" smooth="yes"/>
      <point x="-59" y="685"/>
      <point x="3" y="676"/>
      <point x="77" y="673" type="curve"/>
      <point x="75" y="534"/>
      <point x="73" y="257"/>
      <point x="73" y="256" type="curve" smooth="yes"/>
      <point x="73" y="190"/>
      <point x="75" y="-12"/>
      <point x="125" y="-12" type="curve" smooth="yes"/>
      <point x="273" y="-12" type="line"/>
      <point x="526" y="119"/>
      <point x="542" y="340"/>
      <point x="542" y="592" type="curve" smooth="yes"/>
      <point x="542" y="705" type="line" smooth="yes"/>
      <point x="542" y="741"/>
      <point x="546" y="778"/>
      <point x="546" y="808" type="curve" smooth="yes"/>
      <point x="546" y="1054"/>
      <point x="377" y="1353"/>
      <point x="127" y="1353" type="curve" smooth="yes"/>
      <point x="93" y="1353"/>
      <point x="55" y="1322"/>
      <point x="55" y="1286" type="curve" smooth="yes"/>
    </contour>
    <contour>
      <point x="333" y="743"/>
      <point x="262" y="754"/>
      <point x="193" y="755" type="curve"/>
      <point x="189" y="852"/>
      <point x="185" y="948"/>
      <point x="185" y="1045" type="curve" smooth="yes"/>
      <point x="185" y="1116"/>
      <point x="187" y="1188"/>
      <point x="200" y="1258" type="curve"/>
      <point x="432" y="1231"/>
      <point x="438" y="784"/>
      <point x="438" y="612" type="curve" smooth="yes"/>
      <point x="438" y="480"/>
      <point x="420" y="92"/>
      <point x="216" y="92" type="curve"/>
      <point x="216" y="141" type="line" smooth="yes"/>
      <point x="216" y="318"/>
      <point x="205" y="495"/>
      <point x="196" y="672" type="curve"/>
      <point x="229" y="673"/>
      <point x="257" y="676"/>
      <point x="267" y="676" type="curve" smooth="yes"/>
      <point x="297" y="676"/>
      <point x="333" y="680"/>
      <point x="333" y="701" type="curve" smooth="yes"/>
    </contour>
  </outline>
</glyph>
<glyph name="Hbar" format="1">
  <advance width="560"/>
  <unicode hex="0126"/>
  <outline>
    <contour>
      <point x="192" y="1262"/>
      <point x="232" y="1265"/>
      <point x="271" y="1265" type="curve" smooth="yes"/>
      <point x="301" y="1265"/>
      <point x="331" y="1265"/>
      <point x="355" y="1266" type="curve"/>
      <point x="360" y="1119"/>
      <point x="368" y="971"/>
      <point x="369" y="824" type="curve"/>
      <point x="302" y="822"/>
      <point x="237" y="811"/>
      <point x="170" y="809" type="curve"/>
      <point x="167" y="827"/>
      <point x="166" y="844"/>
      <point x="166" y="862" type="curve" smooth="yes"/>
      <point x="166" y="888"/>
      <point x="168" y="914"/>
      <point x="168" y="939" type="curve" smooth="yes"/>
      <point x="168" y="1046"/>
      <point x="160" y="1153"/>
      <point x="156" y="1261" type="curve"/>
    </contour>
    <contour>
      <point x="351" y="1496" type="line"/>
      <point x="351" y="1443"/>
      <point x="351" y="1390"/>
      <point x="353" y="1337" type="curve"/>
      <point x="328" y="1338"/>
      <point x="302" y="1339"/>
      <point x="277" y="1339" type="curve" smooth="yes"/>
      <point x="227" y="1339"/>
      <point x="182" y="1336"/>
      <point x="154" y="1335" type="curve"/>
      <point x="154" y="1360" type="line" smooth="yes"/>
      <point x="154" y="1411"/>
      <point x="161" y="1467"/>
      <point x="161" y="1515" type="curve" smooth="yes"/>
      <point x="161" y="1536"/>
      <point x="128" y="1554"/>
      <point x="108" y="1554" type="curve" smooth="yes"/>
      <point x="92" y="1554"/>
      <point x="53" y="1540"/>
      <point x="53" y="1520" type="curve" smooth="yes"/>
      <point x="53" y="1453"/>
      <point x="54" y="1385"/>
      <point x="56" y="1318" type="curve"/>
      <point x="48" y="1311"/>
      <point x="43" y="1303"/>
      <point x="43" y="1291" type="curve" smooth="yes"/>
      <point x="43" y="1281"/>
      <point x="48" y="1274"/>
      <point x="57" y="1269" type="curve"/>
      <point x="62" y="1046"/>
      <point x="75" y="824"/>
      <point x="91" y="602" type="curve" smooth="yes"/>
      <point x="97" y="514"/>
      <point x="90" y="83"/>
      <point x="115" y="41" type="curve" smooth="yes"/>
      <point x="130" y="16"/>
      <point x="141" y="5"/>
      <point x="171" y="5" type="curve" smooth="yes"/>
      <point x="199" y="5"/>
      <point x="215" y="34"/>
      <point x="215" y="59" type="curve" smooth="yes"/>
      <point x="215" y="291"/>
      <point x="182" y="521"/>
      <point x="181" y="753" type="curve"/>
      <point x="219" y="769"/>
      <point x="261" y="769"/>
      <point x="302" y="769" type="curve" smooth="yes"/>
      <point x="325" y="769"/>
      <point x="348" y="763"/>
      <point x="370" y="759" type="curve"/>
      <point x="383" y="519"/>
      <point x="388" y="278"/>
      <point x="388" y="37" type="curve" smooth="yes"/>
      <point x="388" y="4"/>
      <point x="401" y="-31"/>
      <point x="440" y="-31" type="curve" smooth="yes"/>
      <point x="477" y="-31"/>
      <point x="500" y="10"/>
      <point x="500" y="43" type="curve" smooth="yes"/>
      <point x="500" y="448"/>
      <point x="468" y="855"/>
      <point x="462" y="1262" type="curve"/>
      <point x="475" y="1262"/>
      <point x="485" y="1265"/>
      <point x="485" y="1284" type="curve" smooth="yes"/>
      <point x="485" y="1297"/>
      <point x="476" y="1307"/>
      <point x="461" y="1314" type="curve"/>
      <point x="461" y="1493" type="line" smooth="yes"/>
      <point x="461" y="1542"/>
      <point x="410" y="1544"/>
      <point x="377" y="1544" type="curve" smooth="yes"/>
      <point x="370" y="1544" type="line" smooth="yes"/>
      <point x="356" y="1544"/>
      <point x="350" y="1541"/>
      <point x="350" y="1511" type="curve"/>
    </contour>
  </outline>
</glyph>
